<?xml version="1.0" encoding="UTF-8" standalone="no"?>
<!-- Created with Inkscape (http://www.inkscape.org/) -->

<svg
   xmlns:dc="http://purl.org/dc/elements/1.1/"
   xmlns:cc="http://creativecommons.org/ns#"
   xmlns:rdf="http://www.w3.org/1999/02/22-rdf-syntax-ns#"
   xmlns:svg="http://www.w3.org/2000/svg"
   xmlns="http://www.w3.org/2000/svg"
   version="1.1"
   width="727.5"
   height="371.25"
   id="svg3039"
   xml:space="preserve"><metadata
     id="metadata3045"><rdf:RDF><cc:Work
         rdf:about=""><dc:format>image/svg+xml</dc:format><dc:type
           rdf:resource="http://purl.org/dc/dcmitype/StillImage" /><dc:title></dc:title></cc:Work></rdf:RDF></metadata><defs
     id="defs3043"><clipPath
       id="clipPath3055"><path
         d="m 0,6.08203 5820,0 0,2959.99997 -5820,0 L 0,6.08203 z"
         id="path3057" /></clipPath></defs><g
     transform="matrix(1.25,0,0,-1.25,0,371.25)"
     id="g3047"><g
       transform="scale(0.1,0.1)"
       id="g3049"><g
         id="g3051"><g
           clip-path="url(#clipPath3055)"
           id="g3053"><path
             d="m 4298.98,570.457 c 218.99,0 437.93,50.07 602.15,125.188 82.11,37.539 150.55,81.371 198.44,128.32 23.95,23.48 42.77,47.73 55.59,72.379 3.2,6.183 6.05,12.351 8.51,18.562 0.59,1.559 1.17,3.078 1.76,4.649 0.27,0.781 0.55,1.562 0.82,2.34 l 0.63,1.839"
             id="path3059"
             style="fill:none;stroke:#000000;stroke-width:8;stroke-linecap:butt;stroke-linejoin:round;stroke-miterlimit:10;stroke-opacity:1;stroke-dasharray:none" /><path
             d="m 5179.88,921.547 -6.99,38.008 -19.06,-33.641 26.05,-4.367 z"
             id="path3061"
             style="fill:#000000;fill-opacity:1;fill-rule:evenodd;stroke:none" /><path
             d="m 5179.88,921.547 -6.99,38.008 -19.06,-33.641 26.05,-4.367 z"
             id="path3063"
             style="fill:none;stroke:#000000;stroke-width:8;stroke-linecap:butt;stroke-linejoin:miter;stroke-miterlimit:10;stroke-opacity:1;stroke-dasharray:none" /><path
             d="m 4606.84,625.336 434.648,0 0,155.469 -434.648,0 0,-155.469 z"
             id="path3065"
             style="fill:#ffffff;fill-opacity:1;fill-rule:nonzero;stroke:none" /><path
             d="m 1214.84,1225.46 c -137.57,0 -275.149,-30.43 -378.32,-76.1 -51.598,-22.81 -94.61,-49.41 -124.68,-77.97 -7.539,-7.11 -14.262,-14.37 -20.078,-21.73 -2.934,-3.62 -5.633,-7.34 -8.133,-11.04 -1.207,-1.84 -2.418,-3.71 -3.508,-5.59 -0.59,-0.94 -1.141,-1.87 -1.641,-2.78 l -1.101,-1.95"
             id="path3067"
             style="fill:none;stroke:#000000;stroke-width:8;stroke-linecap:butt;stroke-linejoin:round;stroke-miterlimit:10;stroke-opacity:1;stroke-dasharray:none" /><path
             d="m 664.648,1031.82 3.012,-38.515 22.461,31.445 -25.473,7.07 z"
             id="path3069"
             style="fill:#000000;fill-opacity:1;fill-rule:evenodd;stroke:none" /><path
             d="m 664.648,1031.82 3.012,-38.515 22.461,31.445 -25.473,7.07 z"
             id="path3071"
             style="fill:none;stroke:#000000;stroke-width:8;stroke-linecap:butt;stroke-linejoin:miter;stroke-miterlimit:10;stroke-opacity:1;stroke-dasharray:none" /><path
             d="m 1390.35,1101.12 c 0,-121.093 25.51,-181.604 51.02,-242.155 12.73,-30.27 25.51,-60.551 35.08,-98.36 4.76,-18.941 8.75,-39.73 11.56,-63.398 0.7,-5.902 1.33,-11.992 1.87,-18.281 0.24,-3.121 0.51,-6.332 0.74,-9.571 l 0.32,-4.57"
             id="path3073"
             style="fill:none;stroke:#000000;stroke-width:8;stroke-linecap:butt;stroke-linejoin:round;stroke-miterlimit:10;stroke-opacity:1;stroke-dasharray:none" /><path
             d="m 1477.7,664.395 14.33,-35.899 12.11,36.719 -26.44,-0.82 z"
             id="path3075"
             style="fill:#000000;fill-opacity:1;fill-rule:evenodd;stroke:none" /><path
             d="m 1477.7,664.395 14.33,-35.899 12.11,36.719 -26.44,-0.82 z"
             id="path3077"
             style="fill:none;stroke:#000000;stroke-width:8;stroke-linecap:butt;stroke-linejoin:miter;stroke-miterlimit:10;stroke-opacity:1;stroke-dasharray:none" /><path
             d="m 2241.41,146.547 2103.67,0 0,1560.43 -2103.67,0 0,-1560.43 z"
             id="path3079"
             style="fill:none;stroke:#999999;stroke-width:8;stroke-linecap:butt;stroke-linejoin:round;stroke-miterlimit:10;stroke-opacity:1;stroke-dasharray:64, 24;stroke-dashoffset:0" /><path
             d="M 3276.76,1168.93 3805.08,764.477"
             id="path3081"
             style="fill:none;stroke:#000000;stroke-width:8;stroke-linecap:butt;stroke-linejoin:round;stroke-miterlimit:10;stroke-opacity:1;stroke-dasharray:none" /><path
             d="m 3797.03,753.965 36.88,-11.559 -20.82,32.539 -16.06,-20.98 z"
             id="path3083"
             style="fill:#000000;fill-opacity:1;fill-rule:evenodd;stroke:none" /><path
             d="m 3797.03,753.965 36.88,-11.559 -20.82,32.539 -16.06,-20.98 z"
             id="path3085"
             style="fill:none;stroke:#000000;stroke-width:8;stroke-linecap:butt;stroke-linejoin:miter;stroke-miterlimit:10;stroke-opacity:1;stroke-dasharray:none" /><path
             d="M 3095.74,1168.93 2804.73,773.926"
             id="path3087"
             style="fill:none;stroke:#000000;stroke-width:8;stroke-linecap:butt;stroke-linejoin:round;stroke-miterlimit:10;stroke-opacity:1;stroke-dasharray:none" /><path
             d="m 2794.06,781.734 -10.9,-37.027 32.19,21.367 -21.29,15.66 z"
             id="path3089"
             style="fill:#000000;fill-opacity:1;fill-rule:evenodd;stroke:none" /><path
             d="m 2794.06,781.734 -10.9,-37.027 32.19,21.367 -21.29,15.66 z"
             id="path3091"
             style="fill:none;stroke:#000000;stroke-width:8;stroke-linecap:butt;stroke-linejoin:miter;stroke-miterlimit:10;stroke-opacity:1;stroke-dasharray:none" /><path
             d="m 92.8086,146.625 2103.71,0 0,1560.43 -2103.71,0 0,-1560.43 z"
             id="path3093"
             style="fill:none;stroke:#999999;stroke-width:8;stroke-linecap:butt;stroke-linejoin:round;stroke-miterlimit:10;stroke-opacity:1;stroke-dasharray:64, 24;stroke-dashoffset:0" /><path
             d="m 389.262,1140.93 618.867,0 0,179.918 -618.867,0 0,-179.918 z"
             id="path3095"
             style="fill:#ffffff;fill-opacity:1;fill-rule:nonzero;stroke:none" /><path
             d="m 1250.78,769.047 745.309,0 0,179.918 -745.309,0 0,-179.918 z"
             id="path3097"
             style="fill:#ffffff;fill-opacity:1;fill-rule:nonzero;stroke:none" /><path
             d="m 2453.95,907.016 618.832,0 0,155.469 -618.832,0 0,-155.469 z"
             id="path3099"
             style="fill:#ffffff;fill-opacity:1;fill-rule:nonzero;stroke:none" /><path
             d="m 3330.23,871.035 618.828,0 0,179.879 -618.828,0 0,-179.879 z"
             id="path3101"
             style="fill:#ffffff;fill-opacity:1;fill-rule:nonzero;stroke:none" /><path
             d="M 1777.5,2035.68 1368.55,1390.09"
             id="path3103"
             style="fill:none;stroke:#000000;stroke-width:8;stroke-linecap:butt;stroke-linejoin:round;stroke-miterlimit:10;stroke-opacity:1;stroke-dasharray:none" /><path
             d="m 1357.38,1397.21 -8.28,-37.78 30.63,23.6 -22.35,14.18 z"
             id="path3105"
             style="fill:#000000;fill-opacity:1;fill-rule:evenodd;stroke:none" /><path
             d="m 1357.38,1397.21 -8.28,-37.78 30.63,23.6 -22.35,14.18 z"
             id="path3107"
             style="fill:none;stroke:#000000;stroke-width:8;stroke-linecap:butt;stroke-linejoin:miter;stroke-miterlimit:10;stroke-opacity:1;stroke-dasharray:none" /><path
             d="m 1151.25,1495.25 618.828,0 0,155.473 -618.828,0 0,-155.473 z"
             id="path3109"
             style="fill:#ffffff;fill-opacity:1;fill-rule:nonzero;stroke:none" /><path
             d="m 2696.13,2035.68 461.33,-616.2"
             id="path3111"
             style="fill:none;stroke:#000000;stroke-width:8;stroke-linecap:butt;stroke-linejoin:round;stroke-miterlimit:10;stroke-opacity:1;stroke-dasharray:none" /><path
             d="m 3146.88,1411.59 32.34,-21.18 -11.17,37 -21.17,-15.82 z"
             id="path3113"
             style="fill:#000000;fill-opacity:1;fill-rule:evenodd;stroke:none" /><path
             d="m 3146.88,1411.59 32.34,-21.18 -11.17,37 -21.17,-15.82 z"
             id="path3115"
             style="fill:none;stroke:#000000;stroke-width:8;stroke-linecap:butt;stroke-linejoin:miter;stroke-miterlimit:10;stroke-opacity:1;stroke-dasharray:none" /><path
             d="m 2696.13,1495.25 745.352,0 0,155.473 -745.352,0 0,-155.473 z"
             id="path3117"
             style="fill:#ffffff;fill-opacity:1;fill-rule:nonzero;stroke:none" /><path
             d="m 92.8086,1741.62 4252.23,0 0,904.34 -4252.23,0 0,-904.34 z"
             id="path3119"
             style="fill:none;stroke:#999999;stroke-width:8;stroke-linecap:butt;stroke-linejoin:round;stroke-miterlimit:10;stroke-opacity:1;stroke-dasharray:64, 24;stroke-dashoffset:0" /><path
             d="m 1587.27,2207.88 c 0,134.49 290.82,243.51 649.57,243.51 358.75,0 649.57,-109.02 649.57,-243.51 0,-134.5 -290.82,-243.52 -649.57,-243.52 -358.75,0 -649.57,109.02 -649.57,243.52 z"
             id="path3121"
             style="fill:#fff2cc;fill-opacity:1;fill-rule:nonzero;stroke:none" /><path
             d="m 1587.27,2207.88 c 0,134.49 290.82,243.51 649.57,243.51 358.75,0 649.57,-109.02 649.57,-243.51 0,-134.5 -290.82,-243.52 -649.57,-243.52 -358.75,0 -649.57,109.02 -649.57,243.52 z"
             id="path3123"
             style="fill:none;stroke:#000000;stroke-width:8;stroke-linecap:butt;stroke-linejoin:round;stroke-miterlimit:10;stroke-opacity:1;stroke-dasharray:none" /><path
             d="m 2027.34,2182.37 11.64,-1.37 c -1.83,-6.84 -5.23,-12.11 -10.23,-15.86 -4.92,-3.75 -11.21,-5.62 -18.91,-5.62 -9.72,0 -17.46,2.96 -23.12,8.98 -5.67,6.02 -8.48,14.38 -8.48,25.12 0,11.17 2.85,19.84 8.64,26.01 5.74,6.17 13.2,9.26 22.34,9.26 8.83,0 16.05,-3.05 21.64,-9.14 5.66,-6.02 8.52,-14.45 8.52,-25.39 l 0,-2.97 -49.54,0 c 0.43,-7.34 2.46,-12.98 6.14,-16.87 3.75,-3.84 8.4,-5.79 13.86,-5.79 4.18,0 7.74,1.09 10.63,3.29 2.93,2.14 5.23,5.62 6.87,10.35 z m -36.87,18.24 37.03,0 c -0.51,5.59 -1.95,9.77 -4.26,12.5 -3.59,4.34 -8.2,6.52 -13.86,6.52 -5.2,0 -9.58,-1.75 -13.13,-5.27 -3.52,-3.4 -5.43,-7.97 -5.78,-13.75 z m 55.19,-39.61 24.26,34.48 -22.5,31.89 14.14,0 10.12,-15.51 c 1.91,-2.97 3.44,-5.47 4.61,-7.5 1.83,2.77 3.55,5.23 5.12,7.37 l 11.13,15.64 13.51,0 -23,-31.25 24.76,-35.12 -13.9,0 -13.6,20.63 -3.63,5.62 -17.38,-26.25 -13.64,0 z m 74.65,53.63 0,12.74 12.74,0 0,-12.74 -12.74,0 z m 0,-53.63 0,12.89 12.74,0 0,-12.89 -12.74,0 z m 75.67,8.23 c -4.18,-3.55 -8.17,-6.12 -12,-7.6 -3.82,-1.42 -7.96,-2.11 -12.38,-2.11 -7.34,0 -12.97,1.78 -16.87,5.35 -3.91,3.59 -5.86,8.11 -5.86,13.63 0,3.23 0.74,6.21 2.22,8.87 1.53,2.77 3.44,4.92 5.79,6.52 2.38,1.64 5.11,2.89 8.12,3.75 2.23,0.59 5.55,1.09 10,1.59 9.06,1.11 15.78,2.4 20.12,3.88 l 0,3.01 c 0,4.61 -1.06,7.81 -3.13,9.65 -2.93,2.57 -7.22,3.86 -12.89,3.86 -5.23,0 -9.18,-0.97 -11.76,-2.9 -2.5,-1.82 -4.33,-5.07 -5.46,-9.71 l -11.02,1.48 c 1.02,4.68 2.62,8.48 4.88,11.37 2.31,2.93 5.67,5.11 10,6.63 4.34,1.57 9.34,2.39 15,2.39 5.67,0 10.24,-0.66 13.75,-2.03 3.56,-1.33 6.21,-2.97 7.85,-5 1.68,-1.99 2.86,-4.54 3.52,-7.63 0.43,-1.91 0.62,-5.34 0.62,-10.34 l 0,-15 c 0,-10.51 0.2,-17.16 0.63,-19.89 0.51,-2.77 1.44,-5.43 2.85,-8 l -11.72,0 c -1.17,2.34 -1.91,5.07 -2.26,8.23 z m -0.86,25.13 c -4.1,-1.65 -10.24,-3.06 -18.4,-4.22 -4.65,-0.66 -7.93,-1.44 -9.84,-2.26 -1.96,-0.83 -3.44,-2.08 -4.54,-3.75 -0.97,-1.58 -1.48,-3.33 -1.48,-5.24 0,-3.01 1.13,-5.51 3.36,-7.5 2.34,-2.03 5.66,-3.01 10,-3.01 4.33,0 8.16,0.9 11.52,2.74 3.4,1.91 5.9,4.56 7.5,7.88 1.25,2.5 1.88,6.25 1.88,11.25 l 0,4.11 z m 28.79,-33.36 0,66.37 10.15,0 0,-9.39 c 4.81,7.27 11.88,10.91 21.1,10.91 4.02,0 7.69,-0.71 11.01,-2.16 3.32,-1.39 5.82,-3.27 7.5,-5.61 1.68,-2.32 2.81,-5.12 3.52,-8.37 0.39,-2.07 0.62,-5.7 0.62,-10.89 l 0,-40.86 -11.25,0 0,40.39 c 0,4.57 -0.47,7.97 -1.4,10.24 -0.82,2.33 -2.35,4.17 -4.61,5.5 -2.19,1.33 -4.77,2 -7.74,2 -4.84,0 -9.02,-1.54 -12.5,-4.61 -3.43,-3.02 -5.15,-8.75 -5.15,-17.27 l 0,-36.25 -11.25,0 z m 71.21,0 0,66.37 10.11,0 0,-9.39 c 4.85,7.27 11.88,10.91 21.14,10.91 3.98,0 7.65,-0.71 10.97,-2.16 3.36,-1.39 5.86,-3.27 7.5,-5.61 1.68,-2.32 2.86,-5.12 3.52,-8.37 0.43,-2.07 0.62,-5.7 0.62,-10.89 l 0,-40.86 -11.25,0 0,40.39 c 0,4.57 -0.46,7.97 -1.36,10.24 -0.86,2.33 -2.39,4.17 -4.65,5.5 -2.15,1.33 -4.73,2 -7.74,2 -4.84,0 -8.98,-1.54 -12.5,-4.61 -3.43,-3.02 -5.11,-8.75 -5.11,-17.27 l 0,-36.25 -11.25,0 z m 66.91,33.23 c 0,12.27 3.44,21.34 10.27,27.27 5.75,4.93 12.7,7.39 20.86,7.39 9.18,0 16.64,-3.01 22.39,-9.02 5.82,-5.91 8.75,-14.14 8.75,-24.73 0,-8.51 -1.29,-15.23 -3.87,-20.16 -2.58,-4.89 -6.33,-8.75 -11.25,-11.48 -4.84,-2.66 -10.2,-3.98 -16.02,-3.98 -9.25,0 -16.75,2.93 -22.5,8.86 -5.74,5.98 -8.63,14.6 -8.63,25.85 z m 11.64,0 c 0,-8.46 1.84,-14.87 5.51,-19.09 3.75,-4.26 8.4,-6.41 13.98,-6.41 5.59,0 10.2,2.15 13.87,6.41 3.75,4.22 5.63,10.74 5.63,19.49 0,8.17 -1.88,14.37 -5.63,18.64 -3.67,4.21 -8.28,6.36 -13.87,6.36 -5.58,0 -10.23,-2.15 -13.98,-6.36 -3.67,-4.18 -5.51,-10.52 -5.51,-19.04 z m 103.05,-33.23 -11.25,0 0,71.75 c -2.74,-2.57 -6.33,-5.16 -10.74,-7.77 -4.34,-2.57 -8.25,-4.52 -11.76,-5.85 l 0,10.85 c 6.25,3 11.72,6.61 16.41,10.79 4.72,4.21 8.12,8.32 10.11,12.21 l 7.23,0 0,-91.98 z"
             id="path3125"
             style="fill:#000000;fill-opacity:1;fill-rule:nonzero;stroke:none" /><path
             d="m 1214.84,1225.46 c 0,68.59 57.31,124.2 128.01,124.2 33.95,0 66.49,-13.07 90.51,-36.39 23.98,-23.29 37.5,-54.89 37.5,-87.81 0,-68.64 -57.34,-124.23 -128.01,-124.23 -70.7,0 -128.01,55.59 -128.01,124.23 z"
             id="path3127"
             style="fill:#c9daf8;fill-opacity:1;fill-rule:nonzero;stroke:none" /><path
             d="m 1214.84,1225.46 c 0,68.59 57.31,124.2 128.01,124.2 33.95,0 66.49,-13.07 90.51,-36.39 23.98,-23.29 37.5,-54.89 37.5,-87.81 0,-68.64 -57.34,-124.23 -128.01,-124.23 -70.7,0 -128.01,55.59 -128.01,124.23 z"
             id="path3129"
             style="fill:none;stroke:#3c78d8;stroke-width:8;stroke-linecap:butt;stroke-linejoin:round;stroke-miterlimit:10;stroke-opacity:1;stroke-dasharray:none" /><path
             d="m 1797.58,2772.84 c 0,14.57 4.06,25.39 12.22,32.5 6.76,5.82 15,8.75 24.77,8.75 10.82,0 19.65,-3.61 26.48,-10.79 6.92,-7.07 10.4,-16.87 10.4,-29.37 0,-10.15 -1.57,-18.16 -4.65,-23.98 -2.97,-5.75 -7.39,-10.24 -13.25,-13.52 -5.74,-3.16 -12.07,-4.73 -18.98,-4.73 -11.02,0 -19.92,3.51 -26.76,10.62 -6.83,7.07 -10.23,17.23 -10.23,30.52 z m 13.75,0 c 0,-10.13 2.19,-17.66 6.6,-22.66 4.41,-5 9.96,-7.5 16.64,-7.5 6.64,0 12.15,2.5 16.48,7.5 4.42,5.07 6.65,12.8 6.65,23.12 0,9.77 -2.23,17.16 -6.65,22.16 -4.41,5 -9.92,7.5 -16.48,7.5 -6.68,0 -12.23,-2.5 -16.64,-7.5 -4.41,-5 -6.6,-12.55 -6.6,-22.62 z m 125.74,-29.66 c -5,-4.25 -9.8,-7.22 -14.37,-8.98 -4.58,-1.67 -9.5,-2.5 -14.77,-2.5 -8.55,0 -15.2,2.08 -19.84,6.26 -4.69,4.25 -7.04,9.63 -7.04,16.24 0,3.91 0.9,7.46 2.66,10.62 1.72,3.16 4.02,5.71 6.88,7.63 2.81,1.91 6.01,3.35 9.61,4.37 2.65,0.73 6.64,1.41 11.87,1.98 10.82,1.34 18.79,2.9 23.87,4.66 l 0,3.47 c 0,5.44 -1.25,9.27 -3.75,11.53 -3.4,2.97 -8.48,4.5 -15.24,4.5 -6.25,0 -10.9,-1.1 -13.86,-3.25 -3.01,-2.18 -5.24,-6.09 -6.64,-11.75 l -13.13,1.86 c 1.25,5.59 3.2,10.09 5.86,13.48 2.77,3.43 6.68,6.06 11.76,7.9 5.15,1.91 11.17,2.89 18.01,2.89 6.75,0 12.18,-0.82 16.36,-2.39 4.18,-1.61 7.27,-3.59 9.26,-6.02 1.99,-2.41 3.36,-5.47 4.14,-9.09 0.47,-2.27 0.74,-6.38 0.74,-12.27 l 0,-17.89 c 0,-12.43 0.24,-20.27 0.75,-23.59 0.58,-3.29 1.75,-6.41 3.51,-9.38 l -14.02,0 c -1.41,2.74 -2.31,5.97 -2.62,9.72 z m -1.13,29.78 c -4.85,-1.92 -12.11,-3.6 -21.88,-5 -5.51,-0.75 -9.37,-1.66 -11.6,-2.62 -2.26,-1.02 -4.02,-2.46 -5.27,-4.38 -1.25,-1.96 -1.88,-4.07 -1.88,-6.41 0,-3.55 1.33,-6.57 4.03,-8.98 2.73,-2.34 6.68,-3.52 11.87,-3.52 5.16,0 9.73,1.13 13.75,3.41 3.99,2.29 6.95,5.38 8.87,9.25 1.4,3.04 2.11,7.54 2.11,13.36 l 0,4.89 z m 36.4,24.09 0,15.27 15.24,0 0,-15.27 -15.24,0 z m 0,-63.59 0,15.24 15.24,0 0,-15.24 -15.24,0 z m 27.46,0 41.88,108.75 15.47,0 44.53,-108.75 -16.41,0 -12.73,32.97 -45.51,0 -11.87,-32.97 -15.36,0 z m 31.37,44.61 36.88,0 -11.25,30.23 c -3.52,9.11 -6.1,16.61 -7.78,22.5 -1.4,-7 -3.36,-13.91 -5.86,-20.75 l -11.99,-31.98 z m 78.4,-44.61 0,78.86 12.03,0 0,-11.25 c 5.82,8.68 14.18,13.02 25.12,13.02 4.73,0 9.1,-0.91 13.12,-2.66 3.99,-1.64 6.96,-3.9 8.87,-6.72 1.99,-2.78 3.44,-6.01 4.26,-9.76 0.51,-2.5 0.74,-6.84 0.74,-13.02 l 0,-48.47 -13.36,0 0,47.97 c 0,5.43 -0.55,9.45 -1.64,12.14 -1.01,2.73 -2.81,4.93 -5.51,6.48 -2.65,1.61 -5.78,2.4 -9.37,2.4 -5.67,0 -10.59,-1.81 -14.73,-5.4 -4.1,-3.55 -6.13,-10.42 -6.13,-20.62 l 0,-42.97 -13.4,0 z m 83.01,0 0,78.86 12.03,0 0,-11.25 c 5.82,8.68 14.18,13.02 25.12,13.02 4.72,0 9.1,-0.91 13.12,-2.66 3.99,-1.64 6.95,-3.9 8.87,-6.72 1.99,-2.78 3.44,-6.01 4.26,-9.76 0.5,-2.5 0.74,-6.84 0.74,-13.02 l 0,-48.47 -13.36,0 0,47.97 c 0,5.43 -0.55,9.45 -1.64,12.14 -1.02,2.73 -2.85,4.93 -5.51,6.48 -2.66,1.61 -5.78,2.4 -9.37,2.4 -5.67,0 -10.59,-1.81 -14.73,-5.4 -4.1,-3.55 -6.13,-10.42 -6.13,-20.62 l 0,-42.97 -13.4,0 z m 78.01,39.38 c 0,14.57 4.1,25.39 12.26,32.5 6.76,5.82 15,8.75 24.77,8.75 10.82,0 19.65,-3.61 26.48,-10.79 6.92,-7.07 10.39,-16.87 10.39,-29.37 0,-10.15 -1.56,-18.16 -4.65,-23.98 -3,-5.75 -7.42,-10.24 -13.24,-13.52 -5.74,-3.16 -12.07,-4.73 -18.98,-4.73 -11.02,0 -19.92,3.51 -26.76,10.62 -6.84,7.07 -10.27,17.23 -10.27,30.52 z m 13.75,0 c 0,-10.13 2.22,-17.66 6.64,-22.66 4.41,-5 9.96,-7.5 16.64,-7.5 6.64,0 12.15,2.5 16.48,7.5 4.42,5.07 6.64,12.8 6.64,23.12 0,9.77 -2.22,17.16 -6.64,22.16 -4.41,5 -9.92,7.5 -16.48,7.5 -6.68,0 -12.23,-2.5 -16.64,-7.5 -4.42,-5 -6.64,-12.55 -6.64,-22.62 z m 103.51,-27.38 1.88,-11.89 c -3.75,-0.73 -7.11,-1.12 -10.12,-1.12 -4.84,0 -8.59,0.73 -11.25,2.26 -2.66,1.57 -4.53,3.56 -5.63,5.97 -1.09,2.5 -1.64,7.82 -1.64,15.91 l 0,45.23 -9.84,0 0,10.5 9.84,0 0,19.5 13.29,8 0,-27.5 13.47,0 0,-10.5 -13.47,0 0,-46.02 c 0,-3.82 0.19,-6.28 0.62,-7.34 0.47,-1.09 1.29,-2 2.34,-2.66 1.1,-0.66 2.66,-0.98 4.65,-0.98 1.41,0 3.36,0.21 5.86,0.64 z m 63.71,-2.28 c -5,-4.25 -9.76,-7.22 -14.37,-8.98 -4.57,-1.67 -9.49,-2.5 -14.73,-2.5 -8.59,0 -15.23,2.08 -19.88,6.26 -4.69,4.25 -6.99,9.63 -6.99,16.24 0,3.91 0.86,7.46 2.61,10.62 1.76,3.16 4.03,5.71 6.88,7.63 2.81,1.91 6.05,3.35 9.61,4.37 2.69,0.73 6.64,1.41 11.87,1.98 10.86,1.34 18.79,2.9 23.87,4.66 l 0,3.47 c 0,5.44 -1.25,9.27 -3.75,11.53 -3.4,2.97 -8.48,4.5 -15.23,4.5 -6.25,0 -10.86,-1.1 -13.87,-3.25 -3.01,-2.18 -5.2,-6.09 -6.64,-11.75 l -13.13,1.86 c 1.25,5.59 3.21,10.09 5.9,13.48 2.74,3.43 6.64,6.06 11.72,7.9 5.19,1.91 11.17,2.89 18.01,2.89 6.76,0 12.22,-0.82 16.36,-2.39 4.18,-1.61 7.27,-3.59 9.26,-6.02 1.99,-2.41 3.4,-5.47 4.14,-9.09 0.51,-2.27 0.75,-6.38 0.75,-12.27 l 0,-17.89 c 0,-12.43 0.23,-20.27 0.74,-23.59 0.58,-3.29 1.76,-6.41 3.51,-9.38 l -14.02,0 c -1.41,2.74 -2.27,5.97 -2.62,9.72 z m -1.13,29.78 c -4.81,-1.92 -12.11,-3.6 -21.88,-5 -5.46,-0.75 -9.37,-1.66 -11.6,-2.62 -2.26,-1.02 -4.02,-2.46 -5.27,-4.38 -1.25,-1.96 -1.88,-4.07 -1.88,-6.41 0,-3.55 1.37,-6.57 4.03,-8.98 2.73,-2.34 6.72,-3.52 11.87,-3.52 5.16,0 9.73,1.13 13.75,3.41 3.99,2.29 6.96,5.38 8.87,9.25 1.41,3.04 2.11,7.54 2.11,13.36 l 0,4.89 z m 61.91,-27.5 1.88,-11.89 c -3.75,-0.73 -7.15,-1.12 -10.16,-1.12 -4.8,0 -8.55,0.73 -11.25,2.26 -2.65,1.57 -4.53,3.56 -5.62,5.97 -1.06,2.5 -1.6,7.82 -1.6,15.91 l 0,45.23 -9.89,0 0,10.5 9.89,0 0,19.5 13.24,8 0,-27.5 13.51,0 0,-10.5 -13.51,0 0,-46.02 c 0,-3.82 0.19,-6.28 0.62,-7.34 0.51,-1.09 1.29,-2 2.39,-2.66 1.09,-0.66 2.61,-0.98 4.61,-0.98 1.4,0 3.39,0.21 5.89,0.64 z m 12.35,81.47 0,15.28 13.36,0 0,-15.28 -13.36,0 z m 0,-93.47 0,78.86 13.36,0 0,-78.86 -13.36,0 z m 28.01,39.38 c 0,14.57 4.1,25.39 12.26,32.5 6.76,5.82 15,8.75 24.73,8.75 10.86,0 19.69,-3.61 26.52,-10.79 6.91,-7.07 10.35,-16.87 10.35,-29.37 0,-10.15 -1.52,-18.16 -4.61,-23.98 -3,-5.75 -7.42,-10.24 -13.24,-13.52 -5.74,-3.16 -12.11,-4.73 -19.02,-4.73 -10.98,0 -19.89,3.51 -26.72,10.62 -6.84,7.07 -10.27,17.23 -10.27,30.52 z m 13.75,0 c 0,-10.13 2.22,-17.66 6.64,-22.66 4.41,-5 9.96,-7.5 16.6,-7.5 6.68,0 12.19,2.5 16.52,7.5 4.41,5.07 6.6,12.8 6.6,23.12 0,9.77 -2.19,17.16 -6.6,22.16 -4.41,5 -9.92,7.5 -16.52,7.5 -6.64,0 -12.19,-2.5 -16.6,-7.5 -4.42,-5 -6.64,-12.55 -6.64,-22.62 z m 74.25,-39.38 0,78.86 12,0 0,-11.25 c 5.85,8.68 14.21,13.02 25.15,13.02 4.73,0 9.1,-0.91 13.13,-2.66 3.98,-1.64 6.95,-3.9 8.86,-6.72 2,-2.78 3.4,-6.01 4.26,-9.76 0.47,-2.5 0.74,-6.84 0.74,-13.02 l 0,-48.47 -13.39,0 0,47.97 c 0,5.43 -0.55,9.45 -1.61,12.14 -1.01,2.73 -2.85,4.93 -5.5,6.48 -2.66,1.61 -5.79,2.4 -9.38,2.4 -5.66,0 -10.58,-1.81 -14.76,-5.4 -4.07,-3.55 -6.1,-10.42 -6.1,-20.62 l 0,-42.97 -13.4,0 z"
             id="path3131"
             style="fill:#000000;fill-opacity:1;fill-rule:nonzero;stroke:none" /><path
             d="m 1334.45,1544.32 -10.5,0 0,91.59 11.25,0 0,-32.61 c 4.76,5.93 10.82,8.86 18.24,8.86 4.1,0 7.93,-0.82 11.52,-2.5 3.63,-1.55 6.64,-3.86 8.99,-6.86 2.42,-3.01 4.29,-6.6 5.62,-10.87 1.33,-4.18 1.99,-8.63 1.99,-13.39 0,-11.41 -2.81,-20.24 -8.47,-26.49 -5.59,-6.17 -12.35,-9.25 -20.28,-9.25 -7.81,0 -13.94,3.32 -18.36,9.88 l 0,-8.36 z m -0.11,33.75 c 0,-8.02 1.05,-13.75 3.24,-17.27 3.47,-5.82 8.28,-8.75 14.37,-8.75 4.93,0 9.14,2.11 12.74,6.36 3.59,4.34 5.39,10.72 5.39,19.14 0,8.68 -1.76,15.04 -5.28,19.11 -3.39,4.18 -7.53,6.25 -12.34,6.25 -4.92,0 -9.18,-2.11 -12.77,-6.36 -3.6,-4.26 -5.35,-10.39 -5.35,-18.48 z m 56.68,-0.52 c 0,12.24 3.39,21.34 10.23,27.24 5.74,4.92 12.73,7.37 20.9,7.37 9.14,0 16.6,-3 22.34,-8.98 5.86,-5.93 8.75,-14.18 8.75,-24.77 0,-8.46 -1.29,-15.18 -3.86,-20.11 -2.58,-4.92 -6.33,-8.75 -11.26,-11.48 -4.84,-2.69 -10.15,-4.02 -15.97,-4.02 -9.26,0 -16.76,2.97 -22.5,8.86 -5.78,6.02 -8.63,14.64 -8.63,25.89 z m 11.6,0 c 0,-8.5 1.83,-14.87 5.5,-19.14 3.76,-4.25 8.44,-6.36 14.03,-6.36 5.58,0 10.19,2.11 13.87,6.36 3.75,4.27 5.62,10.75 5.62,19.5 0,8.21 -1.87,14.38 -5.62,18.64 -3.68,4.25 -8.29,6.36 -13.87,6.36 -5.59,0 -10.27,-2.11 -14.03,-6.36 -3.67,-4.14 -5.5,-10.51 -5.5,-19 z m 106.83,-33.23 0,8.36 c -4.18,-6.56 -10.35,-9.88 -18.51,-9.88 -5.32,0 -10.2,1.48 -14.61,4.36 -4.42,2.93 -7.89,7 -10.39,12.27 -2.42,5.23 -3.64,11.25 -3.64,18.02 0,6.64 1.1,12.64 3.29,17.96 2.22,5.43 5.58,9.57 10,12.39 4.41,2.93 9.37,4.36 14.84,4.36 4.02,0 7.54,-0.82 10.62,-2.5 3.17,-1.63 5.75,-3.86 7.66,-6.59 l 0,32.84 11.25,0 0,-91.59 -10.51,0 z m -35.5,33.13 c 0,-8.52 1.79,-14.9 5.39,-19.15 3.55,-4.17 7.77,-6.25 12.61,-6.25 4.93,0 9.07,2 12.5,6.02 3.48,4.06 5.24,10.23 5.24,18.48 0,9.09 -1.76,15.74 -5.24,20 -3.51,4.25 -7.85,6.36 -13,6.36 -5,0 -9.18,-2.03 -12.5,-6.09 -3.33,-4.11 -5,-10.54 -5,-19.37 z m 63.2,-58.75 -1.25,10.62 c 2.38,-0.66 4.53,-1.02 6.37,-1.02 2.5,0 4.49,0.43 5.97,1.25 1.53,0.83 2.78,2 3.75,3.52 0.67,1.06 1.8,3.86 3.4,8.36 0.23,0.59 0.59,1.48 0.98,2.73 l -25.12,66.52 12.15,0 13.75,-38.39 c 1.83,-4.88 3.44,-10.04 4.84,-15.36 1.25,5.16 2.81,10.2 4.65,15.12 l 14.1,38.63 11.25,0 -25.23,-67.5 c -2.66,-7.34 -4.77,-12.38 -6.25,-15.11 -1.99,-3.68 -4.3,-6.41 -6.88,-8.12 -2.58,-1.77 -5.66,-2.66 -9.25,-2.66 -2.15,0 -4.58,0.46 -7.23,1.41 z"
             id="path3133"
             style="fill:#000000;fill-opacity:1;fill-rule:nonzero;stroke:none" /><path
             d="m 143.441,817.094 c 0,91.09 233.321,164.922 521.09,164.922 287.77,0 521.059,-73.832 521.059,-164.922 0,-91.059 -233.289,-164.93 -521.059,-164.93 -287.769,0 -521.09,73.871 -521.09,164.93 z"
             id="path3135"
             style="fill:none;stroke:#000000;stroke-width:8;stroke-linecap:butt;stroke-linejoin:round;stroke-miterlimit:10;stroke-opacity:1;stroke-dasharray:none" /><path
             d="m 458.629,791.586 11.641,-1.371 c -1.829,-6.84 -5.231,-12.11 -10.231,-15.86 -4.918,-3.75 -11.211,-5.621 -18.91,-5.621 -9.719,0 -17.457,2.961 -23.117,8.981 -5.672,6.019 -8.481,14.379 -8.481,25.121 0,11.168 2.848,19.84 8.629,26.008 5.75,6.183 13.211,9.261 22.352,9.261 8.867,0 16.047,-3.05 21.636,-9.14 5.661,-6.008 8.512,-14.449 8.512,-25.391 l 0,-2.969 -49.531,0 c 0.43,-7.339 2.461,-12.968 6.141,-16.871 3.75,-3.867 8.39,-5.777 13.859,-5.777 4.18,0 7.742,1.09 10.633,3.277 2.929,2.141 5.226,5.621 6.867,10.352 z m -36.867,18.238 37.027,0 c -0.508,5.59 -1.91,9.77 -4.258,12.5 -3.59,4.34 -8.203,6.52 -13.871,6.52 -5.191,0 -9.57,-1.75 -13.121,-5.27 -3.519,-3.398 -5.43,-7.969 -5.777,-13.75 z m 55.187,-39.609 24.262,34.492 -22.5,31.879 14.141,0 10.117,-15.512 c 1.91,-2.969 3.441,-5.469 4.609,-7.5 1.832,2.77 3.551,5.231 5.121,7.383 l 11.129,15.629 13.512,0 -23,-31.25 24.762,-35.121 -13.903,0 -13.597,20.629 -3.633,5.621 -17.379,-26.25 -13.641,0 z m 74.653,53.629 0,12.742 12.738,0 0,-12.742 -12.738,0 z m 0,-53.629 0,12.89 12.738,0 0,-12.89 -12.738,0 z m 42.808,0 -10.5,0 0,91.64 11.25,0 0,-32.66 c 4.719,5.942 10.82,8.91 18.238,8.91 4.102,0 7.93,-0.859 11.481,-2.5 3.672,-1.601 6.68,-3.91 9.031,-6.871 2.418,-3.007 4.289,-6.64 5.621,-10.898 1.328,-4.141 1.989,-8.641 1.989,-13.359 0,-11.411 -2.848,-20.282 -8.508,-26.52 -5.59,-6.141 -12.313,-9.223 -20.242,-9.223 -7.848,0 -13.942,3.282 -18.36,9.84 l 0,-8.359 z m -0.148,33.75 c 0,-8.008 1.09,-13.75 3.277,-17.27 3.481,-5.82 8.281,-8.738 14.371,-8.738 4.891,0 9.141,2.137 12.738,6.398 3.59,4.34 5.391,10.7 5.391,19.102 0,8.668 -1.758,15.039 -5.269,19.137 -3.399,4.14 -7.54,6.25 -12.391,6.25 -4.879,0 -9.141,-2.149 -12.731,-6.36 -3.597,-4.257 -5.386,-10.429 -5.386,-18.519 z m 56.718,-0.508 c 0,12.27 3.399,21.328 10.231,27.27 5.738,4.918 12.699,7.378 20.859,7.378 9.18,0 16.641,-3.011 22.379,-9.019 5.86,-5.902 8.75,-14.141 8.75,-24.731 0,-8.511 -1.289,-15.23 -3.859,-20.16 -2.578,-4.879 -6.328,-8.738 -11.25,-11.48 -4.852,-2.66 -10.16,-3.981 -16.02,-3.981 -9.218,0 -16.718,2.93 -22.5,8.86 -5.742,5.98 -8.59,14.613 -8.59,25.863 z m 11.598,0 c 0,-8.473 1.832,-14.883 5.512,-19.102 3.75,-4.261 8.39,-6.398 13.98,-6.398 5.59,0 10.231,2.137 13.91,6.398 3.75,4.219 5.622,10.739 5.622,19.489 0,8.172 -1.872,14.383 -5.622,18.64 -3.679,4.211 -8.32,6.36 -13.91,6.36 -5.59,0 -10.23,-2.149 -13.98,-6.36 -3.68,-4.179 -5.512,-10.507 -5.512,-19.027 z m 106.832,-33.242 0,8.359 c -4.18,-6.558 -10.351,-9.84 -18.512,-9.84 -5.347,0 -10.199,1.442 -14.609,4.371 -4.41,2.891 -7.891,6.989 -10.391,12.231 -2.418,5.269 -3.628,11.25 -3.628,18.008 0,6.683 1.089,12.652 3.242,18 2.258,5.39 5.578,9.531 10,12.39 4.41,2.891 9.367,4.371 14.879,4.371 4.019,0 7.539,-0.859 10.629,-2.5 3.16,-1.679 5.699,-3.91 7.609,-6.64 l 0,32.89 11.25,0 0,-91.64 -10.469,0 z m -35.5,33.129 c 0,-8.52 1.789,-14.887 5.352,-19.149 3.59,-4.14 7.808,-6.238 12.648,-6.238 4.891,0 9.07,2.027 12.5,6.008 3.481,4.101 5.238,10.23 5.238,18.519 0,9.063 -1.757,15.743 -5.238,20 -3.512,4.211 -7.851,6.36 -13,6.36 -5,0 -9.18,-2.028 -12.5,-6.129 -3.359,-4.098 -5,-10.551 -5,-19.371 z m 63.16,-58.75 -1.25,10.621 c 2.418,-0.66 4.571,-1.02 6.41,-1.02 2.5,0 4.489,0.43 5.969,1.262 1.531,0.848 2.781,2.027 3.75,3.508 0.672,1.09 1.801,3.871 3.403,8.359 0.238,0.59 0.589,1.52 0.976,2.77 l -25.117,66.492 12.109,0 13.75,-38.359 c 1.84,-4.922 3.481,-10.043 4.879,-15.391 1.25,5.148 2.821,10.23 4.653,15.121 l 14.097,38.629 11.25,0 -25.23,-67.5 c -2.66,-7.352 -4.77,-12.391 -6.25,-15.121 -1.989,-3.668 -4.297,-6.371 -6.879,-8.121 -2.57,-1.758 -5.66,-2.617 -9.25,-2.617 -2.149,0 -4.57,0.468 -7.27,1.367 z m 103.75,25.621 -11.25,0 0,71.762 c -2.73,-2.582 -6.332,-5.161 -10.742,-7.782 -4.34,-2.57 -8.238,-4.531 -11.758,-5.851 l 0,10.851 c 6.25,3.012 11.719,6.61 16.41,10.789 4.719,4.211 8.122,8.321 10.11,12.223 l 7.23,0 0,-91.992 z"
             id="path3137"
             style="fill:#000000;fill-opacity:1;fill-rule:nonzero;stroke:none" /><path
             d="m 2274.8,570.457 c 0,91.047 224.5,164.918 501.41,164.918 276.95,0 501.45,-73.871 501.45,-164.918 0,-91.102 -224.5,-164.93 -501.45,-164.93 -276.91,0 -501.41,73.828 -501.41,164.93 z"
             id="path3139"
             style="fill:none;stroke:#000000;stroke-width:8;stroke-linecap:butt;stroke-linejoin:round;stroke-miterlimit:10;stroke-opacity:1;stroke-dasharray:none" /><path
             d="m 2559.65,544.945 11.64,-1.371 c -1.84,-6.84 -5.24,-12.148 -10.24,-15.898 -4.92,-3.75 -11.21,-5.621 -18.9,-5.621 -9.73,0 -17.46,3 -23.13,9.019 -5.66,5.981 -8.47,14.383 -8.47,25.121 0,11.172 2.85,19.84 8.63,25.969 5.74,6.18 13.2,9.262 22.34,9.262 8.83,0 16.06,-3.051 21.64,-9.102 5.67,-6.019 8.52,-14.488 8.52,-25.39 l 0,-3.008 -49.53,0 c 0.43,-7.34 2.46,-12.969 6.13,-16.871 3.75,-3.828 8.4,-5.75 13.87,-5.75 4.18,0 7.73,1.101 10.62,3.25 2.93,2.179 5.24,5.621 6.88,10.39 z m -36.88,18.239 37.03,0 c -0.5,5.593 -1.95,9.773 -4.25,12.5 -3.6,4.343 -8.21,6.48 -13.87,6.48 -5.2,0 -9.57,-1.707 -13.13,-5.23 -3.51,-3.399 -5.43,-8.008 -5.78,-13.75 z m 55.2,-39.61 24.26,34.492 -22.5,31.879 14.14,0 10.11,-15.511 c 1.92,-3.008 3.44,-5.508 4.61,-7.5 1.84,2.73 3.56,5.191 5.12,7.382 l 11.13,15.629 13.52,0 -23.01,-31.25 24.77,-35.121 -13.91,0 -13.59,20.621 -3.64,5.629 -17.38,-26.25 -13.63,0 z m 74.65,53.59 0,12.781 12.73,0 0,-12.781 -12.73,0 z m 0,-53.59 0,12.852 12.73,0 0,-12.852 -12.73,0 z m 32.42,-25.508 0,91.879 10.23,0 0,-8.64 c 2.43,3.402 5.16,5.98 8.13,7.621 3.08,1.679 6.8,2.5 11.13,2.5 5.67,0 10.67,-1.442 15,-4.371 4.34,-2.891 7.58,-7.028 9.77,-12.391 2.22,-5.23 3.36,-11.008 3.36,-17.34 0,-6.84 -1.25,-12.969 -3.75,-18.398 -2.43,-5.391 -5.94,-9.571 -10.63,-12.5 -4.57,-2.891 -9.45,-4.371 -14.61,-4.371 -3.75,0 -7.15,0.781 -10.12,2.379 -2.93,1.601 -5.35,3.593 -7.26,6.023 l 0,-32.391 -11.25,0 z m 10.12,58.36 c 0,-8.59 1.72,-14.922 5.11,-18.981 3.52,-4.101 7.74,-6.14 12.66,-6.14 5,0 9.26,2.109 12.85,6.371 3.6,4.258 5.39,10.781 5.39,19.648 0,8.481 -1.76,14.801 -5.27,18.981 -3.48,4.261 -7.66,6.371 -12.5,6.371 -4.73,0 -8.99,-2.219 -12.74,-6.762 -3.67,-4.488 -5.5,-10.969 -5.5,-19.488 z m 104.33,-24.61 c -4.18,-3.589 -8.2,-6.132 -12.03,-7.621 -3.83,-1.441 -7.93,-2.14 -12.34,-2.14 -7.35,0 -12.97,1.789 -16.88,5.39 -3.94,3.59 -5.9,8.121 -5.9,13.629 0,3.242 0.75,6.211 2.27,8.871 1.48,2.731 3.4,4.922 5.74,6.481 2.42,1.679 5.12,2.929 8.13,3.75 2.26,0.59 5.58,1.129 10,1.64 9.06,1.098 15.78,2.379 20.11,3.868 l 0,3.011 c 0,4.571 -1.05,7.77 -3.12,9.61 -2.93,2.57 -7.19,3.859 -12.85,3.859 -5.28,0 -9.18,-0.93 -11.76,-2.848 -2.5,-1.832 -4.34,-5.082 -5.51,-9.761 l -11.01,1.519 c 1.01,4.653 2.65,8.442 4.88,11.371 2.34,2.891 5.66,5.11 10,6.602 4.33,1.598 9.33,2.379 15,2.379 5.66,0 10.27,-0.66 13.75,-1.992 3.59,-1.329 6.21,-3.008 7.89,-5 1.64,-1.989 2.81,-4.528 3.48,-7.618 0.43,-1.91 0.62,-5.39 0.62,-10.39 l 0,-15 c 0,-10.512 0.24,-17.11 0.63,-19.879 0.5,-2.742 1.48,-5.391 2.89,-7.973 l -11.76,0 c -1.17,2.301 -1.92,5.082 -2.23,8.242 z m -0.9,25.118 c -4.06,-1.68 -10.19,-3.09 -18.36,-4.258 -4.68,-0.66 -7.96,-1.399 -9.88,-2.219 -1.91,-0.863 -3.44,-2.113 -4.49,-3.762 -1.02,-1.601 -1.52,-3.351 -1.52,-5.269 0,-3.012 1.13,-5.512 3.39,-7.5 2.31,-1.992 5.67,-3.012 10,-3.012 4.34,0 8.17,0.941 11.49,2.781 3.44,1.91 5.94,4.532 7.5,7.852 1.25,2.5 1.87,6.25 1.87,11.25 l 0,4.137 z m 26.68,-38.868 11.02,-1.64 c 0.43,-3.399 1.68,-5.86 3.75,-7.379 2.81,-2.07 6.68,-3.133 11.48,-3.133 5.2,0 9.18,1.063 12.03,3.133 2.82,2.109 4.73,5 5.75,8.75 0.58,2.258 0.86,7.109 0.86,14.527 -4.93,-5.859 -11.06,-8.75 -18.36,-8.75 -9.18,0 -16.25,3.281 -21.25,9.84 -5,6.613 -7.5,14.543 -7.5,23.75 0,6.371 1.13,12.191 3.36,17.5 2.34,5.363 5.66,9.5 10,12.391 4.41,2.929 9.53,4.371 15.39,4.371 7.81,0 14.29,-3.16 19.37,-9.492 l 0,8.011 10.35,0 0,-57.39 c 0,-10.348 -1.01,-17.649 -3.12,-21.989 -2.07,-4.332 -5.39,-7.769 -10,-10.269 -4.57,-2.5 -10.2,-3.75 -16.88,-3.75 -7.89,0 -14.33,1.797 -19.22,5.387 -4.84,3.593 -7.18,8.941 -7.03,16.132 z m 9.38,39.891 c 0,-8.68 1.72,-15 5.15,-19.031 3.48,-3.981 7.82,-5.969 12.97,-5.969 5.2,0 9.53,1.949 13.01,5.848 3.52,3.992 5.27,10.242 5.27,18.75 0,8.172 -1.79,14.3 -5.39,18.359 -3.59,4.18 -7.93,6.25 -13,6.25 -5,0 -9.26,-2.027 -12.74,-6.09 -3.51,-4.097 -5.27,-10.16 -5.27,-18.117 z m 109.33,-13.012 11.61,-1.371 c -1.84,-6.84 -5.24,-12.148 -10.24,-15.898 -4.92,-3.75 -11.21,-5.621 -18.87,-5.621 -9.76,0 -17.46,3 -23.12,9.019 -5.66,5.981 -8.52,14.383 -8.52,25.121 0,11.172 2.89,19.84 8.64,25.969 5.74,6.18 13.2,9.262 22.38,9.262 8.83,0 16.02,-3.051 21.6,-9.102 5.66,-6.019 8.52,-14.488 8.52,-25.39 l 0,-3.008 -49.5,0 c 0.4,-7.34 2.47,-12.969 6.14,-16.871 3.75,-3.828 8.36,-5.75 13.86,-5.75 4.14,0 7.7,1.101 10.63,3.25 2.89,2.179 5.19,5.621 6.87,10.39 z m -36.87,18.239 36.99,0 c -0.51,5.593 -1.91,9.773 -4.26,12.5 -3.59,4.343 -8.2,6.48 -13.86,6.48 -5.16,0 -9.53,-1.707 -13.13,-5.23 -3.51,-3.399 -5.43,-8.008 -5.74,-13.75 z m 54.8,-39.61 35.39,47.731 -31.25,43.871 14.5,0 16.6,-23.481 c 3.44,-4.84 5.9,-8.59 7.38,-11.238 1.99,3.32 4.42,6.828 7.27,10.457 l 18.36,24.262 13.24,0 -32.23,-43.121 34.73,-48.481 -15,0 -23.13,32.731 c -1.25,1.84 -2.57,3.871 -3.98,6.14 -1.99,-3.359 -3.48,-5.629 -4.38,-6.879 l -23,-31.992 -14.5,0 z"
             id="path3141"
             style="fill:#000000;fill-opacity:1;fill-rule:nonzero;stroke:none" /><path
             d="m 842.809,451.895 c 0,91.089 290.821,164.921 649.571,164.921 358.75,0 649.57,-73.832 649.57,-164.921 0,-91.051 -290.82,-164.879 -649.57,-164.879 -358.75,0 -649.571,73.828 -649.571,164.879 z"
             id="path3143"
             style="fill:none;stroke:#000000;stroke-width:8;stroke-linecap:butt;stroke-linejoin:round;stroke-miterlimit:10;stroke-opacity:1;stroke-dasharray:none" /><path
             d="m 1169.1,426.387 11.64,-1.36 c -1.83,-6.843 -5.27,-12.113 -10.27,-15.863 -4.92,-3.75 -11.21,-5.629 -18.87,-5.629 -9.76,0 -17.46,3.012 -23.12,8.992 -5.67,6.008 -8.52,14.368 -8.52,25.11 0,11.168 2.89,19.847 8.63,26.019 5.75,6.168 13.21,9.258 22.39,9.258 8.82,0 16.05,-3.047 21.64,-9.137 5.66,-5.98 8.47,-14.461 8.47,-25.363 l 0,-3 -49.49,0 c 0.43,-7.348 2.46,-12.969 6.13,-16.879 3.75,-3.828 8.36,-5.738 13.87,-5.738 4.18,0 7.7,1.047 10.63,3.238 2.93,2.149 5.19,5.629 6.87,10.352 z m -36.87,18.277 36.99,0 c -0.51,5.59 -1.92,9.731 -4.26,12.5 -3.55,4.34 -8.2,6.492 -13.87,6.492 -5.15,0 -9.53,-1.761 -13.12,-5.242 -3.48,-3.43 -5.39,-8 -5.74,-13.75 z m 55.19,-39.637 24.26,34.489 -22.5,31.871 14.1,0 10.12,-15.473 c 1.95,-3 3.48,-5.5 4.65,-7.5 1.83,2.742 3.55,5.203 5.11,7.352 l 11.14,15.621 13.47,0 -22.97,-31.25 24.73,-35.11 -13.87,0 -13.63,20.618 -3.63,5.632 -17.35,-26.25 -13.63,0 z m 74.61,53.629 0,12.731 12.77,0 0,-12.731 -12.77,0 z m 0,-53.629 0,12.887 12.77,0 0,-12.887 -12.77,0 z m 75.43,0 0,8.387 c -4.14,-6.598 -10.31,-9.879 -18.48,-9.879 -5.35,0 -10.19,1.449 -14.64,4.379 -4.42,2.93 -7.86,6.992 -10.36,12.223 -2.42,5.277 -3.63,11.25 -3.63,18.008 0,6.679 1.1,12.699 3.24,18.011 2.27,5.43 5.59,9.528 10,12.379 4.42,2.93 9.38,4.379 14.89,4.379 3.98,0 7.54,-0.82 10.62,-2.5 3.17,-1.68 5.7,-3.867 7.62,-6.637 l 0,32.887 11.25,0 0,-91.637 -10.51,0 z m -35.47,33.118 c 0,-8.481 1.8,-14.879 5.35,-19.098 3.6,-4.18 7.82,-6.25 12.62,-6.25 4.92,0 9.1,1.988 12.5,5.98 3.52,4.098 5.27,10.27 5.27,18.508 0,9.059 -1.75,15.742 -5.27,20 -3.48,4.262 -7.81,6.371 -12.97,6.371 -5,0 -9.18,-2.031 -12.5,-6.129 -3.36,-4.07 -5,-10.55 -5,-19.382 z m 109.06,-11.758 11.61,-1.36 c -1.84,-6.843 -5.24,-12.113 -10.24,-15.863 -4.92,-3.75 -11.21,-5.629 -18.87,-5.629 -9.76,0 -17.46,3.012 -23.12,8.992 -5.66,6.008 -8.52,14.368 -8.52,25.11 0,11.168 2.89,19.847 8.64,26.019 5.74,6.168 13.2,9.258 22.38,9.258 8.83,0 16.02,-3.047 21.6,-9.137 5.67,-5.98 8.52,-14.461 8.52,-25.363 l 0,-3 -49.5,0 c 0.4,-7.348 2.47,-12.969 6.1,-16.879 3.75,-3.828 8.4,-5.738 13.9,-5.738 4.15,0 7.7,1.047 10.63,3.238 2.89,2.149 5.2,5.629 6.87,10.352 z m -36.87,18.277 36.99,0 c -0.51,5.59 -1.91,9.731 -4.26,12.5 -3.59,4.34 -8.2,6.492 -13.86,6.492 -5.16,0 -9.53,-1.761 -13.13,-5.242 -3.51,-3.43 -5.43,-8 -5.74,-13.75 z m 105.66,-39.637 0,8.387 c -4.14,-6.598 -10.31,-9.879 -18.47,-9.879 -5.35,0 -10.24,1.449 -14.65,4.379 -4.42,2.93 -7.85,6.992 -10.35,12.223 -2.42,5.277 -3.64,11.25 -3.64,18.008 0,6.679 1.1,12.699 3.25,18.011 2.26,5.43 5.58,9.528 10,12.379 4.41,2.93 9.37,4.379 14.88,4.379 3.98,0 7.54,-0.82 10.62,-2.5 3.17,-1.68 5.71,-3.867 7.62,-6.637 l 0,32.887 11.25,0 0,-91.637 -10.51,0 z m -35.5,33.118 c 0,-8.481 1.79,-14.879 5.39,-19.098 3.59,-4.18 7.81,-6.25 12.61,-6.25 4.93,0 9.11,1.988 12.5,5.98 3.52,4.098 5.28,10.27 5.28,18.508 0,9.059 -1.76,15.742 -5.28,20 -3.47,4.262 -7.81,6.371 -13,6.371 -5,0 -9.14,-2.031 -12.5,-6.129 -3.32,-4.07 -5,-10.55 -5,-19.382 z m 63.71,45.632 0,12.887 11.25,0 0,-12.887 -11.25,0 z m 0,-78.75 0,66.36 11.25,0 0,-66.36 -11.25,0 z m 71.68,24.368 11.13,-1.481 c -1.25,-7.578 -4.38,-13.559 -9.38,-17.887 -4.92,-4.343 -11.01,-6.492 -18.24,-6.492 -9.1,0 -16.44,2.969 -22.03,8.871 -5.47,6.008 -8.24,14.528 -8.24,25.621 0,7.188 1.17,13.438 3.51,18.75 2.43,5.43 6.06,9.457 10.86,12.11 4.93,2.699 10.24,4.027 15.9,4.027 7.23,0 13.17,-1.84 17.74,-5.508 4.57,-3.601 7.5,-8.75 8.75,-15.511 l -10.86,-1.598 c -1.1,4.41 -2.97,7.73 -5.63,10 -2.58,2.23 -5.78,3.359 -9.53,3.359 -5.66,0 -10.27,-2.031 -13.87,-6.129 -3.47,-3.992 -5.23,-10.402 -5.23,-19.261 0,-8.911 1.72,-15.391 5.12,-19.489 3.43,-3.992 7.89,-5.98 13.36,-5.98 4.45,0 8.08,1.328 11.01,3.98 3.01,2.739 4.88,6.957 5.63,12.618 z m 63.98,-16.129 c -4.14,-3.559 -8.16,-6.102 -11.99,-7.621 -3.83,-1.411 -7.93,-2.11 -12.38,-2.11 -7.31,0 -12.93,1.801 -16.88,5.352 -3.91,3.597 -5.86,8.129 -5.86,13.64 0,3.239 0.74,6.207 2.27,8.86 1.48,2.777 3.4,4.918 5.74,6.527 2.42,1.68 5.12,2.93 8.12,3.75 2.23,0.582 5.59,1.133 10,1.602 9.07,1.089 15.79,2.379 20.12,3.898 l 0,2.973 c 0,4.609 -1.05,7.82 -3.12,9.648 -2.93,2.582 -7.19,3.871 -12.89,3.871 -5.24,0 -9.14,-0.941 -11.72,-2.89 -2.5,-1.801 -4.34,-5.082 -5.51,-9.731 l -11.02,1.492 c 1.02,4.68 2.62,8.469 4.89,11.36 2.34,2.929 5.66,5.16 10,6.64 4.33,1.598 9.33,2.387 15,2.387 5.66,0 10.23,-0.668 13.75,-2 3.59,-1.32 6.21,-3 7.89,-5 1.64,-2.027 2.81,-4.57 3.47,-7.648 0.43,-1.922 0.63,-5.352 0.63,-10.352 l 0,-15 c 0,-10.508 0.23,-17.148 0.62,-19.887 0.51,-2.73 1.49,-5.433 2.89,-8 l -11.75,0 c -1.18,2.34 -1.92,5.067 -2.27,8.239 z m -0.86,25.148 c -4.06,-1.68 -10.19,-3.078 -18.36,-4.25 -4.69,-0.668 -7.97,-1.41 -9.88,-2.269 -1.91,-0.821 -3.44,-2.071 -4.49,-3.75 -1.02,-1.559 -1.53,-3.321 -1.53,-5.231 0,-3.008 1.14,-5.508 3.4,-7.5 2.31,-2 5.67,-3.008 10,-3.008 4.34,0 8.17,0.938 11.49,2.731 3.43,1.957 5.93,4.57 7.5,7.89 1.25,2.5 1.87,6.25 1.87,11.25 l 0,4.137 z m 53.32,-23.277 1.6,-10 c -3.16,-0.66 -5.97,-0.973 -8.47,-0.973 -4.1,0 -7.27,0.621 -9.5,1.871 -2.26,1.332 -3.82,3.051 -4.76,5.121 -0.9,2.188 -1.37,6.641 -1.37,13.36 l 0,38.121 -8.24,0 0,8.75 8.24,0 0,16.527 11.25,6.75 0,-23.277 11.25,0 0,-8.75 -11.25,0 0,-38.75 c 0,-3.242 0.16,-5.313 0.51,-6.25 0.39,-0.903 1.05,-1.641 1.99,-2.223 0.9,-0.508 2.19,-0.75 3.87,-0.75 1.25,0 2.89,0.16 4.88,0.473 z m 11.06,68.64 0,12.887 11.25,0 0,-12.887 -11.25,0 z m 0,-78.75 0,66.36 11.25,0 0,-66.36 -11.25,0 z m 28.43,0 0,66.36 10.12,0 0,-9.371 c 4.84,7.261 11.88,10.898 21.13,10.898 3.99,0 7.66,-0.707 11.02,-2.148 3.32,-1.411 5.82,-3.282 7.5,-5.629 1.64,-2.301 2.81,-5.11 3.48,-8.36 0.43,-2.07 0.62,-5.703 0.62,-10.863 l 0,-40.887 -11.25,0 0,40.387 c 0,4.57 -0.43,8 -1.37,10.231 -0.82,2.339 -2.38,4.179 -4.61,5.511 -2.18,1.328 -4.76,1.989 -7.77,1.989 -4.8,0 -8.98,-1.52 -12.5,-4.61 -3.4,-3.008 -5.12,-8.75 -5.12,-17.258 l 0,-36.25 -11.25,0 z m 69.07,-5.511 11.01,-1.602 c 0.39,-3.437 1.64,-5.898 3.75,-7.387 2.81,-2.07 6.64,-3.121 11.49,-3.121 5.15,0 9.18,1.051 11.99,3.121 2.85,2.067 4.76,5 5.74,8.75 0.59,2.27 0.9,7.067 0.9,14.5 -4.92,-5.82 -11.06,-8.75 -18.4,-8.75 -9.14,0 -16.25,3.317 -21.25,9.879 -5,6.598 -7.5,14.489 -7.5,23.75 0,6.328 1.13,12.188 3.4,17.5 2.34,5.348 5.66,9.449 10,12.379 4.41,2.93 9.53,4.379 15.35,4.379 7.85,0 14.3,-3.168 19.38,-9.5 l 0,7.973 10.39,0 0,-57.34 c 0,-10.352 -1.06,-17.703 -3.13,-22.031 -2.07,-4.301 -5.43,-7.739 -10,-10.239 -4.57,-2.5 -10.19,-3.75 -16.87,-3.75 -7.93,0 -14.34,1.797 -19.26,5.387 -4.81,3.563 -7.15,8.953 -6.99,16.102 z m 9.37,39.879 c 0,-8.668 1.72,-15 5.12,-18.981 3.51,-4.027 7.85,-6.019 13.01,-6.019 5.15,0 9.49,1.949 13,5.902 3.48,3.98 5.24,10.23 5.24,18.75 0,8.16 -1.8,14.297 -5.35,18.359 -3.6,4.18 -7.93,6.25 -13.01,6.25 -5,0 -9.26,-2.031 -12.77,-6.129 -3.48,-4.07 -5.24,-10.121 -5.24,-18.132 z"
             id="path3145"
             style="fill:#000000;fill-opacity:1;fill-rule:nonzero;stroke:none" /><path
             d="m 592.23,1199.52 11.129,1.76 c 0.59,-4.5 2.301,-7.94 5.121,-10.37 2.93,-2.34 6.911,-3.5 11.989,-3.5 5.191,0 9.019,1.05 11.519,3.12 2.5,2.18 3.75,4.68 3.75,7.5 0,2.5 -1.09,4.5 -3.238,6.02 -1.602,0.98 -5.43,2.23 -11.52,3.75 -8.25,2.07 -13.992,3.86 -17.23,5.34 -3.199,1.61 -5.59,3.72 -7.27,6.38 -1.601,2.69 -2.378,5.62 -2.378,8.89 0,2.98 0.668,5.75 1.988,8.25 1.371,2.5 3.172,4.57 5.512,6.25 1.757,1.32 4.136,2.43 7.148,3.25 3.051,0.93 6.328,1.37 9.73,1.37 5.27,0 9.84,-0.75 13.75,-2.23 3.899,-1.52 6.79,-3.57 8.629,-6.14 1.911,-2.5 3.243,-5.93 3.981,-10.27 l -10.969,-1.48 c -0.512,3.43 -1.961,6.09 -4.383,8 -2.418,1.91 -5.777,2.86 -10.109,2.86 -5.199,0 -8.91,-0.86 -11.141,-2.63 -2.187,-1.64 -3.238,-3.62 -3.238,-5.85 0,-1.52 0.43,-2.86 1.371,-4.02 0.899,-1.14 2.301,-2.15 4.25,-2.97 1.141,-0.43 4.5,-1.41 10,-2.89 7.899,-2.07 13.438,-3.84 16.609,-5.25 3.161,-1.32 5.622,-3.32 7.379,-5.88 1.84,-2.58 2.731,-5.8 2.731,-9.62 0,-3.75 -1.09,-7.3 -3.36,-10.62 -2.179,-3.24 -5.351,-5.79 -9.492,-7.63 -4.097,-1.82 -8.707,-2.77 -13.867,-2.77 -8.672,0 -15.269,1.81 -19.762,5.4 -4.488,3.59 -7.379,8.91 -8.629,15.98 z m 64.25,13.39 c 0,12.23 3.399,21.32 10.239,27.23 5.781,4.91 12.73,7.39 20.902,7.39 9.141,0 16.598,-3.01 22.379,-8.99 5.82,-5.95 8.75,-14.18 8.75,-24.76 0,-8.48 -1.328,-15.21 -3.91,-20.12 -2.57,-4.93 -6.32,-8.75 -11.25,-11.5 -4.801,-2.68 -10.149,-4.02 -15.969,-4.02 -9.262,0 -16.762,2.98 -22.5,8.88 -5.742,6.01 -8.641,14.64 -8.641,25.89 z m 11.641,0 c 0,-8.52 1.84,-14.88 5.469,-19.13 3.75,-4.26 8.441,-6.37 14.031,-6.37 5.578,0 10.188,2.11 13.859,6.37 3.75,4.25 5.629,10.74 5.629,19.49 0,8.19 -1.879,14.37 -5.629,18.62 -3.671,4.27 -8.281,6.38 -13.859,6.38 -5.59,0 -10.281,-2.11 -14.031,-6.38 -3.629,-4.14 -5.469,-10.5 -5.469,-18.98 z m 107.309,-33.25 0,9.73 c -5.2,-7.5 -12.231,-11.25 -21.129,-11.25 -3.91,0 -7.582,0.75 -11.02,2.27 -3.32,1.48 -5.82,3.37 -7.5,5.63 -1.64,2.34 -2.812,5.12 -3.48,8.35 -0.422,2.27 -0.621,5.75 -0.621,10.52 l 0,41.13 11.25,0 0,-36.76 c 0,-5.9 0.191,-9.89 0.621,-11.87 0.75,-3.02 2.23,-5.32 4.5,-7 2.34,-1.68 5.148,-2.5 8.508,-2.5 3.402,0 6.562,0.82 9.492,2.5 3.008,1.75 5.078,4.11 6.25,7.12 1.25,3 1.879,7.34 1.879,13 l 0,35.51 11.25,0 0,-66.38 -10,0 z m 27.539,0 0,66.38 10.152,0 0,-10 c 2.578,4.64 4.93,7.74 7.109,9.26 2.149,1.48 4.571,2.23 7.27,2.23 3.75,0 7.578,-1.23 11.48,-3.64 l -3.859,-10.35 c -2.781,1.55 -5.512,2.37 -8.242,2.37 -2.43,0 -4.649,-0.77 -6.649,-2.25 -1.91,-1.41 -3.281,-3.45 -4.14,-6.13 -1.25,-3.99 -1.871,-8.37 -1.871,-13.14 l 0,-34.73 -11.25,0 z m 86.011,24.39 11.141,-1.52 c -1.25,-7.58 -4.383,-13.53 -9.383,-17.87 -4.918,-4.32 -11.008,-6.52 -18.238,-6.52 -9.102,0 -16.449,2.98 -22.031,8.88 -5.469,6.01 -8.239,14.57 -8.239,25.62 0,7.18 1.168,13.43 3.508,18.75 2.422,5.43 6.024,9.49 10.864,12.15 4.918,2.66 10.199,3.99 15.898,3.99 7.23,0 13.16,-1.85 17.73,-5.51 4.571,-3.56 7.5,-8.75 8.75,-15.47 l -10.859,-1.64 c -1.09,4.41 -2.961,7.73 -5.621,10 -2.621,2.25 -5.781,3.36 -9.531,3.36 -5.668,0 -10.27,-2.04 -13.867,-6.11 -3.481,-4.02 -5.231,-10.43 -5.231,-19.25 0,-8.91 1.68,-15.43 5.109,-19.5 3.399,-4.02 7.899,-6 13.36,-6 4.422,0 8.09,1.32 11.019,3.98 3.012,2.77 4.879,6.99 5.621,12.66 z m 66.141,-3.01 11.598,-1.38 c -1.84,-6.82 -5.239,-12.13 -10.239,-15.88 -4.921,-3.75 -11.21,-5.64 -18.859,-5.64 -9.769,0 -17.461,3.02 -23.133,9.02 -5.66,5.98 -8.508,14.39 -8.508,25.13 0,11.17 2.891,19.84 8.629,25.98 5.743,6.16 13.2,9.26 22.379,9.26 8.832,0 16.024,-3.05 21.602,-9.12 5.672,-6 8.519,-14.45 8.519,-25.38 l 0,-3 -49.488,0 c 0.391,-7.32 2.457,-12.94 6.129,-16.89 3.75,-3.82 8.359,-5.73 13.871,-5.73 4.141,0 7.688,1.09 10.617,3.23 2.891,2.2 5.203,5.64 6.883,10.4 z m -36.883,18.24 36.992,0 c -0.5,5.59 -1.91,9.77 -4.25,12.5 -3.601,4.34 -8.21,6.49 -13.871,6.49 -5.16,0 -9.531,-1.72 -13.129,-5.24 -3.511,-3.4 -5.429,-8 -5.742,-13.75 z"
             id="path3147"
             style="fill:#000000;fill-opacity:1;fill-rule:nonzero;stroke:none" /><path
             d="m 3387.38,570.457 c 0,91.047 204.07,164.918 455.82,164.918 251.72,0 455.78,-73.871 455.78,-164.918 0,-91.102 -204.06,-164.93 -455.78,-164.93 -251.75,0 -455.82,73.828 -455.82,164.93 z"
             id="path3149"
             style="fill:none;stroke:#000000;stroke-width:8;stroke-linecap:butt;stroke-linejoin:round;stroke-miterlimit:10;stroke-opacity:1;stroke-dasharray:none" /><path
             d="m 3655.2,544.945 11.6,-1.371 c -1.84,-6.84 -5.24,-12.148 -10.24,-15.898 -4.92,-3.75 -11.21,-5.621 -18.86,-5.621 -9.77,0 -17.47,3 -23.13,9.019 -5.66,5.981 -8.52,14.383 -8.52,25.121 0,11.172 2.9,19.84 8.64,25.969 5.74,6.18 13.2,9.262 22.38,9.262 8.83,0 16.02,-3.051 21.6,-9.102 5.67,-6.019 8.52,-14.488 8.52,-25.39 l 0,-3.008 -49.49,0 c 0.39,-7.34 2.46,-12.969 6.13,-16.871 3.75,-3.828 8.36,-5.75 13.87,-5.75 4.14,0 7.69,1.101 10.62,3.25 2.89,2.179 5.2,5.621 6.88,10.39 z m -36.88,18.239 36.99,0 c -0.51,5.593 -1.91,9.773 -4.26,12.5 -3.59,4.343 -8.2,6.48 -13.86,6.48 -5.16,0 -9.53,-1.707 -13.13,-5.23 -3.51,-3.399 -5.43,-8.008 -5.74,-13.75 z m 55.2,-39.61 24.21,34.492 -22.5,31.879 14.15,0 10.11,-15.511 c 1.92,-3.008 3.48,-5.508 4.65,-7.5 1.84,2.73 3.52,5.191 5.12,7.382 l 11.13,15.629 13.48,0 -23.01,-31.25 24.76,-35.121 -13.86,0 -13.64,20.621 -3.63,5.629 -17.38,-26.25 -13.59,0 z m 74.6,53.59 0,12.781 12.74,0 0,-12.781 -12.74,0 z m 0,-53.59 0,12.852 12.74,0 0,-12.852 -12.74,0 z m 32.43,78.75 0,12.852 11.25,0 0,-12.852 -11.25,0 z m 0,-78.75 0,66.371 11.25,0 0,-66.371 -11.25,0 z m 52.97,10.121 1.6,-10 c -3.17,-0.668 -5.98,-1.019 -8.48,-1.019 -4.1,0 -7.26,0.629 -9.53,1.879 -2.23,1.32 -3.83,3.039 -4.73,5.109 -0.93,2.191 -1.36,6.641 -1.36,13.402 l 0,38.129 -8.29,0 0,8.75 8.29,0 0,16.481 11.25,6.758 0,-23.239 11.25,0 0,-8.75 -11.25,0 0,-38.75 c 0,-3.25 0.15,-5.351 0.46,-6.25 0.43,-0.941 1.1,-1.679 2.04,-2.269 0.89,-0.512 2.18,-0.742 3.86,-0.742 1.25,0 2.85,0.16 4.89,0.511 z m 56.4,11.25 11.64,-1.371 c -1.83,-6.84 -5.23,-12.148 -10.23,-15.898 -4.92,-3.75 -11.21,-5.621 -18.91,-5.621 -9.72,0 -17.46,3 -23.12,9.019 -5.67,5.981 -8.48,14.383 -8.48,25.121 0,11.172 2.85,19.84 8.63,25.969 5.75,6.18 13.21,9.262 22.35,9.262 8.86,0 16.05,-3.051 21.64,-9.102 5.66,-6.019 8.51,-14.488 8.51,-25.39 l 0,-3.008 -49.53,0 c 0.43,-7.34 2.46,-12.969 6.13,-16.871 3.75,-3.828 8.4,-5.75 13.87,-5.75 4.18,0 7.74,1.101 10.63,3.25 2.93,2.179 5.23,5.621 6.87,10.39 z m -36.87,18.239 37.03,0 c -0.51,5.593 -1.92,9.773 -4.26,12.5 -3.59,4.343 -8.2,6.48 -13.87,6.48 -5.19,0 -9.57,-1.707 -13.12,-5.23 -3.52,-3.399 -5.43,-8.008 -5.78,-13.75 z m 62.69,-39.61 0,66.371 10,0 0,-9.261 c 2.11,3.242 4.85,5.82 8.24,7.73 3.52,2.043 7.47,3.012 11.88,3.012 4.92,0 8.98,-1.012 12.15,-3.121 3.16,-2 5.35,-4.848 6.6,-8.481 5.27,7.731 12.11,11.602 20.51,11.602 6.6,0 11.64,-1.832 15.11,-5.512 3.6,-3.547 5.39,-9.137 5.39,-16.719 l 0,-45.621 -11.13,0 0,41.883 c 0,4.488 -0.35,7.688 -1.13,9.598 -0.74,2 -2.07,3.601 -3.98,4.769 -1.92,1.25 -4.18,1.871 -6.76,1.871 -4.65,0 -8.52,-1.558 -11.6,-4.64 -3.09,-3.09 -4.65,-8.051 -4.65,-14.891 l 0,-38.59 -11.25,0 0,43.121 c 0,5 -0.9,8.762 -2.74,11.262 -1.83,2.5 -4.84,3.738 -9.02,3.738 -3.16,0 -6.06,-0.851 -8.75,-2.5 -2.66,-1.668 -4.61,-4.14 -5.86,-7.379 -1.17,-3.16 -1.76,-7.769 -1.76,-13.75 l 0,-34.492 -11.25,0 z m 145.9,0 -11.25,0 0,71.723 c -2.77,-2.582 -6.37,-5.16 -10.78,-7.742 -4.34,-2.571 -8.24,-4.528 -11.72,-5.86 l 0,10.86 c 6.25,3.011 11.68,6.609 16.37,10.75 4.72,4.25 8.12,8.359 10.12,12.261 l 7.26,0 0,-91.992 z"
             id="path3151"
             style="fill:#000000;fill-opacity:1;fill-rule:nonzero;stroke:none" /><path
             d="m 3360.55,957.527 11.13,1.75 c 0.59,-4.492 2.3,-7.933 5.12,-10.351 2.93,-2.34 6.91,-3.512 12.03,-3.512 5.15,0 8.98,1.051 11.48,3.121 2.5,2.192 3.75,4.692 3.75,7.5 0,2.5 -1.09,4.492 -3.24,6.02 -1.6,0.972 -5.43,2.222 -11.52,3.75 -8.25,2.07 -13.99,3.859 -17.23,5.351 -3.16,1.598 -5.59,3.711 -7.27,6.371 -1.56,2.688 -2.38,5.618 -2.38,8.899 0,2.969 0.67,5.738 2.03,8.238 1.33,2.5 3.17,4.57 5.47,6.246 1.76,1.34 4.14,2.43 7.15,3.25 3.09,0.93 6.33,1.37 9.73,1.37 5.27,0 9.84,-0.74 13.75,-2.23 3.94,-1.52 6.79,-3.554 8.63,-6.136 1.91,-2.5 3.24,-5.93 4.02,-10.269 l -11.01,-1.481 c -0.51,3.43 -1.96,6.09 -4.38,8 -2.42,1.922 -5.78,2.863 -10.11,2.863 -5.16,0 -8.87,-0.863 -11.14,-2.621 -2.15,-1.64 -3.24,-3.629 -3.24,-5.859 0,-1.52 0.47,-2.852 1.37,-4.02 0.9,-1.14 2.34,-2.152 4.26,-2.972 1.17,-0.43 4.49,-1.41 10,-2.891 7.89,-2.07 13.43,-3.828 16.6,-5.238 3.16,-1.332 5.62,-3.321 7.38,-5.899 1.84,-2.582 2.77,-5.781 2.77,-9.613 0,-3.75 -1.13,-7.297 -3.4,-10.617 -2.14,-3.242 -5.31,-5.781 -9.49,-7.621 -4.1,-1.832 -8.71,-2.77 -13.86,-2.77 -8.68,0 -15.28,1.801 -19.77,5.391 -4.49,3.59 -7.38,8.91 -8.63,15.98 z m 111.75,4.528 11.14,-1.528 c -1.25,-7.57 -4.38,-13.511 -9.38,-17.851 -4.92,-4.332 -11.01,-6.52 -18.24,-6.52 -9.1,0 -16.41,2.969 -21.99,8.871 -5.51,6.008 -8.28,14.567 -8.28,25.618 0,7.191 1.17,13.441 3.51,18.75 2.42,5.429 6.06,9.492 10.86,12.155 4.92,2.65 10.24,3.98 15.9,3.98 7.23,0 13.16,-1.83 17.73,-5.5 4.61,-3.565 7.5,-8.753 8.75,-15.475 l -10.85,-1.641 c -1.1,4.41 -2.97,7.731 -5.63,10 -2.58,2.262 -5.74,3.363 -9.49,3.363 -5.67,0 -10.31,-2.043 -13.91,-6.101 -3.47,-4.02 -5.23,-10.43 -5.23,-19.262 0,-8.898 1.72,-15.43 5.11,-19.488 3.44,-4.02 7.9,-6.012 13.4,-6.012 4.42,0 8.09,1.32 10.98,3.981 3.01,2.769 4.88,6.992 5.62,12.66 z m 16.53,8.859 c 0,12.231 3.4,21.332 10.23,27.231 5.74,4.925 12.7,7.385 20.86,7.385 9.18,0 16.64,-3 22.38,-8.983 5.86,-5.942 8.75,-14.18 8.75,-24.77 0,-8.472 -1.28,-15.191 -3.86,-20.113 -2.58,-4.93 -6.33,-8.75 -11.25,-11.488 -4.85,-2.692 -10.16,-4.02 -16.02,-4.02 -9.22,0 -16.72,2.969 -22.5,8.871 -5.74,6.008 -8.59,14.637 -8.59,25.887 z m 11.6,0 c 0,-8.508 1.84,-14.879 5.51,-19.137 3.75,-4.25 8.4,-6.363 13.98,-6.363 5.59,0 10.24,2.113 13.91,6.363 3.75,4.258 5.62,10.75 5.62,19.5 0,8.2 -1.87,14.368 -5.62,18.629 -3.67,4.258 -8.32,6.371 -13.91,6.371 -5.58,0 -10.23,-2.113 -13.98,-6.371 -3.67,-4.14 -5.51,-10.511 -5.51,-18.992 z m 63.83,-58.75 0,91.886 10.23,0 0,-8.636 c 2.42,3.43 5.12,5.976 8.13,7.616 3.08,1.68 6.79,2.5 11.13,2.5 5.66,0 10.66,-1.44 15,-4.37 4.34,-2.894 7.58,-7.035 9.77,-12.383 2.22,-5.242 3.36,-11.023 3.36,-17.351 0,-6.832 -1.26,-12.969 -3.76,-18.399 -2.42,-5.39 -5.97,-9.57 -10.62,-12.5 -4.57,-2.89 -9.45,-4.371 -14.61,-4.371 -3.75,0 -7.15,0.821 -10.16,2.379 -2.89,1.602 -5.31,3.59 -7.22,6.02 l 0,-32.391 -11.25,0 z m 10.12,58.363 c 0,-8.55 1.71,-14.922 5.11,-18.98 3.52,-4.102 7.74,-6.133 12.62,-6.133 5,0 9.3,2.113 12.89,6.363 3.59,4.258 5.39,10.817 5.39,19.649 0,8.48 -1.76,14.808 -5.27,18.988 -3.48,4.25 -7.66,6.363 -12.5,6.363 -4.73,0 -8.99,-2.222 -12.74,-6.75 -3.67,-4.5 -5.5,-10.98 -5.5,-19.5 z m 106.44,-11.48 11.6,-1.371 c -1.83,-6.832 -5.23,-12.149 -10.23,-15.899 -4.92,-3.75 -11.21,-5.621 -18.87,-5.621 -9.77,0 -17.46,3.008 -23.12,9.02 -5.67,5.98 -8.52,14.379 -8.52,25.121 0,11.168 2.89,19.84 8.63,25.98 5.74,6.173 13.21,9.253 22.39,9.253 8.82,0 16.01,-3.05 21.6,-9.104 5.66,-6.012 8.51,-14.449 8.51,-25.391 l 0,-3.008 -49.49,0 c 0.39,-7.3 2.46,-12.933 6.13,-16.871 3.75,-3.832 8.36,-5.742 13.87,-5.742 4.14,0 7.7,1.09 10.63,3.242 2.89,2.188 5.19,5.621 6.87,10.391 z m -36.87,18.238 36.99,0 c -0.51,5.59 -1.92,9.77 -4.26,12.5 -3.59,4.34 -8.2,6.492 -13.87,6.492 -5.15,0 -9.53,-1.722 -13.12,-5.242 -3.52,-3.398 -5.43,-8.008 -5.74,-13.75 z"
             id="path3153"
             style="fill:#000000;fill-opacity:1;fill-rule:nonzero;stroke:none" /><path
             d="m 2636.95,966.977 11.1,1.757 c 0.58,-4.539 2.3,-7.968 5.15,-10.39 2.89,-2.348 6.92,-3.52 12,-3.52 5.15,0 8.98,1.051 11.48,3.133 2.5,2.18 3.75,4.68 3.75,7.5 0,2.5 -1.05,4.527 -3.24,6.008 -1.57,1.019 -5.43,2.269 -11.49,3.75 -8.28,2.07 -14.02,3.871 -17.26,5.39 -3.17,1.559 -5.59,3.672 -7.27,6.372 -1.56,2.648 -2.34,5.617 -2.34,8.867 0,3 0.66,5.746 1.99,8.246 1.33,2.5 3.16,4.57 5.51,6.25 1.72,1.32 4.1,2.41 7.11,3.23 3.08,0.95 6.33,1.41 9.76,1.41 5.24,0 9.81,-0.78 13.75,-2.27 3.91,-1.48 6.8,-3.55 8.6,-6.12 1.95,-2.5 3.28,-5.91 4.02,-10.246 l -11.02,-1.52 c -0.5,3.442 -1.95,6.086 -4.37,8.016 -2.42,1.91 -5.78,2.89 -10.12,2.89 -5.15,0 -8.86,-0.91 -11.13,-2.62 -2.15,-1.68 -3.24,-3.633 -3.24,-5.903 0,-1.48 0.47,-2.812 1.36,-3.98 0.94,-1.172 2.35,-2.192 4.26,-3.012 1.17,-0.43 4.49,-1.371 10,-2.891 7.93,-2.07 13.48,-3.828 16.64,-5.23 3.17,-1.328 5.63,-3.289 7.35,-5.86 1.83,-2.617 2.77,-5.82 2.77,-9.648 0,-3.75 -1.13,-7.309 -3.4,-10.629 -2.15,-3.242 -5.31,-5.781 -9.49,-7.613 -4.06,-1.84 -8.71,-2.739 -13.87,-2.739 -8.67,0 -15.23,1.762 -19.76,5.352 -4.5,3.598 -7.35,8.91 -8.6,16.02 z m 64.22,13.359 c 0,12.258 3.44,21.324 10.28,27.254 5.74,4.94 12.69,7.39 20.85,7.39 9.18,0 16.65,-3 22.39,-9.02 5.82,-5.91 8.75,-14.183 8.75,-24.726 0,-8.519 -1.29,-15.238 -3.87,-20.16 -2.58,-4.918 -6.33,-8.75 -11.25,-11.48 -4.84,-2.66 -10.16,-3.989 -16.02,-3.989 -9.25,0 -16.75,2.93 -22.5,8.872 -5.74,5.98 -8.63,14.609 -8.63,25.859 z m 11.64,0 c 0,-8.481 1.84,-14.879 5.51,-19.102 3.75,-4.257 8.4,-6.41 13.98,-6.41 5.59,0 10.24,2.153 13.87,6.41 3.75,4.223 5.63,10.743 5.63,19.493 0,8.16 -1.88,14.367 -5.63,18.628 -3.63,4.215 -8.28,6.375 -13.87,6.375 -5.58,0 -10.23,-2.16 -13.98,-6.375 -3.67,-4.179 -5.51,-10.511 -5.51,-19.019 z m 107.31,-33.242 0,9.761 c -5.16,-7.5 -12.19,-11.25 -21.14,-11.25 -3.9,0 -7.57,0.739 -10.97,2.231 -3.32,1.519 -5.82,3.398 -7.5,5.621 -1.68,2.348 -2.85,5.117 -3.52,8.398 -0.39,2.231 -0.62,5.739 -0.62,10.469 l 0,41.136 11.25,0 0,-36.765 c 0,-5.89 0.23,-9.84 0.62,-11.871 0.74,-2.969 2.27,-5.308 4.49,-6.988 2.35,-1.68 5.2,-2.5 8.52,-2.5 3.44,0 6.6,0.82 9.49,2.5 3.01,1.758 5.08,4.141 6.25,7.148 1.25,2.973 1.88,7.301 1.88,12.973 l 0,35.503 11.25,0 0,-66.366 -10,0 z m 27.58,0 0,66.366 10.11,0 0,-10 c 2.58,4.68 4.96,7.77 7.11,9.25 2.19,1.49 4.61,2.27 7.27,2.27 3.75,0 7.58,-1.2 11.48,-3.64 l -3.87,-10.38 c -2.73,1.59 -5.5,2.38 -8.24,2.38 -2.42,0 -4.61,-0.75 -6.64,-2.27 -1.91,-1.406 -3.28,-3.433 -4.1,-6.086 -1.25,-4.027 -1.87,-8.398 -1.87,-13.129 l 0,-34.761 -11.25,0 z m 85.97,24.371 11.13,-1.481 c -1.25,-7.617 -4.37,-13.558 -9.37,-17.89 -4.92,-4.34 -10.98,-6.489 -18.24,-6.489 -9.07,0 -16.41,2.93 -21.99,8.872 -5.51,5.98 -8.25,14.527 -8.25,25.617 0,7.152 1.17,13.402 3.48,18.75 2.42,5.386 6.05,9.456 10.9,12.116 4.92,2.66 10.19,4.02 15.86,4.02 7.26,0 13.16,-1.84 17.73,-5.5 4.61,-3.6 7.5,-8.75 8.75,-15.515 l -10.86,-1.641 c -1.09,4.41 -2.97,7.766 -5.62,9.996 -2.58,2.27 -5.74,3.41 -9.49,3.41 -5.67,0 -10.32,-2.07 -13.87,-6.136 -3.52,-3.989 -5.28,-10.43 -5.28,-19.258 0,-8.91 1.72,-15.43 5.12,-19.492 3.44,-3.989 7.89,-6.02 13.4,-6.02 4.41,0 8.09,1.332 10.98,4.02 3,2.742 4.88,6.961 5.62,12.621 z m 66.13,-3.008 11.65,-1.363 c -1.84,-6.84 -5.28,-12.11 -10.28,-15.86 -4.88,-3.75 -11.17,-5.629 -18.87,-5.629 -9.72,0 -17.46,2.969 -23.12,8.989 -5.66,6.011 -8.48,14.371 -8.48,25.113 0,11.168 2.85,19.848 8.6,26.023 5.78,6.16 13.24,9.25 22.38,9.25 8.83,0 16.05,-3.05 21.64,-9.14 5.66,-6.016 8.48,-14.453 8.48,-25.383 l 0,-2.973 -49.5,0 c 0.43,-7.347 2.47,-12.968 6.14,-16.879 3.75,-3.871 8.36,-5.781 13.86,-5.781 4.18,0 7.74,1.09 10.63,3.281 2.93,2.149 5.23,5.629 6.87,10.352 z m -36.87,18.238 36.99,0 c -0.47,5.59 -1.91,9.77 -4.22,12.5 -3.59,4.345 -8.2,6.535 -13.9,6.535 -5.16,0 -9.53,-1.77 -13.13,-5.27 -3.47,-3.405 -5.39,-7.976 -5.74,-13.765 z"
             id="path3155"
             style="fill:#000000;fill-opacity:1;fill-rule:nonzero;stroke:none" /><path
             d="m 3058.24,1256.73 c 0,68.65 57.31,124.23 128.01,124.23 33.95,0 66.48,-13.08 90.51,-36.37 23.98,-23.29 37.5,-54.88 37.5,-87.86 0,-68.59 -57.31,-124.2 -128.01,-124.2 -70.7,0 -128.01,55.61 -128.01,124.2 z"
             id="path3157"
             style="fill:#f4cccc;fill-opacity:1;fill-rule:nonzero;stroke:none" /><path
             d="m 3058.24,1256.73 c 0,68.65 57.31,124.23 128.01,124.23 33.95,0 66.48,-13.08 90.51,-36.37 23.98,-23.29 37.5,-54.88 37.5,-87.86 0,-68.59 -57.31,-124.2 -128.01,-124.2 -70.7,0 -128.01,55.61 -128.01,124.2 z"
             id="path3159"
             style="fill:none;stroke:#e06666;stroke-width:8;stroke-linecap:butt;stroke-linejoin:round;stroke-miterlimit:10;stroke-opacity:1;stroke-dasharray:none" /><path
             d="m 1250.35,819.477 0,91.867 10.27,0 0,-8.629 c 2.43,3.441 5.12,5.98 8.13,7.66 3.09,1.641 6.8,2.5 11.13,2.5 5.67,0 10.67,-1.488 15,-4.379 4.34,-2.93 7.58,-7.07 9.73,-12.379 2.27,-5.273 3.4,-11.062 3.4,-17.383 0,-6.839 -1.25,-12.968 -3.75,-18.359 -2.42,-5.43 -5.98,-9.609 -10.63,-12.5 -4.61,-2.93 -9.45,-4.379 -14.65,-4.379 -3.75,0 -7.1,0.781 -10.11,2.348 -2.93,1.601 -5.32,3.59 -7.27,6.011 l 0,-32.378 -11.25,0 z m 10.16,58.398 c 0,-8.598 1.68,-14.918 5.11,-19.031 3.48,-4.059 7.7,-6.129 12.62,-6.129 5,0 9.3,2.152 12.89,6.41 3.56,4.219 5.35,10.781 5.35,19.609 0,8.512 -1.75,14.84 -5.23,18.981 -3.52,4.262 -7.66,6.41 -12.5,6.41 -4.77,0 -9.02,-2.27 -12.77,-6.758 -3.64,-4.492 -5.47,-11.023 -5.47,-19.492 z m 104.53,-32.891 0,9.762 c -5.16,-7.5 -12.19,-11.25 -21.09,-11.25 -3.95,0 -7.58,0.738 -11.02,2.231 -3.32,1.519 -5.82,3.398 -7.5,5.617 -1.68,2.351 -2.81,5.121 -3.52,8.402 -0.39,2.231 -0.62,5.738 -0.62,10.469 l 0,41.129 11.25,0 0,-36.75 c 0,-5.899 0.23,-9.848 0.62,-11.879 0.79,-2.969 2.27,-5.309 4.54,-6.988 2.3,-1.68 5.15,-2.5 8.47,-2.5 3.44,0 6.6,0.82 9.49,2.5 3.01,1.757 5.12,4.14 6.25,7.148 1.25,2.969 1.88,7.301 1.88,12.969 l 0,35.5 11.25,0 0,-66.36 -10,0 z m 27.58,0 0,66.36 10.11,0 0,-10 c 2.58,4.691 4.97,7.781 7.15,9.261 2.15,1.489 4.57,2.27 7.23,2.27 3.75,0 7.58,-1.211 11.52,-3.641 l -3.9,-10.39 c -2.74,1.613 -5.47,2.39 -8.25,2.39 -2.42,0 -4.6,-0.75 -6.6,-2.269 -1.91,-1.41 -3.32,-3.438 -4.14,-6.09 -1.25,-4.031 -1.87,-8.398 -1.87,-13.129 l 0,-34.762 -11.25,0 z m 42.73,-25.507 0,91.867 10.27,0 0,-8.629 c 2.43,3.441 5.12,5.98 8.13,7.66 3.09,1.641 6.8,2.5 11.13,2.5 5.67,0 10.67,-1.488 15,-4.379 4.34,-2.93 7.58,-7.07 9.73,-12.379 2.27,-5.273 3.4,-11.062 3.4,-17.383 0,-6.839 -1.25,-12.968 -3.75,-18.359 -2.42,-5.43 -5.98,-9.609 -10.63,-12.5 -4.61,-2.93 -9.45,-4.379 -14.65,-4.379 -3.75,0 -7.1,0.781 -10.11,2.348 -2.93,1.601 -5.32,3.59 -7.27,6.011 l 0,-32.378 -11.25,0 z m 10.16,58.398 c 0,-8.598 1.68,-14.918 5.11,-19.031 3.48,-4.059 7.7,-6.129 12.62,-6.129 5,0 9.3,2.152 12.89,6.41 3.56,4.219 5.35,10.781 5.35,19.609 0,8.512 -1.75,14.84 -5.23,18.981 -3.52,4.262 -7.66,6.41 -12.5,6.41 -4.77,0 -9.02,-2.27 -12.77,-6.758 -3.64,-4.492 -5.47,-11.023 -5.47,-19.492 z m 56.79,0.352 c 0,12.257 3.44,21.328 10.24,27.257 5.78,4.93 12.73,7.391 20.9,7.391 9.18,0 16.6,-3.008 22.38,-9.031 5.82,-5.887 8.75,-14.18 8.75,-24.719 0,-8.52 -1.29,-15.238 -3.91,-20.16 -2.57,-4.918 -6.32,-8.75 -11.25,-11.481 -4.8,-2.66 -10.15,-3.988 -15.97,-3.988 -9.26,0 -16.76,2.93 -22.5,8.871 -5.74,5.977 -8.64,14.61 -8.64,25.86 z m 11.65,0 c 0,-8.481 1.83,-14.883 5.46,-19.102 3.75,-4.258 8.44,-6.41 14.03,-6.41 5.58,0 10.19,2.152 13.86,6.41 3.75,4.219 5.63,10.742 5.63,19.492 0,8.16 -1.88,14.367 -5.63,18.629 -3.67,4.219 -8.28,6.371 -13.86,6.371 -5.59,0 -10.28,-2.152 -14.03,-6.371 -3.63,-4.18 -5.46,-10.512 -5.46,-19.019 z m 59.29,-13.36 11.14,1.758 c 0.58,-4.531 2.3,-7.969 5.11,-10.391 2.93,-2.347 6.92,-3.519 11.99,-3.519 5.2,0 9.03,1.062 11.53,3.129 2.5,2.183 3.75,4.683 3.75,7.5 0,2.5 -1.1,4.531 -3.28,6.011 -1.57,1.02 -5.39,2.27 -11.49,3.75 -8.24,2.071 -13.98,3.872 -17.26,5.391 -3.17,1.559 -5.55,3.668 -7.23,6.371 -1.6,2.66 -2.38,5.617 -2.38,8.867 0,3 0.66,5.743 1.99,8.243 1.33,2.5 3.16,4.57 5.51,6.25 1.76,1.328 4.14,2.418 7.11,3.238 3.08,0.941 6.36,1.41 9.76,1.41 5.24,0 9.85,-0.781 13.75,-2.27 3.91,-1.48 6.8,-3.55 8.64,-6.128 1.91,-2.5 3.24,-5.903 3.98,-10.243 l -10.98,-1.519 c -0.5,3.441 -1.95,6.09 -4.37,8.012 -2.42,1.91 -5.82,2.89 -10.16,2.89 -5.15,0 -8.87,-0.902 -11.09,-2.621 -2.19,-1.68 -3.28,-3.629 -3.28,-5.902 0,-1.477 0.47,-2.809 1.4,-3.977 0.9,-1.172 2.31,-2.191 4.22,-3.012 1.17,-0.429 4.53,-1.371 10,-2.89 7.93,-2.07 13.48,-3.828 16.64,-5.231 3.17,-1.328 5.63,-3.289 7.38,-5.859 1.84,-2.621 2.74,-5.82 2.74,-9.648 0,-3.75 -1.13,-7.313 -3.36,-10.633 -2.19,-3.239 -5.35,-5.778 -9.49,-7.61 -4.1,-1.839 -8.71,-2.738 -13.91,-2.738 -8.63,0 -15.23,1.758 -19.72,5.348 -4.5,3.601 -7.39,8.91 -8.64,16.023 z m 113.87,1.477 11.64,-1.36 c -1.84,-6.839 -5.27,-12.109 -10.27,-15.859 -4.89,-3.75 -11.18,-5.629 -18.87,-5.629 -9.73,0 -17.46,2.969 -23.13,8.988 -5.66,6.012 -8.47,14.371 -8.47,25.11 0,11.183 2.85,19.851 8.59,26.023 5.78,6.168 13.24,9.258 22.38,9.258 8.83,0 16.06,-3.051 21.64,-9.141 5.67,-6.019 8.48,-14.457 8.48,-25.39 l 0,-2.969 -49.49,0 c 0.43,-7.348 2.46,-12.969 6.13,-16.879 3.75,-3.871 8.36,-5.781 13.87,-5.781 4.18,0 7.73,1.09 10.62,3.281 2.93,2.149 5.24,5.629 6.88,10.348 z m -36.88,18.25 37,0 c -0.47,5.582 -1.92,9.761 -4.22,12.5 -3.6,4.332 -8.21,6.523 -13.91,6.523 -5.15,0 -9.53,-1.762 -13.12,-5.273 -3.48,-3.399 -5.39,-7.969 -5.75,-13.75 z"
             id="path3161"
             style="fill:#000000;fill-opacity:1;fill-rule:nonzero;stroke:none" /><path
             d="m 2837.85,1559.71 1.6,-10 c -3.16,-0.66 -5.97,-0.98 -8.47,-0.98 -4.1,0 -7.27,0.63 -9.53,1.88 -2.23,1.32 -3.83,3.01 -4.73,5.12 -0.94,2.15 -1.37,6.59 -1.37,13.36 l 0,38.12 -8.28,0 0,8.75 8.28,0 0,16.52 11.25,6.72 0,-23.24 11.25,0 0,-8.75 -11.25,0 0,-38.75 c 0,-3.25 0.16,-5.32 0.47,-6.25 0.43,-0.91 1.09,-1.68 2.03,-2.23 0.9,-0.5 2.19,-0.78 3.87,-0.78 1.25,0 2.85,0.19 4.88,0.51 z m 54.3,-1.87 c -4.18,-3.61 -8.17,-6.14 -11.99,-7.63 -3.83,-1.41 -7.97,-2.1 -12.39,-2.1 -7.34,0 -12.97,1.76 -16.87,5.35 -3.91,3.59 -5.86,8.13 -5.86,13.63 0,3.25 0.74,6.21 2.23,8.87 1.52,2.77 3.43,4.92 5.74,6.52 2.42,1.65 5.15,2.9 8.12,3.75 2.27,0.55 5.59,1.09 10,1.61 9.1,1.09 15.82,2.37 20.16,3.86 l 0,3.01 c 0,4.57 -1.06,7.82 -3.13,9.65 -2.93,2.57 -7.22,3.87 -12.89,3.87 -5.23,0 -9.18,-0.98 -11.75,-2.89 -2.5,-1.84 -4.34,-5.09 -5.51,-9.73 l -10.98,1.48 c 0.98,4.64 2.62,8.44 4.88,11.37 2.31,2.93 5.67,5.11 10,6.63 4.34,1.57 9.34,2.39 15,2.39 5.67,0 10.24,-0.7 13.75,-2.02 3.56,-1.33 6.22,-2.98 7.86,-5 1.68,-2 2.85,-4.55 3.51,-7.62 0.39,-1.93 0.63,-5.36 0.63,-10.36 l 0,-15 c 0,-10.5 0.19,-17.14 0.62,-19.89 0.51,-2.77 1.45,-5.43 2.85,-8 l -11.72,0 c -1.17,2.34 -1.91,5.07 -2.26,8.25 z m -0.86,25.12 c -4.1,-1.66 -10.24,-3.09 -18.4,-4.23 -4.65,-0.7 -7.97,-1.44 -9.88,-2.27 -1.92,-0.82 -3.4,-2.07 -4.49,-3.75 -0.98,-1.59 -1.49,-3.32 -1.49,-5.23 0,-3 1.13,-5.5 3.36,-7.5 2.34,-2.02 5.66,-3 10,-3 4.34,0 8.16,0.9 11.52,2.73 3.4,1.92 5.9,4.52 7.5,7.88 1.25,2.5 1.88,6.25 1.88,11.25 l 0,4.12 z m 28.67,-33.37 0,66.37 10.12,0 0,-10 c 2.58,4.68 4.96,7.77 7.15,9.25 2.15,1.49 4.57,2.27 7.22,2.27 3.75,0 7.58,-1.2 11.53,-3.64 l -3.91,-10.38 c -2.73,1.59 -5.47,2.38 -8.24,2.38 -2.42,0 -4.61,-0.75 -6.6,-2.27 -1.92,-1.41 -3.32,-3.43 -4.14,-6.09 -1.25,-4.02 -1.88,-8.39 -1.88,-13.12 l 0,-34.77 -11.25,0 z m 40.63,-5.5 11.01,-1.61 c 0.39,-3.43 1.64,-5.89 3.75,-7.39 2.81,-2.11 6.64,-3.11 11.49,-3.11 5.15,0 9.18,1 11.99,3.11 2.85,2.07 4.76,5 5.74,8.75 0.59,2.23 0.9,7.07 0.9,14.5 -4.92,-5.81 -11.06,-8.75 -18.4,-8.75 -9.14,0 -16.25,3.29 -21.25,9.89 -5,6.56 -7.5,14.48 -7.5,23.75 0,6.32 1.13,12.15 3.4,17.5 2.34,5.31 5.66,9.45 10,12.38 4.41,2.89 9.53,4.37 15.35,4.37 7.85,0 14.3,-3.2 19.38,-9.52 l 0,8 10.39,0 0,-57.39 c 0,-10.3 -1.06,-17.66 -3.13,-21.98 -2.07,-4.34 -5.43,-7.75 -10,-10.25 -4.57,-2.5 -10.19,-3.75 -16.87,-3.75 -7.93,0 -14.34,1.8 -19.26,5.37 -4.85,3.59 -7.15,8.97 -6.99,16.13 z m 9.37,39.87 c 0,-8.66 1.72,-15 5.12,-18.98 3.51,-4.02 7.85,-6.02 13.01,-6.02 5.15,0 9.49,1.95 13,5.86 3.48,4.02 5.24,10.27 5.24,18.75 0,8.16 -1.8,14.31 -5.35,18.41 -3.6,4.14 -7.93,6.25 -13.01,6.25 -5,0 -9.26,-2.07 -12.77,-6.14 -3.48,-4.11 -5.24,-10.11 -5.24,-18.13 z m 109.3,-13 11.64,-1.37 c -1.84,-6.84 -5.24,-12.11 -10.24,-15.86 -4.92,-3.75 -11.21,-5.62 -18.9,-5.62 -9.73,0 -17.46,2.96 -23.13,8.98 -5.66,6.02 -8.47,14.37 -8.47,25.12 0,11.17 2.85,19.84 8.63,26.02 5.74,6.16 13.2,9.25 22.34,9.25 8.87,0 16.06,-3.05 21.64,-9.14 5.67,-6.02 8.52,-14.45 8.52,-25.38 l 0,-2.98 -49.53,0 c 0.43,-7.34 2.46,-12.96 6.13,-16.87 3.75,-3.88 8.4,-5.79 13.87,-5.79 4.18,0 7.73,1.09 10.62,3.29 2.93,2.14 5.24,5.62 6.88,10.35 z m -36.88,18.24 37.03,0 c -0.5,5.59 -1.91,9.76 -4.25,12.5 -3.6,4.34 -8.21,6.53 -13.87,6.53 -5.2,0 -9.57,-1.77 -13.13,-5.27 -3.51,-3.41 -5.43,-7.98 -5.78,-13.76 z m 87.19,-29.49 1.64,-10 c -3.16,-0.66 -6.01,-0.98 -8.51,-0.98 -4.07,0 -7.23,0.63 -9.5,1.88 -2.22,1.32 -3.82,3.01 -4.72,5.12 -0.94,2.15 -1.41,6.59 -1.41,13.36 l 0,38.12 -8.24,0 0,8.75 8.24,0 0,16.52 11.25,6.72 0,-23.24 11.25,0 0,-8.75 -11.25,0 0,-38.75 c 0,-3.25 0.2,-5.32 0.51,-6.25 0.43,-0.91 1.09,-1.68 1.99,-2.23 0.94,-0.5 2.23,-0.78 3.91,-0.78 1.25,0 2.85,0.19 4.84,0.51 z"
             id="path3163"
             style="fill:#000000;fill-opacity:1;fill-rule:nonzero;stroke:none" /><path
             d="m 4583.4,677.016 0,66.359 10.12,0 0,-10 c 2.61,4.652 4.96,7.742 7.14,9.262 2.15,1.488 4.57,2.23 7.23,2.23 3.75,0 7.62,-1.211 11.52,-3.633 l -3.86,-10.359 c -2.78,1.57 -5.51,2.391 -8.28,2.391 -2.39,0 -4.61,-0.782 -6.61,-2.27 -1.91,-1.402 -3.28,-3.469 -4.14,-6.129 -1.25,-3.992 -1.87,-8.363 -1.87,-13.133 l 0,-34.718 -11.25,0 z m 85.74,0 0,8.359 c -4.14,-6.598 -10.31,-9.891 -18.48,-9.891 -5.35,0 -10.23,1.45 -14.64,4.383 -4.42,2.93 -7.86,6.988 -10.36,12.258 -2.42,5.242 -3.63,11.25 -3.63,18.012 0,6.64 1.09,12.66 3.24,17.968 2.27,5.43 5.59,9.571 10,12.379 4.42,2.93 9.38,4.383 14.89,4.383 3.98,0 7.54,-0.82 10.62,-2.5 3.17,-1.683 5.7,-3.871 7.62,-6.601 l 0,32.851 11.25,0 0,-91.601 -10.51,0 z m -35.47,33.121 c 0,-8.512 1.76,-14.883 5.35,-19.141 3.6,-4.18 7.82,-6.25 12.62,-6.25 4.92,0 9.1,1.988 12.5,6.02 3.52,4.058 5.27,10.23 5.27,18.468 0,9.11 -1.75,15.75 -5.27,20 -3.48,4.262 -7.81,6.371 -12.97,6.371 -5,0 -9.18,-2.031 -12.5,-6.089 -3.36,-4.102 -5,-10.551 -5,-19.379 z m 66.29,-33.121 0,57.609 -9.88,0 0,8.75 9.88,0 0,7.109 c 0,4.422 0.43,7.7 1.25,9.891 1.09,2.93 2.97,5.27 5.63,7.109 2.77,1.832 6.6,2.77 11.52,2.77 3.16,0 6.64,-0.387 10.47,-1.129 l -1.6,-9.891 c -2.35,0.43 -4.53,0.633 -6.64,0.633 -3.4,0 -5.82,-0.742 -7.23,-2.273 -1.45,-1.399 -2.15,-4.098 -2.15,-8.117 l 0,-6.102 12.89,0 0,-8.75 -12.89,0 0,-57.648 -11.25,0 0,0.039 z m 36.06,53.589 0,12.77 12.77,0 0,-12.77 -12.77,0 z m 0,-53.589 0,12.851 12.77,0 0,-12.851 -12.77,0 z m 56.95,10.109 1.64,-10 c -3.16,-0.66 -6.02,-1.008 -8.52,-1.008 -4.1,0 -7.26,0.617 -9.49,1.867 -2.26,1.332 -3.83,3.051 -4.76,5.121 -0.9,2.192 -1.37,6.641 -1.37,13.399 l 0,38.121 -8.24,0 0,8.75 8.24,0 0,16.492 11.25,6.758 0,-23.25 11.25,0 0,-8.75 -11.25,0 0,-38.75 c 0,-3.238 0.16,-5.348 0.51,-6.25 0.39,-0.93 1.09,-1.668 1.99,-2.258 0.9,-0.512 2.23,-0.742 3.87,-0.742 1.25,0 2.89,0.152 4.88,0.5 z m 10.55,-35.738 -1.25,10.629 c 2.42,-0.711 4.57,-1.02 6.4,-1.02 2.5,0 4.49,0.43 5.98,1.25 1.52,0.82 2.77,1.988 3.75,3.52 0.66,1.05 1.8,3.859 3.4,8.359 0.23,0.582 0.58,1.48 0.97,2.73 l -25.11,66.52 12.11,0 13.75,-38.391 c 1.83,-4.929 3.47,-10.039 4.88,-15.359 1.25,5.16 2.81,10.199 4.65,15.121 l 14.1,38.629 11.25,0 -25.24,-67.5 c -2.65,-7.34 -4.76,-12.379 -6.25,-15.109 -1.99,-3.672 -4.29,-6.411 -6.87,-8.129 -2.58,-1.762 -5.66,-2.653 -9.26,-2.653 -2.15,0 -4.57,0.473 -7.26,1.403 z m 64.53,0.117 0,91.871 10.23,0 0,-8.629 c 2.42,3.399 5.12,5.938 8.13,7.621 3.08,1.68 6.79,2.5 11.13,2.5 5.66,0 10.66,-1.453 15,-4.383 4.34,-2.929 7.58,-7.027 9.73,-12.379 2.26,-5.23 3.39,-11.011 3.39,-17.378 0,-6.801 -1.25,-12.93 -3.75,-18.36 -2.42,-5.433 -5.97,-9.57 -10.62,-12.5 -4.61,-2.933 -9.45,-4.383 -14.65,-4.383 -3.75,0 -7.11,0.793 -10.12,2.391 -2.89,1.559 -5.31,3.59 -7.22,5.969 l 0,-32.34 -11.25,0 z m 10.11,58.363 c 0,-8.59 1.72,-14.922 5.12,-18.992 3.52,-4.098 7.7,-6.129 12.62,-6.129 5,0 9.3,2.109 12.89,6.371 3.59,4.258 5.35,10.778 5.35,19.61 0,8.507 -1.72,14.839 -5.23,19.019 -3.52,4.258 -7.66,6.371 -12.5,6.371 -4.77,0 -8.99,-2.273 -12.74,-6.762 -3.67,-4.488 -5.51,-10.98 -5.51,-19.488 z m 106.45,-11.492 11.6,-1.398 c -1.83,-6.801 -5.23,-12.11 -10.23,-15.86 -4.93,-3.75 -11.21,-5.633 -18.87,-5.633 -9.77,0 -17.46,3.012 -23.13,8.993 -5.66,6.007 -8.51,14.367 -8.51,25.148 0,11.18 2.89,19.809 8.63,25.98 5.74,6.172 13.2,9.262 22.38,9.262 8.83,0 16.02,-3.051 21.61,-9.14 5.66,-5.981 8.51,-14.45 8.51,-25.352 l 0,-3.008 -49.49,0 c 0.39,-7.34 2.46,-12.972 6.09,-16.883 3.75,-3.82 8.4,-5.738 13.91,-5.738 4.14,0 7.69,1.098 10.62,3.238 2.89,2.192 5.2,5.633 6.88,10.391 z m -36.88,18.25 37,0 c -0.51,5.582 -1.92,9.719 -4.26,12.5 -3.59,4.332 -8.2,6.48 -13.87,6.48 -5.15,0 -9.53,-1.761 -13.12,-5.23 -3.52,-3.441 -5.43,-8.008 -5.75,-13.75 z"
             id="path3165"
             style="fill:#000000;fill-opacity:1;fill-rule:nonzero;stroke:none" /><path
             d="m 4653.87,971.156 1042.11,0 0,400.621 -1042.11,0 0,-400.621 z"
             id="path3167"
             style="fill:none;stroke:#000000;stroke-width:8;stroke-linecap:butt;stroke-linejoin:round;stroke-miterlimit:10;stroke-opacity:1;stroke-dasharray:none" /><path
             d="m 4969.18,1116.12 -12.34,0 0,108.75 13.24,0 0,-38.75 c 5.66,7.06 12.85,10.61 21.6,10.61 4.84,0 9.45,-1 13.75,-3 4.34,-1.91 7.89,-4.64 10.62,-8.25 2.86,-3.5 5.08,-7.73 6.65,-12.73 1.6,-5 2.38,-10.34 2.38,-16.02 0,-13.5 -3.32,-23.93 -10,-31.35 -6.68,-7.35 -14.69,-11.02 -24.03,-11.02 -9.29,0 -16.6,3.87 -21.87,11.64 l 0,-9.88 z m -0.12,40 c 0,-9.42 1.25,-16.25 3.75,-20.51 4.26,-6.83 9.96,-10.23 17.15,-10.23 5.82,0 10.86,2.5 15.12,7.5 4.26,5.08 6.37,12.65 6.37,22.73 0,10.27 -2.04,17.85 -6.14,22.77 -4.06,4.89 -8.98,7.35 -14.72,7.35 -5.86,0 -10.9,-2.55 -15.16,-7.62 -4.22,-5.08 -6.37,-12.43 -6.37,-21.99 z m 74.03,-40 0,68.36 -11.88,0 0,10.5 11.88,0 0,8.4 c 0,5.24 0.46,9.15 1.36,11.71 1.25,3.53 3.52,6.3 6.76,8.41 3.24,2.14 7.77,3.23 13.63,3.23 3.75,0 7.89,-0.43 12.5,-1.25 l -2.03,-11.75 c -2.73,0.5 -5.35,0.75 -7.85,0.75 -4.1,0 -6.95,-0.86 -8.63,-2.62 -1.68,-1.68 -2.5,-4.88 -2.5,-9.61 l 0,-7.27 15.39,0 0,-10.5 -15.39,0 0,-68.36 -13.24,0 z m 41.95,63.63 0,15.23 15.27,0 0,-15.23 -15.27,0 z m 0,-63.63 0,15.22 15.27,0 0,-15.22 -15.27,0 z m 41.84,0 0,108.75 14.49,0 0,-108.75 -14.49,0 z m 66.6,11.99 1.87,-11.88 c -3.75,-0.75 -7.11,-1.14 -10.12,-1.14 -4.84,0 -8.59,0.79 -11.25,2.28 -2.65,1.56 -4.53,3.59 -5.62,6.01 -1.09,2.5 -1.64,7.78 -1.64,15.85 l 0,45.25 -9.88,0 0,10.5 9.88,0 0,19.5 13.24,8 0,-27.5 13.52,0 0,-10.5 -13.52,0 0,-45.98 c 0,-3.84 0.24,-6.29 0.63,-7.38 0.5,-1.09 1.29,-1.96 2.38,-2.62 1.09,-0.66 2.62,-1.02 4.65,-1.02 1.4,0 3.36,0.2 5.86,0.63 z m 66.21,13.39 13.75,-1.75 c -2.15,-8.02 -6.21,-14.27 -12.11,-18.75 -5.86,-4.41 -13.36,-6.64 -22.5,-6.64 -11.53,0 -20.63,3.55 -27.38,10.62 -6.76,7.07 -10.12,17.04 -10.12,29.89 0,13.24 3.36,23.54 10.12,30.86 6.83,7.34 15.7,11 26.64,11 10.58,0 19.18,-3.59 25.86,-10.73 6.67,-7.2 10,-17.3 10,-30.39 0,-0.74 -0.04,-1.91 -0.12,-3.48 l -58.75,0 c 0.51,-8.67 2.97,-15.31 7.38,-19.88 4.42,-4.61 9.88,-6.87 16.49,-6.87 4.84,0 8.94,1.25 12.38,3.75 3.47,2.57 6.29,6.67 8.36,12.37 z m -43.87,21.61 43.98,0 c -0.58,6.6 -2.22,11.55 -5,14.87 -4.21,5.16 -9.76,7.75 -16.6,7.75 -6.09,0 -11.25,-2.07 -15.5,-6.25 -4.18,-4.07 -6.45,-9.53 -6.88,-16.37 z m 72.89,-46.99 0,78.86 11.99,0 0,-11.14 c 2.42,3.84 5.67,6.93 9.77,9.27 4.14,2.42 8.87,3.62 14.1,3.62 5.82,0 10.63,-1.2 14.38,-3.62 3.75,-2.43 6.36,-5.82 7.89,-10.23 6.25,9.25 14.37,13.85 24.37,13.85 7.81,0 13.83,-2.18 18.01,-6.48 4.22,-4.34 6.37,-11.02 6.37,-20 l 0,-54.13 -13.4,0 0,49.61 c 0,5.34 -0.39,9.18 -1.25,11.52 -0.82,2.41 -2.42,4.34 -4.73,5.73 -2.26,1.41 -4.92,2.11 -8.01,2.11 -5.5,0 -10.08,-1.82 -13.75,-5.46 -3.67,-3.67 -5.5,-9.6 -5.5,-17.77 l 0,-45.74 -13.36,0 0,51.25 c 0,5.9 -1.1,10.31 -3.25,13.24 -2.18,3.01 -5.78,4.48 -10.78,4.48 -3.75,0 -7.22,-0.96 -10.47,-2.96 -3.2,-1.95 -5.47,-4.81 -6.87,-8.63 -1.45,-3.84 -2.15,-9.34 -2.15,-16.52 l 0,-40.86 -13.36,0 z"
             id="path3169"
             style="fill:#000000;fill-opacity:1;fill-rule:nonzero;stroke:none" /><path
             d="m 4655.9,1589.41 1042.15,0 0,400.621 -1042.15,0 0,-400.621 z"
             id="path3171"
             style="fill:none;stroke:#000000;stroke-width:8;stroke-linecap:butt;stroke-linejoin:round;stroke-miterlimit:10;stroke-opacity:1;stroke-dasharray:none" /><path
             d="m 4834.26,1734.36 -12.38,0 0,108.75 13.28,0 0,-38.75 c 5.66,7.07 12.85,10.62 21.6,10.62 4.84,0 9.41,-1.02 13.75,-3 4.33,-1.93 7.89,-4.66 10.62,-8.25 2.85,-3.52 5.04,-7.77 6.64,-12.77 1.57,-5 2.39,-10.32 2.39,-15.98 0,-13.52 -3.36,-23.98 -10,-31.36 -6.68,-7.34 -14.69,-11.03 -24.03,-11.03 -9.33,0 -16.6,3.87 -21.87,11.64 l 0,-9.87 z m -0.12,40 c 0,-9.41 1.25,-16.25 3.75,-20.52 4.26,-6.82 9.96,-10.22 17.11,-10.22 5.86,0 10.9,2.5 15.16,7.5 4.22,5.08 6.36,12.66 6.36,22.72 0,10.25 -2.03,17.86 -6.13,22.75 -4.1,4.91 -8.98,7.37 -14.77,7.37 -5.82,0 -10.85,-2.53 -15.11,-7.62 -4.26,-5.06 -6.37,-12.41 -6.37,-21.98 z m 74.02,-40 0,68.35 -11.87,0 0,10.52 11.87,0 0,8.36 c 0,5.27 0.43,9.18 1.37,11.75 1.25,3.52 3.48,6.29 6.76,8.39 3.24,2.16 7.77,3.25 13.59,3.25 3.75,0 7.93,-0.43 12.5,-1.25 l -1.99,-11.75 c -2.73,0.5 -5.35,0.73 -7.85,0.73 -4.1,0 -6.99,-0.85 -8.63,-2.62 -1.68,-1.68 -2.5,-4.88 -2.5,-9.61 l 0,-7.25 15.35,0 0,-10.52 -15.35,0 0,-68.35 -13.25,0 z m 41.96,63.62 0,15.25 15.23,0 0,-15.25 -15.23,0 z m 0,-63.62 0,15.23 15.23,0 0,-15.23 -15.23,0 z m 41.83,0 0,108.75 14.5,0 0,-108.75 -14.5,0 z m 37.35,0 0,78.87 11.99,0 0,-11.25 c 5.86,8.66 14.22,13 25.12,13 4.76,0 9.14,-0.89 13.12,-2.61 4.02,-1.69 6.99,-3.96 8.91,-6.76 1.99,-2.77 3.4,-6.02 4.22,-9.77 0.5,-2.5 0.78,-6.84 0.78,-13 l 0,-48.48 -13.4,0 0,48.01 c 0,5.38 -0.55,9.45 -1.6,12.11 -1.02,2.73 -2.85,4.91 -5.51,6.48 -2.66,1.59 -5.78,2.38 -9.38,2.38 -5.66,0 -10.58,-1.79 -14.76,-5.36 -4.06,-3.59 -6.13,-10.45 -6.13,-20.61 l 0,-43.01 -13.36,0 z m 77.61,23.48 13.29,2.14 c 0.74,-5.35 2.77,-9.41 6.09,-12.27 3.44,-2.73 8.16,-4.09 14.26,-4.09 6.17,0 10.7,1.25 13.63,3.75 3.01,2.5 4.49,5.38 4.49,8.75 0,2.97 -1.29,5.34 -3.87,7.11 -1.83,1.16 -6.36,2.65 -13.63,4.48 -9.84,2.5 -16.68,4.66 -20.51,6.38 -3.75,1.82 -6.6,4.32 -8.59,7.5 -1.95,3.28 -2.89,6.79 -2.89,10.62 0,3.52 0.78,6.75 2.38,9.77 1.64,3 3.87,5.5 6.6,7.5 2.11,1.48 4.93,2.77 8.52,3.86 3.59,1.09 7.42,1.64 11.48,1.64 6.25,0 11.72,-0.93 16.41,-2.77 4.65,-1.73 8.05,-4.14 10.23,-7.23 2.27,-3 3.79,-7.02 4.61,-12.14 l -12.96,-1.72 c -0.59,3.97 -2.35,7.11 -5.28,9.36 -2.81,2.32 -6.83,3.48 -11.99,3.48 -6.17,0 -10.55,-1 -13.13,-3.12 -2.57,-2 -3.86,-4.34 -3.86,-7 0,-1.75 0.54,-3.31 1.6,-4.75 1.09,-1.41 2.81,-2.59 5.16,-3.48 1.32,-0.52 5.23,-1.68 11.71,-3.52 9.42,-2.5 16.02,-4.54 19.77,-6.13 3.75,-1.57 6.68,-3.91 8.75,-7 2.15,-3.08 3.24,-6.91 3.24,-11.48 0,-4.41 -1.29,-8.64 -3.87,-12.61 -2.57,-3.96 -6.32,-6.99 -11.25,-9.14 -4.92,-2.07 -10.46,-3.14 -16.64,-3.14 -10.23,0 -18.08,2.12 -23.47,6.37 -5.35,4.27 -8.75,10.56 -10.28,18.88 z m 109.26,-11.5 1.88,-11.86 c -3.75,-0.75 -7.11,-1.14 -10.12,-1.14 -4.84,0 -8.59,0.75 -11.25,2.27 -2.66,1.55 -4.53,3.59 -5.63,5.98 -1.09,2.5 -1.64,7.8 -1.64,15.89 l 0,45.23 -9.84,0 0,10.52 9.84,0 0,19.48 13.29,8.02 0,-27.5 13.47,0 0,-10.52 -13.47,0 0,-45.98 c 0,-3.85 0.19,-6.27 0.62,-7.37 0.47,-1.09 1.29,-1.95 2.34,-2.63 1.1,-0.66 2.66,-1 4.65,-1 1.41,0 3.36,0.18 5.86,0.61 z m 63.71,-2.25 c -5,-4.22 -9.76,-7.23 -14.37,-9 -4.57,-1.68 -9.49,-2.5 -14.73,-2.5 -8.59,0 -15.23,2.07 -19.88,6.25 -4.69,4.27 -6.99,9.66 -6.99,16.25 0,3.91 0.86,7.46 2.61,10.64 1.76,3.16 4.03,5.7 6.88,7.61 2.81,1.91 6.05,3.39 9.61,4.37 2.69,0.75 6.64,1.42 11.87,2 10.86,1.36 18.79,2.88 23.87,4.65 l 0,3.48 c 0,5.43 -1.25,9.25 -3.75,11.52 -3.4,3.01 -8.48,4.48 -15.23,4.48 -6.25,0 -10.86,-1.09 -13.87,-3.23 -3.01,-2.2 -5.2,-6.09 -6.64,-11.77 l -13.13,1.89 c 1.25,5.57 3.21,10.07 5.9,13.5 2.74,3.41 6.64,6.02 11.72,7.86 5.2,1.91 11.17,2.89 18.01,2.89 6.76,0 12.22,-0.78 16.36,-2.39 4.18,-1.59 7.27,-3.59 9.26,-6 2,-2.39 3.4,-5.43 4.14,-9.11 0.51,-2.27 0.75,-6.32 0.75,-12.27 l 0,-17.84 c 0,-12.42 0.23,-20.32 0.74,-23.64 0.58,-3.25 1.76,-6.36 3.51,-9.37 l -14.02,0 c -1.41,2.73 -2.27,5.98 -2.62,9.73 z m -1.13,29.75 c -4.8,-1.91 -12.11,-3.59 -21.87,-5 -5.47,-0.73 -9.38,-1.63 -11.61,-2.61 -2.26,-1.02 -4.02,-2.45 -5.27,-4.37 -1.25,-1.91 -1.88,-4.06 -1.88,-6.38 0,-3.59 1.37,-6.59 4.03,-9.02 2.73,-2.33 6.72,-3.48 11.87,-3.48 5.16,0 9.73,1.11 13.75,3.36 3.99,2.36 6.96,5.44 8.87,9.27 1.41,3.09 2.11,7.53 2.11,13.35 l 0,4.88 z m 32.66,-39.48 0,78.87 11.99,0 0,-11.25 c 5.82,8.66 14.22,13 25.12,13 4.76,0 9.14,-0.89 13.12,-2.61 4.02,-1.69 6.95,-3.96 8.87,-6.76 2.03,-2.77 3.44,-6.02 4.26,-9.77 0.5,-2.5 0.74,-6.84 0.74,-13 l 0,-48.48 -13.36,0 0,48.01 c 0,5.38 -0.55,9.45 -1.64,12.11 -0.98,2.73 -2.81,4.91 -5.47,6.48 -2.7,1.59 -5.82,2.38 -9.38,2.38 -5.66,0 -10.58,-1.79 -14.76,-5.36 -4.1,-3.59 -6.13,-10.45 -6.13,-20.61 l 0,-43.01 -13.36,0 z m 134.49,28.87 13.12,-1.77 c -1.4,-8.98 -5.07,-16.08 -10.97,-21.25 -5.94,-5.07 -13.25,-7.62 -21.88,-7.62 -10.78,0 -19.41,3.53 -26.01,10.52 -6.49,7.07 -9.77,17.19 -9.77,30.35 0,8.52 1.41,15.93 4.14,22.27 2.85,6.4 7.11,11.2 12.89,14.36 5.82,3.25 12.11,4.89 18.87,4.89 8.59,0 15.59,-2.18 20.98,-6.52 5.43,-4.33 8.94,-10.48 10.5,-18.48 l -13,-2 c -1.25,5.32 -3.44,9.34 -6.61,12 -3.16,2.66 -6.95,3.98 -11.36,3.98 -6.76,0 -12.27,-2.41 -16.53,-7.23 -4.14,-4.84 -6.25,-12.45 -6.25,-22.89 0,-10.57 2.03,-18.27 6.14,-23.11 4.1,-4.77 9.37,-7.11 15.86,-7.11 5.27,0 9.64,1.56 13.12,4.72 3.52,3.25 5.78,8.21 6.76,14.89 z m 77.15,-3.52 13.75,-1.73 c -2.19,-8 -6.21,-14.25 -12.15,-18.75 -5.82,-4.41 -13.32,-6.64 -22.5,-6.64 -11.49,0 -20.63,3.57 -27.38,10.64 -6.72,7.07 -10.12,17.02 -10.12,29.88 0,13.23 3.4,23.52 10.12,30.85 6.83,7.34 15.74,11.02 26.64,11.02 10.58,0 19.21,-3.59 25.86,-10.75 6.68,-7.18 10,-17.3 10,-30.39 0,-0.73 -0.04,-1.91 -0.12,-3.5 l -58.75,0 c 0.51,-8.64 2.97,-15.29 7.38,-19.86 4.42,-4.6 9.92,-6.86 16.49,-6.86 4.84,0 8.98,1.25 12.38,3.75 3.51,2.58 6.29,6.68 8.4,12.34 z m -43.91,21.63 44.02,0 c -0.58,6.62 -2.26,11.54 -5,14.89 -4.25,5.16 -9.8,7.73 -16.64,7.73 -6.09,0 -11.25,-2.07 -15.5,-6.25 -4.14,-4.05 -6.45,-9.53 -6.88,-16.37 z"
             id="path3173"
             style="fill:#000000;fill-opacity:1;fill-rule:nonzero;stroke:none" /><path
             d="m 4647.3,2207.64 1042.15,0 0,400.621 -1042.15,0 0,-400.621 z"
             id="path3175"
             style="fill:none;stroke:#000000;stroke-width:8;stroke-linecap:butt;stroke-linejoin:round;stroke-miterlimit:10;stroke-opacity:1;stroke-dasharray:none" /><path
             d="m 4933.67,2352.59 -12.38,0 0,108.75 13.24,0 0,-38.75 c 5.67,7.07 12.89,10.64 21.64,10.64 4.85,0 9.42,-1.02 13.75,-3.02 4.34,-1.91 7.89,-4.68 10.63,-8.23 2.81,-3.52 5.04,-7.78 6.64,-12.78 1.56,-5 2.34,-10.31 2.34,-15.97 0,-13.52 -3.32,-24 -10,-31.41 -6.64,-7.3 -14.65,-10.98 -23.98,-10.98 -9.34,0 -16.64,3.87 -21.88,11.61 l 0,-9.86 z m -0.12,40 c 0,-9.41 1.25,-16.25 3.75,-20.5 4.26,-6.84 9.97,-10.27 17.11,-10.27 5.82,0 10.9,2.5 15.12,7.5 4.26,5.11 6.41,12.7 6.41,22.77 0,10.23 -2.07,17.82 -6.14,22.73 -4.1,4.93 -9.02,7.39 -14.76,7.39 -5.82,0 -10.86,-2.55 -15.12,-7.62 -4.26,-5.07 -6.37,-12.43 -6.37,-22 z m 73.99,-40 0,68.37 -11.88,0 0,10.5 11.88,0 0,8.36 c 0,5.27 0.47,9.18 1.41,11.77 1.25,3.5 3.47,6.29 6.71,8.36 3.29,2.18 7.82,3.28 13.64,3.28 3.75,0 7.93,-0.43 12.5,-1.25 l -2,-11.77 c -2.73,0.52 -5.39,0.75 -7.89,0.75 -4.06,0 -6.95,-0.87 -8.59,-2.62 -1.68,-1.68 -2.5,-4.88 -2.5,-9.64 l 0,-7.24 15.35,0 0,-10.5 -15.35,0 0,-68.37 -13.28,0 z m 41.99,63.61 0,15.26 15.24,0 0,-15.26 -15.24,0 z m 0,-63.61 0,15.25 15.24,0 0,-15.25 -15.24,0 z m 58.44,0 -28.87,108.75 14.77,0 16.48,-71.25 c 1.84,-7.5 3.4,-14.91 4.65,-22.25 2.73,11.59 4.38,18.28 4.84,20.12 l 20.78,73.38 17.35,0 15.62,-55 c 3.95,-13.66 6.72,-26.52 8.4,-38.5 1.41,6.82 3.24,14.71 5.51,23.62 l 16.99,69.88 14.49,0 -29.88,-108.75 -13.87,0 -22.89,82.87 c -1.91,6.91 -3,11.17 -3.36,12.77 -1.17,-5 -2.26,-9.27 -3.24,-12.77 l -23.12,-82.87 -14.65,0 z m 115.12,39.39 c 0,14.57 4.1,25.39 12.26,32.5 6.76,5.82 15,8.75 24.77,8.75 10.82,0 19.65,-3.6 26.48,-10.78 6.92,-7.07 10.39,-16.88 10.39,-29.38 0,-10.16 -1.56,-18.16 -4.65,-23.98 -3,-5.75 -7.42,-10.25 -13.24,-13.52 -5.74,-3.16 -12.07,-4.73 -18.98,-4.73 -11.02,0 -19.92,3.55 -26.76,10.62 -6.84,7.08 -10.27,17.24 -10.27,30.52 z m 13.75,0 c 0,-10.09 2.22,-17.66 6.64,-22.66 4.41,-5 9.96,-7.5 16.64,-7.5 6.64,0 12.15,2.5 16.48,7.5 4.42,5.11 6.64,12.81 6.64,23.13 0,9.76 -2.22,17.14 -6.64,22.14 -4.41,5 -9.92,7.5 -16.48,7.5 -6.68,0 -12.23,-2.5 -16.64,-7.5 -4.42,-5 -6.64,-12.54 -6.64,-22.61 z m 74.14,-39.39 0,78.87 11.99,0 0,-11.98 c 3.08,5.57 5.94,9.22 8.51,10.98 2.58,1.83 5.47,2.77 8.64,2.77 4.49,0 9.06,-1.5 13.75,-4.39 l -4.65,-12.38 c -3.24,1.92 -6.52,2.86 -9.84,2.86 -2.93,0 -5.55,-0.86 -7.9,-2.62 -2.26,-1.75 -3.86,-4.15 -4.88,-7.22 -1.48,-4.77 -2.22,-9.96 -2.22,-15.64 l 0,-41.25 -13.4,0 z m 49.96,0 0,108.75 13.36,0 0,-62.02 31.64,32.14 17.26,0 -30.15,-29.25 33.12,-49.62 -16.48,0 -26.02,40.25 -9.37,-9 0,-31.25 -13.36,0 z"
             id="path3177"
             style="fill:#000000;fill-opacity:1;fill-rule:nonzero;stroke:none" /><path
             d="m 5174.96,1371.7 1.56,169.69"
             id="path3179"
             style="fill:none;stroke:#000000;stroke-width:8;stroke-linecap:butt;stroke-linejoin:round;stroke-miterlimit:10;stroke-opacity:1;stroke-dasharray:none" /><path
             d="m 5189.73,1541.28 -12.89,36.43 -13.52,-36.21 26.41,-0.22 z"
             id="path3181"
             style="fill:#000000;fill-opacity:1;fill-rule:evenodd;stroke:none" /><path
             d="m 5189.73,1541.28 -12.89,36.43 -13.52,-36.21 26.41,-0.22 z"
             id="path3183"
             style="fill:none;stroke:#000000;stroke-width:8;stroke-linecap:butt;stroke-linejoin:miter;stroke-miterlimit:10;stroke-opacity:1;stroke-dasharray:none" /><path
             d="m 5176.91,1989.95 -6.68,169.71"
             id="path3185"
             style="fill:none;stroke:#000000;stroke-width:8;stroke-linecap:butt;stroke-linejoin:round;stroke-miterlimit:10;stroke-opacity:1;stroke-dasharray:none" /><path
             d="m 5183.44,2160.18 -14.61,35.78 -11.8,-36.8 26.41,1.02 z"
             id="path3187"
             style="fill:#000000;fill-opacity:1;fill-rule:evenodd;stroke:none" /><path
             d="m 5183.44,2160.18 -14.61,35.78 -11.8,-36.8 26.41,1.02 z"
             id="path3189"
             style="fill:none;stroke:#000000;stroke-width:8;stroke-linecap:butt;stroke-linejoin:miter;stroke-miterlimit:10;stroke-opacity:1;stroke-dasharray:none" /></g></g></g></g></svg>