<?xml version="1.0" encoding="UTF-8" standalone="no"?>
<!-- Created with Inkscape (http://www.inkscape.org/) -->

<svg
   xmlns:dc="http://purl.org/dc/elements/1.1/"
   xmlns:cc="http://creativecommons.org/ns#"
   xmlns:rdf="http://www.w3.org/1999/02/22-rdf-syntax-ns#"
   xmlns:svg="http://www.w3.org/2000/svg"
   xmlns="http://www.w3.org/2000/svg"
   version="1.1"
   width="960"
   height="720"
   id="svg3191"
   xml:space="preserve"><metadata
     id="metadata3197"><rdf:RDF><cc:Work
         rdf:about=""><dc:format>image/svg+xml</dc:format><dc:type
           rdf:resource="http://purl.org/dc/dcmitype/StillImage" /><dc:title></dc:title></cc:Work></rdf:RDF></metadata><defs
     id="defs3195" /><g
     transform="matrix(1.25,0,0,-1.25,0,720)"
     id="g3199"><g
       transform="scale(0.1,0.1)"
       id="g3201"><path
         d="m 1657.81,1864.61 2103.67,0 0,1560.43 -2103.67,0 0,-1560.43 z"
         id="path3203"
         style="fill:none;stroke:#999999;stroke-width:8;stroke-linecap:butt;stroke-linejoin:round;stroke-miterlimit:10;stroke-opacity:1;stroke-dasharray:64, 24;stroke-dashoffset:0" /><path
         d="m 5863.98,2288.44 c 218.95,0 437.93,50.08 602.15,125.19 82.11,37.58 150.51,81.37 198.44,128.32 23.95,23.48 42.73,47.74 55.59,72.39 3.2,6.17 6.01,12.34 8.47,18.55 0.63,1.56 1.21,3.13 1.76,4.65 0.27,0.78 0.55,1.56 0.82,2.34 l 0.63,1.84"
         id="path3205"
         style="fill:none;stroke:#000000;stroke-width:8;stroke-linecap:butt;stroke-linejoin:round;stroke-miterlimit:10;stroke-opacity:1;stroke-dasharray:none" /><path
         d="m 6744.88,2639.53 -6.99,38.01 -19.06,-33.59 26.05,-4.42 z"
         id="path3207"
         style="fill:#000000;fill-opacity:1;fill-rule:evenodd;stroke:none" /><path
         d="m 6744.88,2639.53 -6.99,38.01 -19.06,-33.59 26.05,-4.42 z"
         id="path3209"
         style="fill:none;stroke:#000000;stroke-width:8;stroke-linecap:butt;stroke-linejoin:miter;stroke-miterlimit:10;stroke-opacity:1;stroke-dasharray:none" /><path
         d="m 6171.84,2343.32 434.652,0 0,155.469 -434.652,0 0,-155.469 z"
         id="path3211"
         style="fill:#ffffff;fill-opacity:1;fill-rule:nonzero;stroke:none" /><path
         d="m 3806.37,1864.53 2103.71,0 0,1560.43 -2103.71,0 0,-1560.43 z"
         id="path3213"
         style="fill:none;stroke:#999999;stroke-width:8;stroke-linecap:butt;stroke-linejoin:round;stroke-miterlimit:10;stroke-opacity:1;stroke-dasharray:64, 24;stroke-dashoffset:0" /><path
         d="m 4841.72,2886.91 528.32,-404.45"
         id="path3215"
         style="fill:none;stroke:#000000;stroke-width:8;stroke-linecap:butt;stroke-linejoin:round;stroke-miterlimit:10;stroke-opacity:1;stroke-dasharray:none" /><path
         d="m 5362.03,2471.95 36.84,-11.56 -20.78,32.54 -16.06,-20.98 z"
         id="path3217"
         style="fill:#000000;fill-opacity:1;fill-rule:evenodd;stroke:none" /><path
         d="m 5362.03,2471.95 36.84,-11.56 -20.78,32.54 -16.06,-20.98 z"
         id="path3219"
         style="fill:none;stroke:#000000;stroke-width:8;stroke-linecap:butt;stroke-linejoin:miter;stroke-miterlimit:10;stroke-opacity:1;stroke-dasharray:none" /><path
         d="m 4660.7,2886.91 -291.01,-395"
         id="path3221"
         style="fill:none;stroke:#000000;stroke-width:8;stroke-linecap:butt;stroke-linejoin:round;stroke-miterlimit:10;stroke-opacity:1;stroke-dasharray:none" /><path
         d="m 4359.06,2499.77 -10.9,-37.07 32.15,21.36 -21.25,15.71 z"
         id="path3223"
         style="fill:#000000;fill-opacity:1;fill-rule:evenodd;stroke:none" /><path
         d="m 4359.06,2499.77 -10.9,-37.07 32.15,21.36 -21.25,15.71 z"
         id="path3225"
         style="fill:none;stroke:#000000;stroke-width:8;stroke-linecap:butt;stroke-linejoin:miter;stroke-miterlimit:10;stroke-opacity:1;stroke-dasharray:none" /><path
         d="m 4018.91,2625.04 618.828,0 0,155.473 -618.828,0 0,-155.473 z"
         id="path3227"
         style="fill:#ffffff;fill-opacity:1;fill-rule:nonzero;stroke:none" /><path
         d="m 4895.2,2589.03 618.832,0 0,179.879 -618.832,0 0,-179.879 z"
         id="path3229"
         style="fill:#ffffff;fill-opacity:1;fill-rule:nonzero;stroke:none" /><path
         d="M 3342.5,3753.67 2789.53,2850.51"
         id="path3231"
         style="fill:none;stroke:#000000;stroke-width:8;stroke-linecap:butt;stroke-linejoin:round;stroke-miterlimit:10;stroke-opacity:1;stroke-dasharray:none" /><path
         d="m 2778.28,2857.38 -7.69,-37.85 30.23,24.06 -22.54,13.79 z"
         id="path3233"
         style="fill:#000000;fill-opacity:1;fill-rule:evenodd;stroke:none" /><path
         d="m 2778.28,2857.38 -7.69,-37.85 30.23,24.06 -22.54,13.79 z"
         id="path3235"
         style="fill:none;stroke:#000000;stroke-width:8;stroke-linecap:butt;stroke-linejoin:miter;stroke-miterlimit:10;stroke-opacity:1;stroke-dasharray:none" /><path
         d="m 2716.21,3213.28 618.828,0 0,155.469 -618.828,0 0,-155.469 z"
         id="path3237"
         style="fill:#ffffff;fill-opacity:1;fill-rule:nonzero;stroke:none" /><path
         d="M 4261.13,3753.67 4722.42,3137.5"
         id="path3239"
         style="fill:none;stroke:#000000;stroke-width:8;stroke-linecap:butt;stroke-linejoin:round;stroke-miterlimit:10;stroke-opacity:1;stroke-dasharray:none" /><path
         d="m 4711.88,3129.57 32.3,-21.13 -11.17,36.95 -21.13,-15.82 z"
         id="path3241"
         style="fill:#000000;fill-opacity:1;fill-rule:evenodd;stroke:none" /><path
         d="m 4711.88,3129.57 32.3,-21.13 -11.17,36.95 -21.13,-15.82 z"
         id="path3243"
         style="fill:none;stroke:#000000;stroke-width:8;stroke-linecap:butt;stroke-linejoin:miter;stroke-miterlimit:10;stroke-opacity:1;stroke-dasharray:none" /><path
         d="m 4261.13,3213.28 745.313,0 0,155.469 -745.313,0 0,-155.469 z"
         id="path3245"
         style="fill:#ffffff;fill-opacity:1;fill-rule:nonzero;stroke:none" /><path
         d="m 1657.81,3459.65 4252.23,0 0,904.301 -4252.23,0 0,-904.301 z"
         id="path3247"
         style="fill:none;stroke:#999999;stroke-width:8;stroke-linecap:butt;stroke-linejoin:round;stroke-miterlimit:10;stroke-opacity:1;stroke-dasharray:64, 24;stroke-dashoffset:0" /><path
         d="m 3152.23,3925.9 c 0,134.49 290.82,243.51 649.57,243.51 358.75,0 649.57,-109.02 649.57,-243.51 0,-134.53 -290.82,-243.56 -649.57,-243.56 -358.75,0 -649.57,109.03 -649.57,243.56 z"
         id="path3249"
         style="fill:#fff2cc;fill-opacity:1;fill-rule:nonzero;stroke:none" /><path
         d="m 3152.23,3925.9 c 0,134.49 290.82,243.51 649.57,243.51 358.75,0 649.57,-109.02 649.57,-243.51 0,-134.53 -290.82,-243.56 -649.57,-243.56 -358.75,0 -649.57,109.03 -649.57,243.56 z"
         id="path3251"
         style="fill:none;stroke:#000000;stroke-width:8;stroke-linecap:butt;stroke-linejoin:round;stroke-miterlimit:10;stroke-opacity:1;stroke-dasharray:none" /><path
         d="m 3592.34,3900.39 11.61,-1.41 c -1.84,-6.83 -5.24,-12.1 -10.24,-15.86 -4.92,-3.74 -11.21,-5.62 -18.87,-5.62 -9.76,0 -17.46,3.01 -23.12,8.98 -5.67,6.02 -8.52,14.38 -8.52,25.16 0,11.13 2.89,19.81 8.64,25.98 5.74,6.17 13.2,9.26 22.38,9.26 8.83,0 16.01,-3.05 21.6,-9.15 5.66,-5.97 8.52,-14.45 8.52,-25.35 l 0,-3 -49.5,0 c 0.39,-7.35 2.46,-12.97 6.14,-16.88 3.75,-3.83 8.36,-5.74 13.86,-5.74 4.14,0 7.7,1.09 10.63,3.24 2.89,2.15 5.19,5.62 6.87,10.39 z m -36.87,18.24 36.99,0 c -0.51,5.59 -1.91,9.73 -4.26,12.5 -3.59,4.34 -8.2,6.49 -13.86,6.49 -5.16,0 -9.54,-1.76 -13.13,-5.24 -3.51,-3.43 -5.43,-8 -5.74,-13.75 z m 55.19,-39.65 24.22,34.54 -22.5,31.87 14.14,0 10.12,-15.51 c 1.91,-3 3.48,-5.5 4.65,-7.5 1.83,2.74 3.51,5.2 5.12,7.39 l 11.13,15.62 13.48,0 -23.01,-31.25 24.76,-35.16 -13.86,0 -13.64,20.63 -3.63,5.62 -17.38,-26.25 -13.6,0 z m 74.61,53.64 0,12.77 12.74,0 0,-12.77 -12.74,0 z m 0,-53.64 0,12.9 12.74,0 0,-12.9 -12.74,0 z m 75.71,8.29 c -4.18,-3.6 -8.17,-6.14 -12.03,-7.66 -3.83,-1.41 -7.93,-2.11 -12.35,-2.11 -7.34,0 -12.97,1.8 -16.87,5.39 -3.95,3.56 -5.9,8.13 -5.9,13.59 0,3.29 0.74,6.22 2.26,8.91 1.49,2.73 3.4,4.88 5.75,6.49 2.42,1.67 5.11,2.92 8.12,3.74 2.27,0.59 5.59,1.14 10,1.65 9.1,1.05 15.78,2.34 20.12,3.86 l 0,3.01 c 0,4.57 -1.02,7.77 -3.13,9.61 -2.89,2.58 -7.18,3.87 -12.85,3.87 -5.27,0 -9.18,-0.94 -11.76,-2.85 -2.5,-1.84 -4.33,-5.12 -5.5,-9.77 l -11.02,1.48 c 1.02,4.69 2.66,8.48 4.88,11.41 2.35,2.89 5.67,5.12 10,6.6 4.34,1.6 9.34,2.39 15,2.39 5.67,0 10.28,-0.67 13.75,-2 3.6,-1.33 6.21,-3 7.89,-5 1.64,-1.99 2.82,-4.53 3.48,-7.61 0.43,-1.92 0.63,-5.39 0.63,-10.39 l 0,-15 c 0,-10.51 0.23,-17.11 0.62,-19.89 0.51,-2.73 1.48,-5.39 2.89,-8.01 l -11.76,0 c -1.17,2.35 -1.91,5.12 -2.22,8.29 z m -0.9,25.11 c -4.06,-1.68 -10.2,-3.08 -18.36,-4.26 -4.69,-0.66 -7.97,-1.4 -9.88,-2.26 -1.92,-0.82 -3.4,-2.07 -4.5,-3.75 -1.01,-1.56 -1.52,-3.32 -1.52,-5.23 0,-3.01 1.13,-5.51 3.4,-7.5 2.34,-2 5.66,-3.01 10,-3.01 4.33,0 8.16,0.93 11.48,2.77 3.44,1.91 5.94,4.53 7.5,7.85 1.25,2.5 1.88,6.25 1.88,11.25 l 0,4.14 z m 28.83,-33.4 0,66.41 10.11,0 0,-9.37 c 4.85,7.22 11.88,10.86 21.14,10.86 3.98,0 7.65,-0.71 10.97,-2.11 3.36,-1.45 5.86,-3.32 7.5,-5.63 1.68,-2.34 2.85,-5.16 3.52,-8.4 0.43,-2.07 0.62,-5.7 0.62,-10.86 l 0,-40.9 -11.25,0 0,40.4 c 0,4.57 -0.47,8 -1.36,10.23 -0.86,2.34 -2.39,4.18 -4.65,5.51 -2.15,1.33 -4.73,1.99 -7.74,1.99 -4.84,0 -8.98,-1.52 -12.5,-4.61 -3.39,-3.01 -5.11,-8.75 -5.11,-17.27 l 0,-36.25 -11.25,0 z m 71.17,0 0,66.41 10.12,0 0,-9.37 c 4.84,7.22 11.87,10.86 21.13,10.86 4.02,0 7.65,-0.71 11.01,-2.11 3.32,-1.45 5.82,-3.32 7.5,-5.63 1.64,-2.34 2.82,-5.16 3.48,-8.4 0.43,-2.07 0.63,-5.7 0.63,-10.86 l 0,-40.9 -11.25,0 0,40.4 c 0,4.57 -0.43,8 -1.37,10.23 -0.82,2.34 -2.38,4.18 -4.61,5.51 -2.19,1.33 -4.77,1.99 -7.77,1.99 -4.81,0 -8.99,-1.52 -12.5,-4.61 -3.4,-3.01 -5.12,-8.75 -5.12,-17.27 l 0,-36.25 -11.25,0 z m 66.95,33.29 c 0,12.22 3.4,21.32 10.24,27.22 5.74,4.92 12.73,7.39 20.89,7.39 9.14,0 16.61,-3.01 22.35,-8.99 5.86,-5.94 8.75,-14.18 8.75,-24.77 0,-8.51 -1.29,-15.19 -3.87,-20.11 -2.58,-4.92 -6.33,-8.75 -11.25,-11.53 -4.84,-2.65 -10.16,-3.98 -15.98,-3.98 -9.25,0 -16.75,2.97 -22.5,8.87 -5.78,6.01 -8.63,14.65 -8.63,25.9 z m 11.6,0 c 0,-8.52 1.84,-14.89 5.51,-19.15 3.75,-4.25 8.44,-6.36 14.02,-6.36 5.59,0 10.2,2.11 13.87,6.36 3.75,4.26 5.63,10.75 5.63,19.5 0,8.16 -1.88,14.37 -5.63,18.63 -3.67,4.26 -8.28,6.37 -13.87,6.37 -5.58,0 -10.27,-2.11 -14.02,-6.37 -3.67,-4.18 -5.51,-10.51 -5.51,-18.98 z m 103.09,-33.29 -11.25,0 0,71.76 c -2.77,-2.58 -6.33,-5.15 -10.74,-7.73 -4.34,-2.58 -8.28,-4.53 -11.76,-5.9 l 0,10.9 c 6.25,3.01 11.72,6.56 16.37,10.74 4.76,4.26 8.12,8.32 10.11,12.27 l 7.27,0 0,-92.04 z"
         id="path3253"
         style="fill:#000000;fill-opacity:1;fill-rule:nonzero;stroke:none" /><path
         d="m 3362.54,4490.82 c 0,14.57 4.1,25.43 12.26,32.5 6.76,5.82 15,8.75 24.73,8.75 10.86,0 19.69,-3.59 26.52,-10.74 6.92,-7.11 10.36,-16.88 10.36,-29.38 0,-10.19 -1.53,-18.16 -4.61,-24.02 -3.01,-5.74 -7.42,-10.23 -13.25,-13.48 -5.74,-3.16 -12.1,-4.76 -19.02,-4.76 -10.98,0 -19.92,3.55 -26.72,10.62 -6.83,7.07 -10.27,17.27 -10.27,30.51 z m 13.75,0 c 0,-10.08 2.23,-17.62 6.64,-22.62 4.41,-5 9.96,-7.5 16.6,-7.5 6.68,0 12.19,2.5 16.52,7.5 4.42,5.08 6.61,12.78 6.61,23.13 0,9.72 -2.19,17.11 -6.61,22.11 -4.41,5 -9.92,7.5 -16.52,7.5 -6.64,0 -12.19,-2.5 -16.6,-7.5 -4.41,-5 -6.64,-12.54 -6.64,-22.62 z m 125.74,-29.65 c -5,-4.22 -9.76,-7.22 -14.37,-8.98 -4.57,-1.68 -9.5,-2.5 -14.73,-2.5 -8.59,0 -15.2,2.07 -19.88,6.25 -4.65,4.26 -7,9.68 -7,16.25 0,3.9 0.86,7.46 2.62,10.62 1.76,3.17 4.06,5.71 6.88,7.62 2.85,1.91 6.05,3.4 9.61,4.37 2.69,0.75 6.64,1.45 11.87,2 10.86,1.36 18.83,2.89 23.91,4.65 l 0,3.47 c 0,5.43 -1.25,9.26 -3.75,11.53 -3.44,3 -8.52,4.49 -15.28,4.49 -6.25,0 -10.86,-1.1 -13.86,-3.24 -3.01,-2.19 -5.2,-6.1 -6.64,-11.76 l -13.13,1.87 c 1.25,5.59 3.24,10.08 5.9,13.52 2.73,3.4 6.68,6.01 11.76,7.85 5.15,1.91 11.17,2.89 17.97,2.89 6.75,0 12.22,-0.78 16.4,-2.38 4.14,-1.57 7.23,-3.6 9.22,-6.02 2.03,-2.38 3.4,-5.43 4.14,-9.1 0.51,-2.27 0.74,-6.33 0.74,-12.27 l 0,-17.85 c 0,-12.42 0.28,-20.31 0.75,-23.63 0.58,-3.24 1.75,-6.37 3.51,-9.37 l -13.98,0 c -1.45,2.73 -2.31,5.97 -2.66,9.72 z m -1.09,29.77 c -4.85,-1.92 -12.15,-3.6 -21.88,-5 -5.51,-0.74 -9.37,-1.64 -11.64,-2.62 -2.26,-1.02 -3.98,-2.46 -5.23,-4.37 -1.25,-1.92 -1.88,-4.07 -1.88,-6.37 0,-3.6 1.33,-6.6 3.99,-9.03 2.73,-2.3 6.72,-3.47 11.87,-3.47 5.16,0 9.77,1.09 13.75,3.36 3.99,2.34 6.96,5.43 8.87,9.26 1.44,3.08 2.15,7.53 2.15,13.35 l 0,4.89 z m 36.36,24.14 0,15.23 15.24,0 0,-15.23 -15.24,0 z m 0,-63.63 0,15.23 15.24,0 0,-15.23 -15.24,0 z m 27.47,0 41.87,108.75 15.51,0 44.49,-108.75 -16.37,0 -12.73,33 -45.51,0 -11.87,-33 -15.39,0 z m 31.36,44.6 36.88,0 -11.25,30.28 c -3.48,9.06 -6.06,16.56 -7.74,22.5 -1.4,-7.03 -3.36,-13.95 -5.86,-20.78 l -12.03,-32 z m 78.44,-44.6 0,78.86 11.99,0 0,-11.25 c 5.86,8.67 14.22,13.01 25.12,13.01 4.77,0 9.14,-0.9 13.12,-2.62 4.03,-1.68 7,-3.94 8.91,-6.75 1.99,-2.78 3.4,-6.02 4.22,-9.77 0.51,-2.5 0.78,-6.84 0.78,-13.01 l 0,-48.47 -13.4,0 0,48 c 0,5.39 -0.54,9.46 -1.6,12.11 -1.01,2.74 -2.85,4.92 -5.51,6.49 -2.65,1.6 -5.78,2.38 -9.37,2.38 -5.67,0 -10.59,-1.8 -14.77,-5.35 -4.06,-3.6 -6.13,-10.47 -6.13,-20.63 l 0,-43 -13.36,0 z m 83.01,0 0,78.86 11.99,0 0,-11.25 c 5.82,8.67 14.22,13.01 25.12,13.01 4.76,0 9.14,-0.9 13.12,-2.62 4.03,-1.68 6.96,-3.94 8.91,-6.75 1.99,-2.78 3.4,-6.02 4.22,-9.77 0.51,-2.5 0.78,-6.84 0.78,-13.01 l 0,-48.47 -13.4,0 0,48 c 0,5.39 -0.55,9.46 -1.6,12.11 -1.02,2.74 -2.85,4.92 -5.51,6.49 -2.69,1.6 -5.82,2.38 -9.37,2.38 -5.67,0 -10.59,-1.8 -14.77,-5.35 -4.06,-3.6 -6.13,-10.47 -6.13,-20.63 l 0,-43 -13.36,0 z m 78.01,39.37 c 0,14.57 4.06,25.43 12.22,32.5 6.76,5.82 15,8.75 24.77,8.75 10.82,0 19.69,-3.59 26.48,-10.74 6.96,-7.11 10.39,-16.88 10.39,-29.38 0,-10.19 -1.52,-18.16 -4.61,-24.02 -3,-5.74 -7.42,-10.23 -13.28,-13.48 -5.74,-3.16 -12.07,-4.76 -18.98,-4.76 -11.02,0 -19.92,3.55 -26.76,10.62 -6.84,7.07 -10.23,17.27 -10.23,30.51 z m 13.75,0 c 0,-10.08 2.18,-17.62 6.6,-22.62 4.45,-5 9.96,-7.5 16.64,-7.5 6.68,0 12.19,2.5 16.48,7.5 4.46,5.08 6.64,12.78 6.64,23.13 0,9.72 -2.18,17.11 -6.64,22.11 -4.41,5 -9.88,7.5 -16.48,7.5 -6.68,0 -12.19,-2.5 -16.64,-7.5 -4.42,-5 -6.6,-12.54 -6.6,-22.62 z m 103.51,-27.38 1.88,-11.88 c -3.75,-0.74 -7.15,-1.13 -10.16,-1.13 -4.8,0 -8.55,0.74 -11.25,2.27 -2.66,1.56 -4.53,3.59 -5.62,5.97 -1.06,2.5 -1.61,7.81 -1.61,15.9 l 0,45.23 -9.88,0 0,10.51 9.88,0 0,19.49 13.25,8.01 0,-27.5 13.51,0 0,-10.51 -13.51,0 0,-45.97 c 0,-3.83 0.19,-6.29 0.62,-7.38 0.51,-1.1 1.29,-1.96 2.38,-2.62 1.1,-0.67 2.62,-1.02 4.61,-1.02 1.45,0 3.4,0.2 5.9,0.63 z m 63.71,-2.27 c -5,-4.22 -9.8,-7.22 -14.37,-8.98 -4.61,-1.68 -9.49,-2.5 -14.77,-2.5 -8.59,0 -15.19,2.07 -19.88,6.25 -4.65,4.26 -6.99,9.68 -6.99,16.25 0,3.9 0.9,7.46 2.61,10.62 1.76,3.17 4.07,5.71 6.88,7.62 2.85,1.91 6.05,3.4 9.65,4.37 2.65,0.75 6.6,1.45 11.87,2 10.82,1.36 18.79,2.89 23.87,4.65 l 0,3.47 c 0,5.43 -1.25,9.26 -3.75,11.53 -3.4,3 -8.52,4.49 -15.23,4.49 -6.25,0 -10.9,-1.1 -13.91,-3.24 -2.97,-2.19 -5.2,-6.1 -6.6,-11.76 l -13.13,1.87 c 1.25,5.59 3.21,10.08 5.86,13.52 2.78,3.4 6.68,6.01 11.76,7.85 5.16,1.91 11.17,2.89 18.01,2.89 6.76,0 12.18,-0.78 16.36,-2.38 4.18,-1.57 7.27,-3.6 9.26,-6.02 1.99,-2.38 3.36,-5.43 4.1,-9.1 0.51,-2.27 0.79,-6.33 0.79,-12.27 l 0,-17.85 c 0,-12.42 0.23,-20.31 0.74,-23.63 0.58,-3.24 1.76,-6.37 3.47,-9.37 l -13.98,0 c -1.41,2.73 -2.3,5.97 -2.62,9.72 z m -1.13,29.77 c -4.84,-1.92 -12.11,-3.6 -21.88,-5 -5.5,-0.74 -9.37,-1.64 -11.64,-2.62 -2.22,-1.02 -3.98,-2.46 -5.23,-4.37 -1.25,-1.92 -1.88,-4.07 -1.88,-6.37 0,-3.6 1.33,-6.6 3.99,-9.03 2.77,-2.3 6.72,-3.47 11.87,-3.47 5.2,0 9.77,1.09 13.75,3.36 4.03,2.34 7,5.43 8.91,9.26 1.41,3.08 2.11,7.53 2.11,13.35 l 0,4.89 z m 61.87,-27.5 1.88,-11.88 c -3.75,-0.74 -7.11,-1.13 -10.12,-1.13 -4.84,0 -8.59,0.74 -11.25,2.27 -2.65,1.56 -4.53,3.59 -5.62,5.97 -1.1,2.5 -1.64,7.81 -1.64,15.9 l 0,45.23 -9.85,0 0,10.51 9.85,0 0,19.49 13.28,8.01 0,-27.5 13.47,0 0,-10.51 -13.47,0 0,-45.97 c 0,-3.83 0.19,-6.29 0.62,-7.38 0.47,-1.1 1.29,-1.96 2.35,-2.62 1.09,-0.67 2.65,-1.02 4.65,-1.02 1.4,0 3.35,0.2 5.85,0.63 z m 12.35,81.48 0,15.28 13.36,0 0,-15.28 -13.36,0 z m 0,-93.47 0,78.86 13.36,0 0,-78.86 -13.36,0 z m 28.05,39.37 c 0,14.57 4.06,25.43 12.22,32.5 6.76,5.82 15,8.75 24.77,8.75 10.82,0 19.65,-3.59 26.48,-10.74 6.92,-7.11 10.39,-16.88 10.39,-29.38 0,-10.19 -1.56,-18.16 -4.61,-24.02 -3,-5.74 -7.42,-10.23 -13.28,-13.48 -5.74,-3.16 -12.07,-4.76 -18.98,-4.76 -11.02,0 -19.92,3.55 -26.76,10.62 -6.84,7.07 -10.23,17.27 -10.23,30.51 z m 13.75,0 c 0,-10.08 2.18,-17.62 6.6,-22.62 4.41,-5 9.96,-7.5 16.64,-7.5 6.68,0 12.15,2.5 16.48,7.5 4.42,5.08 6.64,12.78 6.64,23.13 0,9.72 -2.22,17.11 -6.64,22.11 -4.41,5 -9.92,7.5 -16.48,7.5 -6.68,0 -12.23,-2.5 -16.64,-7.5 -4.42,-5 -6.6,-12.54 -6.6,-22.62 z m 74.25,-39.37 0,78.86 12,0 0,-11.25 c 5.82,8.67 14.21,13.01 25.11,13.01 4.77,0 9.14,-0.9 13.13,-2.62 3.98,-1.68 6.95,-3.94 8.86,-6.75 2,-2.78 3.44,-6.02 4.26,-9.77 0.51,-2.5 0.74,-6.84 0.74,-13.01 l 0,-48.47 -13.35,0 0,48 c 0,5.39 -0.55,9.46 -1.65,12.11 -0.97,2.74 -2.81,4.92 -5.5,6.49 -2.66,1.6 -5.78,2.38 -9.38,2.38 -5.66,0 -10.54,-1.8 -14.72,-5.35 -4.11,-3.6 -6.14,-10.47 -6.14,-20.63 l 0,-43 -13.36,0 z"
         id="path3255"
         style="fill:#000000;fill-opacity:1;fill-rule:nonzero;stroke:none" /><path
         d="m 2899.41,3262.3 -10.46,0 0,91.65 11.25,0 0,-32.66 c 4.72,5.94 10.82,8.91 18.24,8.91 4.06,0 7.89,-0.86 11.48,-2.5 3.67,-1.61 6.68,-3.91 9.03,-6.88 2.38,-3.01 4.25,-6.64 5.62,-10.9 1.33,-4.14 1.99,-8.63 1.99,-13.36 0,-11.4 -2.85,-20.27 -8.51,-26.52 -5.59,-6.13 -12.35,-9.22 -20.24,-9.22 -7.85,0 -13.98,3.28 -18.4,9.84 l 0,-8.36 z m -0.11,33.75 c 0,-8 1.09,-13.75 3.24,-17.26 3.51,-5.82 8.32,-8.75 14.37,-8.75 4.93,0 9.18,2.15 12.78,6.41 3.55,4.33 5.35,10.7 5.35,19.1 0,8.67 -1.72,15.04 -5.24,19.14 -3.43,4.14 -7.53,6.25 -12.38,6.25 -4.92,0 -9.18,-2.15 -12.73,-6.37 -3.6,-4.26 -5.39,-10.43 -5.39,-18.52 z m 56.68,-0.5 c 0,12.26 3.43,21.33 10.27,27.26 5.74,4.92 12.7,7.39 20.86,7.39 9.18,0 16.64,-3.01 22.38,-9.03 5.82,-5.9 8.75,-14.14 8.75,-24.72 0,-8.52 -1.29,-15.24 -3.86,-20.16 -2.58,-4.88 -6.33,-8.75 -11.26,-11.49 -4.84,-2.65 -10.19,-3.98 -16.01,-3.98 -9.26,0 -16.76,2.93 -22.5,8.87 -5.74,5.97 -8.63,14.61 -8.63,25.86 z m 11.64,0 c 0,-8.48 1.83,-14.89 5.5,-19.1 3.76,-4.26 8.4,-6.41 13.99,-6.41 5.59,0 10.19,2.15 13.87,6.41 3.75,4.21 5.62,10.74 5.62,19.49 0,8.16 -1.87,14.37 -5.62,18.63 -3.68,4.22 -8.28,6.37 -13.87,6.37 -5.59,0 -10.23,-2.15 -13.99,-6.37 -3.67,-4.18 -5.5,-10.51 -5.5,-19.02 z m 106.79,-33.25 0,8.36 c -4.14,-6.56 -10.31,-9.84 -18.47,-9.84 -5.35,0 -10.24,1.45 -14.65,4.38 -4.41,2.89 -7.85,6.99 -10.35,12.22 -2.42,5.28 -3.64,11.25 -3.64,18.01 0,6.68 1.1,12.66 3.25,18.01 2.26,5.39 5.58,9.53 10,12.38 4.41,2.89 9.37,4.38 14.88,4.38 3.98,0 7.54,-0.86 10.62,-2.5 3.17,-1.68 5.71,-3.91 7.62,-6.65 l 0,32.9 11.25,0 0,-91.65 -10.51,0 z m -35.46,33.13 c 0,-8.52 1.75,-14.88 5.35,-19.14 3.59,-4.14 7.81,-6.25 12.61,-6.25 4.93,0 9.11,2.03 12.5,6.01 3.52,4.11 5.28,10.24 5.28,18.52 0,9.06 -1.76,15.74 -5.28,20 -3.47,4.22 -7.81,6.37 -12.96,6.37 -5,0 -9.18,-2.03 -12.5,-6.14 -3.36,-4.1 -5,-10.54 -5,-19.37 z m 63.16,-58.75 -1.25,10.62 c 2.42,-0.66 4.53,-1.01 6.37,-1.01 2.5,0 4.53,0.43 6.01,1.25 1.49,0.86 2.74,2.03 3.75,3.51 0.67,1.1 1.8,3.87 3.36,8.36 0.27,0.59 0.59,1.53 1.02,2.78 l -25.12,66.48 12.11,0 13.75,-38.36 c 1.84,-4.92 3.48,-10.04 4.88,-15.39 1.25,5.16 2.78,10.24 4.61,15.12 l 14.14,38.63 11.25,0 -25.23,-67.5 c -2.7,-7.34 -4.77,-12.38 -6.25,-15.12 -2.03,-3.67 -4.3,-6.36 -6.88,-8.12 -2.61,-1.76 -5.7,-2.62 -9.25,-2.62 -2.19,0 -4.61,0.47 -7.27,1.37 z"
         id="path3257"
         style="fill:#000000;fill-opacity:1;fill-rule:nonzero;stroke:none" /><path
         d="m 2243.4,2644.73 c 0,91.09 233.28,164.92 521.09,164.92 287.78,0 521.06,-73.83 521.06,-164.92 0,-91.06 -233.28,-164.89 -521.06,-164.89 -287.81,0 -521.09,73.83 -521.09,164.89 z"
         id="path3259"
         style="fill:none;stroke:#000000;stroke-width:8;stroke-linecap:butt;stroke-linejoin:round;stroke-miterlimit:10;stroke-opacity:1;stroke-dasharray:none" /><path
         d="m 2558.59,2619.26 11.64,-1.41 c -1.83,-6.83 -5.27,-12.11 -10.27,-15.86 -4.88,-3.75 -11.21,-5.62 -18.87,-5.62 -9.72,0 -17.46,3.01 -23.12,8.98 -5.67,6.02 -8.48,14.38 -8.48,25.16 0,11.13 2.85,19.8 8.6,25.97 5.78,6.18 13.24,9.26 22.38,9.26 8.83,0 16.05,-3.04 21.64,-9.14 5.66,-5.98 8.48,-14.45 8.48,-25.35 l 0,-3.01 -49.5,0 c 0.43,-7.34 2.46,-12.97 6.14,-16.87 3.75,-3.83 8.36,-5.75 13.86,-5.75 4.18,0 7.74,1.06 10.63,3.25 2.93,2.15 5.23,5.62 6.87,10.39 z m -36.87,18.24 36.99,0 c -0.47,5.59 -1.91,9.73 -4.22,12.5 -3.59,4.34 -8.24,6.48 -13.9,6.48 -5.16,0 -9.54,-1.75 -13.13,-5.23 -3.48,-3.44 -5.39,-8.01 -5.74,-13.75 z m 55.19,-39.65 24.26,34.53 -22.5,31.88 14.1,0 10.16,-15.51 c 1.91,-3.01 3.44,-5.51 4.61,-7.5 1.84,2.73 3.55,5.2 5.12,7.38 l 11.13,15.63 13.51,0 -23,-31.25 24.72,-35.16 -13.86,0 -13.64,20.63 -3.59,5.62 -17.38,-26.25 -13.64,0 z m 74.61,53.63 0,12.78 12.78,0 0,-12.78 -12.78,0 z m 0,-53.63 0,12.89 12.78,0 0,-12.89 -12.78,0 z m 42.82,0 -10.47,0 0,91.64 11.25,0 0,-32.61 c 4.72,5.89 10.82,8.86 18.24,8.86 4.06,0 7.89,-0.82 11.48,-2.5 3.68,-1.6 6.68,-3.86 9.03,-6.87 2.38,-3.01 4.25,-6.64 5.62,-10.86 1.33,-4.18 1.99,-8.63 1.99,-13.4 0,-11.41 -2.85,-20.23 -8.51,-26.49 -5.59,-6.17 -12.35,-9.25 -20.24,-9.25 -7.85,0 -13.98,3.28 -18.39,9.88 l 0,-8.4 z m -0.12,33.75 c 0,-7.97 1.09,-13.75 3.24,-17.22 3.52,-5.86 8.32,-8.76 14.38,-8.76 4.92,0 9.18,2.11 12.77,6.37 3.59,4.34 5.35,10.71 5.35,19.14 0,8.64 -1.72,15.04 -5.23,19.1 -3.4,4.18 -7.54,6.25 -12.39,6.25 -4.92,0 -9.14,-2.1 -12.73,-6.36 -3.59,-4.26 -5.39,-10.43 -5.39,-18.52 z m 56.68,-0.47 c 0,12.23 3.44,21.33 10.27,27.23 5.74,4.92 12.7,7.38 20.86,7.38 9.18,0 16.64,-3.01 22.38,-8.98 5.82,-5.94 8.75,-14.18 8.75,-24.77 0,-8.51 -1.28,-15.19 -3.86,-20.11 -2.58,-4.93 -6.33,-8.76 -11.25,-11.53 -4.85,-2.65 -10.16,-3.98 -16.02,-3.98 -9.26,0 -16.76,2.97 -22.5,8.86 -5.74,6.02 -8.63,14.65 -8.63,25.9 z m 11.64,0 c 0,-8.51 1.84,-14.88 5.51,-19.14 3.75,-4.26 8.4,-6.37 13.98,-6.37 5.59,0 10.24,2.11 13.87,6.37 3.75,4.26 5.62,10.74 5.62,19.49 0,8.17 -1.87,14.38 -5.62,18.64 -3.63,4.26 -8.28,6.36 -13.87,6.36 -5.58,0 -10.23,-2.1 -13.98,-6.36 -3.67,-4.18 -5.51,-10.51 -5.51,-18.99 z m 106.8,-33.28 0,8.4 c -4.14,-6.6 -10.32,-9.88 -18.48,-9.88 -5.35,0 -10.24,1.44 -14.65,4.37 -4.41,2.93 -7.85,6.99 -10.35,12.27 -2.42,5.23 -3.63,11.25 -3.63,17.97 0,6.68 1.09,12.69 3.24,18 2.26,5.43 5.58,9.54 10,12.39 4.41,2.93 9.37,4.37 14.88,4.37 3.99,0 7.54,-0.82 10.63,-2.5 3.16,-1.68 5.7,-3.86 7.61,-6.64 l 0,32.89 11.25,0 0,-91.64 -10.5,0 z m -35.47,33.13 c 0,-8.48 1.75,-14.85 5.35,-19.1 3.59,-4.18 7.81,-6.26 12.62,-6.26 4.92,0 9.1,2 12.5,5.98 3.51,4.1 5.27,10.28 5.27,18.52 0,9.06 -1.76,15.74 -5.27,20 -3.48,4.26 -7.82,6.36 -12.97,6.36 -5,0 -9.18,-2.03 -12.5,-6.13 -3.36,-4.06 -5,-10.55 -5,-19.37 z m 63.16,-58.75 -1.25,10.62 c 2.42,-0.66 4.53,-0.97 6.37,-0.97 2.5,0 4.53,0.39 6.01,1.24 1.49,0.83 2.74,2 3.75,3.48 0.67,1.1 1.8,3.91 3.36,8.4 0.28,0.59 0.59,1.48 1.02,2.73 l -25.12,66.53 12.11,0 13.75,-38.4 c 1.84,-4.92 3.48,-10.04 4.88,-15.35 1.25,5.15 2.78,10.19 4.61,15.11 l 14.14,38.64 11.25,0 -25.23,-67.5 c -2.7,-7.35 -4.77,-12.38 -6.25,-15.16 -2.03,-3.67 -4.3,-6.37 -6.88,-8.12 -2.61,-1.72 -5.66,-2.62 -9.25,-2.62 -2.19,0 -4.61,0.47 -7.27,1.37 z m 103.75,25.62 -11.25,0 0,71.76 c -2.73,-2.58 -6.33,-5.16 -10.74,-7.73 -4.34,-2.58 -8.24,-4.58 -11.76,-5.9 l 0,10.9 c 6.25,3 11.72,6.56 16.37,10.74 4.76,4.26 8.12,8.32 10.15,12.26 l 7.23,0 0,-92.03 z"
         id="path3261"
         style="fill:#000000;fill-opacity:1;fill-rule:nonzero;stroke:none" /><path
         d="m 3839.8,2288.44 c 0,91.09 224.5,164.92 501.41,164.92 276.91,0 501.41,-73.83 501.41,-164.92 0,-91.1 -224.5,-164.92 -501.41,-164.92 -276.91,0 -501.41,73.82 -501.41,164.92 z"
         id="path3263"
         style="fill:none;stroke:#000000;stroke-width:8;stroke-linecap:butt;stroke-linejoin:round;stroke-miterlimit:10;stroke-opacity:1;stroke-dasharray:none" /><path
         d="m 4124.65,2262.93 11.6,-1.37 c -1.8,-6.83 -5.23,-12.11 -10.23,-15.86 -4.93,-3.75 -11.22,-5.62 -18.87,-5.62 -9.77,0 -17.46,2.97 -23.13,8.98 -5.66,6.02 -8.51,14.38 -8.51,25.12 0,11.17 2.89,19.84 8.63,26.02 5.74,6.17 13.2,9.25 22.38,9.25 8.83,0 16.06,-3.04 21.6,-9.14 5.71,-6.01 8.52,-14.45 8.52,-25.39 l 0,-2.97 -49.49,0 c 0.43,-7.34 2.46,-12.97 6.13,-16.87 3.75,-3.87 8.36,-5.78 13.87,-5.78 4.18,0 7.69,1.09 10.62,3.28 2.93,2.15 5.2,5.62 6.88,10.35 z m -36.88,18.24 37,0 c -0.51,5.59 -1.92,9.77 -4.26,12.5 -3.56,4.34 -8.21,6.53 -13.87,6.53 -5.16,0 -9.53,-1.76 -13.12,-5.28 -3.52,-3.4 -5.43,-7.97 -5.75,-13.75 z m 55.2,-39.61 24.22,34.49 -22.5,31.88 14.14,0 10.12,-15.51 c 1.91,-2.97 3.47,-5.47 4.64,-7.5 1.84,2.78 3.52,5.24 5.12,7.38 l 11.13,15.63 13.48,0 -23.01,-31.25 24.77,-35.12 -13.87,0 -13.63,20.63 -3.63,5.62 -17.39,-26.25 -13.59,0 z m 74.61,53.64 0,12.73 12.73,0 0,-12.73 -12.73,0 z m 0,-53.64 0,12.89 12.73,0 0,-12.89 -12.73,0 z m 32.42,-25.51 0,91.88 10.27,0 0,-8.63 c 2.43,3.43 5.12,5.97 8.13,7.65 3.08,1.64 6.8,2.5 11.13,2.5 5.67,0 10.67,-1.48 15,-4.37 4.34,-2.93 7.58,-7.07 9.73,-12.38 2.26,-5.28 3.4,-11.06 3.4,-17.39 0,-6.83 -1.25,-12.97 -3.75,-18.36 -2.43,-5.43 -5.98,-9.61 -10.63,-12.5 -4.61,-2.93 -9.45,-4.37 -14.65,-4.37 -3.75,0 -7.11,0.78 -10.11,2.34 -2.93,1.6 -5.32,3.6 -7.27,6.02 l 0,-32.39 -11.25,0 z m 10.16,58.4 c 0,-8.59 1.68,-14.92 5.11,-19.02 3.48,-4.06 7.7,-6.13 12.62,-6.13 5,0 9.3,2.15 12.89,6.4 3.56,4.22 5.35,10.78 5.35,19.61 0,8.52 -1.75,14.85 -5.23,18.99 -3.52,4.25 -7.66,6.4 -12.5,6.4 -4.77,0 -9.02,-2.26 -12.78,-6.75 -3.63,-4.5 -5.46,-11.02 -5.46,-19.5 z m 104.29,-24.65 c -4.18,-3.59 -8.16,-6.13 -11.99,-7.61 -3.83,-1.41 -7.97,-2.11 -12.38,-2.11 -7.35,0 -12.97,1.76 -16.88,5.35 -3.9,3.59 -5.86,8.12 -5.86,13.63 0,3.24 0.75,6.21 2.23,8.87 1.52,2.77 3.44,4.92 5.74,6.52 2.42,1.64 5.16,2.89 8.13,3.75 2.26,0.55 5.58,1.1 10,1.6 9.1,1.1 15.82,2.39 20.15,3.87 l 0,3.01 c 0,4.57 -1.05,7.81 -3.12,9.65 -2.93,2.58 -7.23,3.87 -12.89,3.87 -5.24,0 -9.18,-0.98 -11.76,-2.9 -2.5,-1.83 -4.34,-5.07 -5.51,-9.72 l -10.97,1.48 c 0.97,4.65 2.61,8.44 4.88,11.37 2.3,2.93 5.66,5.12 10,6.64 4.33,1.56 9.33,2.38 15,2.38 5.66,0 10.23,-0.7 13.75,-2.03 3.55,-1.33 6.21,-2.97 7.85,-5 1.68,-1.99 2.85,-4.53 3.52,-7.62 0.43,-1.91 0.62,-5.35 0.62,-10.35 l 0,-15 c 0,-10.5 0.2,-17.15 0.63,-19.88 0.5,-2.77 1.44,-5.43 2.85,-8.01 l -11.72,0 c -1.17,2.35 -1.92,5.08 -2.27,8.24 z m -0.86,25.12 c -4.1,-1.64 -10.23,-3.08 -18.39,-4.22 -4.65,-0.7 -7.93,-1.44 -9.89,-2.26 -1.91,-0.82 -3.4,-2.07 -4.49,-3.75 -0.98,-1.6 -1.48,-3.32 -1.48,-5.24 0,-3 1.13,-5.5 3.36,-7.5 2.34,-2.03 5.66,-3 10,-3 4.33,0 8.16,0.89 11.52,2.73 3.4,1.91 5.9,4.53 7.5,7.89 1.25,2.5 1.87,6.25 1.87,11.25 l 0,4.1 z m 26.68,-38.87 10.98,-1.6 c 0.43,-3.43 1.68,-5.9 3.75,-7.38 2.85,-2.11 6.68,-3.12 11.52,-3.12 5.16,0 9.18,1.01 12,3.12 2.85,2.07 4.76,5 5.74,8.75 0.58,2.23 0.9,7.07 0.9,14.49 -4.93,-5.82 -11.06,-8.75 -18.4,-8.75 -9.14,0 -16.25,3.28 -21.25,9.89 -5,6.56 -7.5,14.49 -7.5,23.75 0,6.32 1.13,12.14 3.4,17.5 2.3,5.31 5.66,9.45 10,12.38 4.41,2.89 9.53,4.37 15.35,4.37 7.85,0 14.29,-3.2 19.37,-9.53 l 0,8.01 10.39,0 0,-57.38 c 0,-10.32 -1.05,-17.66 -3.12,-22 -2.07,-4.33 -5.43,-7.73 -10,-10.23 -4.57,-2.5 -10.2,-3.75 -16.88,-3.75 -7.93,0 -14.33,1.8 -19.25,5.35 -4.85,3.6 -7.15,8.99 -7,16.13 z m 9.38,39.89 c 0,-8.67 1.72,-15 5.12,-18.99 3.51,-4.02 7.85,-6.01 13,-6.01 5.16,0 9.5,1.95 13.01,5.86 3.48,4.02 5.24,10.27 5.24,18.75 0,8.16 -1.8,14.29 -5.4,18.4 -3.55,4.14 -7.89,6.25 -12.96,6.25 -5,0 -9.26,-2.08 -12.78,-6.14 -3.47,-4.1 -5.23,-10.11 -5.23,-18.12 z m 109.3,-13.01 11.64,-1.37 c -1.84,-6.83 -5.28,-12.11 -10.28,-15.86 -4.88,-3.75 -11.17,-5.62 -18.86,-5.62 -9.73,0 -17.47,2.97 -23.13,8.98 -5.66,6.02 -8.48,14.38 -8.48,25.12 0,11.17 2.86,19.84 8.6,26.02 5.78,6.17 13.24,9.25 22.38,9.25 8.83,0 16.06,-3.04 21.64,-9.14 5.66,-6.01 8.48,-14.45 8.48,-25.39 l 0,-2.97 -49.49,0 c 0.43,-7.34 2.46,-12.97 6.13,-16.87 3.75,-3.87 8.36,-5.78 13.87,-5.78 4.17,0 7.73,1.09 10.62,3.28 2.93,2.15 5.23,5.62 6.88,10.35 z m -36.88,18.24 36.99,0 c -0.47,5.59 -1.91,9.77 -4.22,12.5 -3.59,4.34 -8.2,6.53 -13.9,6.53 -5.16,0 -9.53,-1.76 -13.13,-5.28 -3.47,-3.4 -5.39,-7.97 -5.74,-13.75 z m 54.81,-39.61 35.39,47.74 -31.25,43.9 14.49,0 16.64,-23.51 c 3.4,-4.85 5.86,-8.6 7.38,-11.25 1.99,3.32 4.42,6.83 7.23,10.51 l 18.4,24.25 13.24,0 -32.27,-43.12 34.77,-48.52 -15,0 -23.13,32.74 c -1.25,1.83 -2.57,3.9 -4.02,6.13 -1.99,-3.32 -3.44,-5.63 -4.37,-6.88 l -22.97,-31.99 -14.53,0 z"
         id="path3265"
         style="fill:#000000;fill-opacity:1;fill-rule:nonzero;stroke:none" /><path
         d="m 4952.34,2288.44 c 0,91.09 204.11,164.92 455.82,164.92 251.76,0 455.82,-73.83 455.82,-164.92 0,-91.1 -204.06,-164.92 -455.82,-164.92 -251.71,0 -455.82,73.82 -455.82,164.92 z"
         id="path3267"
         style="fill:none;stroke:#000000;stroke-width:8;stroke-linecap:butt;stroke-linejoin:round;stroke-miterlimit:10;stroke-opacity:1;stroke-dasharray:none" /><path
         d="m 5220.16,2262.93 11.64,-1.37 c -1.84,-6.83 -5.24,-12.11 -10.24,-15.86 -4.92,-3.75 -11.21,-5.62 -18.9,-5.62 -9.73,0 -17.46,2.97 -23.13,8.98 -5.66,6.02 -8.48,14.38 -8.48,25.12 0,11.17 2.86,19.84 8.64,26.02 5.74,6.17 13.2,9.25 22.34,9.25 8.83,0 16.06,-3.04 21.64,-9.14 5.67,-6.01 8.52,-14.45 8.52,-25.39 l 0,-2.97 -49.53,0 c 0.43,-7.34 2.46,-12.97 6.13,-16.87 3.75,-3.87 8.4,-5.78 13.87,-5.78 4.18,0 7.73,1.09 10.62,3.28 2.93,2.15 5.24,5.62 6.88,10.35 z m -36.88,18.24 37.03,0 c -0.51,5.59 -1.95,9.77 -4.26,12.5 -3.59,4.34 -8.2,6.53 -13.86,6.53 -5.2,0 -9.57,-1.76 -13.13,-5.28 -3.51,-3.4 -5.43,-7.97 -5.78,-13.75 z m 55.2,-39.61 24.25,34.49 -22.5,31.88 14.15,0 10.11,-15.51 c 1.92,-2.97 3.44,-5.47 4.61,-7.5 1.84,2.78 3.56,5.24 5.12,7.38 l 11.13,15.63 13.52,0 -23.01,-31.25 24.76,-35.12 -13.9,0 -13.6,20.63 -3.63,5.62 -17.38,-26.25 -13.63,0 z m 74.64,53.64 0,12.73 12.74,0 0,-12.73 -12.74,0 z m 0,-53.64 0,12.89 12.74,0 0,-12.89 -12.74,0 z m 32.43,78.75 0,12.89 11.25,0 0,-12.89 -11.25,0 z m 0,-78.75 0,66.37 11.25,0 0,-66.37 -11.25,0 z m 52.93,10.12 1.64,-10 c -3.17,-0.66 -6.02,-0.98 -8.52,-0.98 -4.06,0 -7.22,0.63 -9.49,1.88 -2.27,1.33 -3.83,3.01 -4.77,5.12 -0.89,2.14 -1.36,6.6 -1.36,13.35 l 0,38.13 -8.25,0 0,8.75 8.25,0 0,16.52 11.25,6.72 0,-23.24 11.25,0 0,-8.75 -11.25,0 0,-38.75 c 0,-3.24 0.15,-5.31 0.5,-6.25 0.43,-0.9 1.1,-1.68 2,-2.23 0.93,-0.5 2.22,-0.78 3.86,-0.78 1.25,0 2.89,0.2 4.89,0.51 z m 56.44,11.25 11.64,-1.37 c -1.83,-6.83 -5.27,-12.11 -10.27,-15.86 -4.92,-3.75 -11.21,-5.62 -18.87,-5.62 -9.76,0 -17.46,2.97 -23.12,8.98 -5.67,6.02 -8.52,14.38 -8.52,25.12 0,11.17 2.89,19.84 8.63,26.02 5.75,6.17 13.21,9.25 22.39,9.25 8.82,0 16.05,-3.04 21.64,-9.14 5.66,-6.01 8.47,-14.45 8.47,-25.39 l 0,-2.97 -49.49,0 c 0.43,-7.34 2.46,-12.97 6.13,-16.87 3.75,-3.87 8.36,-5.78 13.87,-5.78 4.18,0 7.7,1.09 10.63,3.28 2.93,2.15 5.19,5.62 6.87,10.35 z m -36.87,18.24 36.99,0 c -0.51,5.59 -1.92,9.77 -4.26,12.5 -3.55,4.34 -8.2,6.53 -13.87,6.53 -5.15,0 -9.53,-1.76 -13.12,-5.28 -3.48,-3.4 -5.43,-7.97 -5.74,-13.75 z m 62.69,-39.61 0,66.37 10,0 0,-9.26 c 2.07,3.28 4.81,5.86 8.24,7.78 3.52,1.99 7.47,3 11.88,3 4.92,0 8.94,-1.05 12.11,-3.12 3.16,-2.03 5.39,-4.85 6.64,-8.52 5.23,7.74 12.07,11.64 20.51,11.64 6.56,0 11.6,-1.83 15.11,-5.5 3.6,-3.6 5.39,-9.18 5.39,-16.76 l 0,-45.63 -11.13,0 0,41.88 c 0,4.49 -0.39,7.69 -1.13,9.61 -0.74,2.03 -2.07,3.59 -3.98,4.76 -1.96,1.25 -4.18,1.88 -6.76,1.88 -4.69,0 -8.56,-1.57 -11.64,-4.61 -3.09,-3.09 -4.61,-8.05 -4.61,-14.88 l 0,-38.64 -11.25,0 0,43.13 c 0,5 -0.94,8.75 -2.78,11.25 -1.83,2.5 -4.8,3.75 -8.98,3.75 -3.16,0 -6.09,-0.82 -8.75,-2.5 -2.66,-1.68 -4.61,-4.14 -5.86,-7.39 -1.17,-3.16 -1.76,-7.73 -1.76,-13.75 l 0,-34.49 -11.25,0 z m 145.86,0 -11.25,0 0,71.76 c -2.73,-2.58 -6.33,-5.2 -10.74,-7.77 -4.34,-2.58 -8.24,-4.53 -11.76,-5.86 l 0,10.86 c 6.25,3 11.72,6.6 16.37,10.78 4.76,4.22 8.12,8.32 10.16,12.22 l 7.22,0 0,-91.99 z"
         id="path3269"
         style="fill:#000000;fill-opacity:1;fill-rule:nonzero;stroke:none" /><path
         d="m 4925.55,2675.55 11.13,1.75 c 0.59,-4.53 2.27,-7.96 5.12,-10.39 2.93,-2.34 6.91,-3.51 11.99,-3.51 5.16,0 9.02,1.05 11.52,3.12 2.5,2.19 3.75,4.69 3.75,7.5 0,2.5 -1.09,4.53 -3.28,6.02 -1.56,1.01 -5.39,2.26 -11.48,3.75 -8.25,2.07 -13.99,3.87 -17.27,5.39 -3.16,1.56 -5.58,3.71 -7.23,6.37 -1.6,2.65 -2.38,5.62 -2.38,8.86 0,3.01 0.67,5.75 1.99,8.25 1.33,2.5 3.17,4.61 5.51,6.25 1.76,1.32 4.14,2.42 7.11,3.24 3.09,0.94 6.33,1.4 9.77,1.4 5.23,0 9.84,-0.78 13.75,-2.26 3.9,-1.49 6.79,-3.56 8.63,-6.13 1.91,-2.5 3.24,-5.9 3.98,-10.24 l -10.97,-1.52 c -0.51,3.44 -1.99,6.09 -4.38,8.01 -2.42,1.91 -5.82,2.89 -10.15,2.89 -5.16,0 -8.87,-0.9 -11.1,-2.62 -2.18,-1.68 -3.28,-3.63 -3.28,-5.9 0,-1.48 0.47,-2.81 1.41,-3.98 0.9,-1.18 2.3,-2.19 4.22,-3.01 1.17,-0.43 4.53,-1.37 10,-2.89 7.93,-2.07 13.47,-3.83 16.64,-5.24 3.16,-1.32 5.62,-3.28 7.38,-5.86 1.84,-2.61 2.73,-5.82 2.73,-9.64 0,-3.75 -1.13,-7.27 -3.36,-10.63 -2.18,-3.24 -5.35,-5.78 -9.49,-7.62 -4.1,-1.83 -8.71,-2.73 -13.9,-2.73 -8.68,0 -15.24,1.76 -19.73,5.35 -4.49,3.59 -7.38,8.91 -8.63,16.02 z m 111.75,4.49 11.14,-1.49 c -1.25,-7.61 -4.38,-13.55 -9.38,-17.89 -4.92,-4.33 -11.01,-6.48 -18.28,-6.48 -9.06,0 -16.4,2.93 -21.99,8.87 -5.51,5.97 -8.24,14.53 -8.24,25.62 0,7.15 1.17,13.4 3.51,18.75 2.39,5.39 6.02,9.46 10.86,12.11 4.92,2.66 10.2,4.02 15.86,4.02 7.27,0 13.17,-1.83 17.77,-5.5 4.57,-3.6 7.5,-8.75 8.75,-15.51 l -10.89,-1.64 c -1.06,4.41 -2.93,7.77 -5.63,10 -2.58,2.26 -5.74,3.4 -9.49,3.4 -5.67,0 -10.27,-2.03 -13.87,-6.14 -3.51,-3.98 -5.23,-10.43 -5.23,-19.25 0,-8.91 1.68,-15.39 5.11,-19.5 3.4,-3.98 7.86,-6.01 13.36,-6.01 4.42,0 8.09,1.37 11.02,4.02 3.01,2.74 4.88,6.96 5.62,12.62 z m 16.49,8.87 c 0,12.26 3.44,21.32 10.27,27.26 5.74,4.92 12.7,7.38 20.86,7.38 9.18,0 16.64,-3 22.38,-9.02 5.82,-5.9 8.75,-14.14 8.75,-24.73 0,-8.51 -1.28,-15.23 -3.86,-20.15 -2.62,-4.88 -6.37,-8.75 -11.25,-11.49 -4.85,-2.65 -10.2,-3.98 -16.02,-3.98 -9.26,0 -16.76,2.93 -22.5,8.87 -5.74,5.97 -8.63,14.61 -8.63,25.86 z m 11.64,0 c 0,-8.48 1.84,-14.89 5.51,-19.11 3.75,-4.25 8.4,-6.4 13.98,-6.4 5.59,0 10.2,2.15 13.87,6.4 3.75,4.22 5.62,10.75 5.62,19.5 0,8.16 -1.87,14.37 -5.62,18.63 -3.67,4.22 -8.28,6.37 -13.87,6.37 -5.58,0 -10.23,-2.15 -13.98,-6.37 -3.67,-4.18 -5.51,-10.51 -5.51,-19.02 z m 63.79,-58.75 0,91.87 10.27,0 0,-8.63 c 2.42,3.44 5.12,5.98 8.13,7.65 3.08,1.65 6.79,2.5 11.13,2.5 5.66,0 10.66,-1.48 15,-4.37 4.3,-2.93 7.58,-7.07 9.73,-12.38 2.26,-5.28 3.4,-11.06 3.4,-17.39 0,-6.83 -1.26,-12.96 -3.76,-18.36 -2.42,-5.43 -5.97,-9.6 -10.62,-12.5 -4.61,-2.93 -9.49,-4.37 -14.65,-4.37 -3.75,0 -7.11,0.78 -10.12,2.34 -2.93,1.6 -5.35,3.6 -7.26,6.02 l 0,-32.38 -11.25,0 z m 10.16,58.39 c 0,-8.59 1.67,-14.92 5.11,-19.02 3.48,-4.06 7.7,-6.13 12.62,-6.13 5,0 9.3,2.15 12.89,6.4 3.55,4.22 5.35,10.79 5.35,19.61 0,8.52 -1.76,14.85 -5.23,18.99 -3.52,4.26 -7.7,6.4 -12.5,6.4 -4.77,0 -9.03,-2.26 -12.78,-6.75 -3.67,-4.5 -5.46,-11.02 -5.46,-19.5 z m 106.4,-11.52 11.64,-1.37 c -1.83,-6.83 -5.23,-12.11 -10.23,-15.86 -4.92,-3.75 -11.21,-5.62 -18.91,-5.62 -9.73,0 -17.46,2.97 -23.12,8.98 -5.67,6.02 -8.48,14.38 -8.48,25.12 0,11.17 2.85,19.84 8.63,26.02 5.74,6.17 13.21,9.25 22.35,9.25 8.82,0 16.05,-3.04 21.64,-9.14 5.66,-6.01 8.51,-14.45 8.51,-25.39 l 0,-2.97 -49.53,0 c 0.43,-7.34 2.46,-12.96 6.13,-16.87 3.75,-3.87 8.4,-5.78 13.87,-5.78 4.18,0 7.74,1.09 10.63,3.28 2.93,2.15 5.23,5.62 6.87,10.35 z m -36.87,18.24 37.03,0 c -0.51,5.59 -1.96,9.77 -4.26,12.5 -3.59,4.34 -8.2,6.53 -13.87,6.53 -5.19,0 -9.57,-1.76 -13.12,-5.28 -3.52,-3.4 -5.43,-7.97 -5.78,-13.75 z"
         id="path3271"
         style="fill:#000000;fill-opacity:1;fill-rule:nonzero;stroke:none" /><path
         d="m 4201.91,2684.96 11.14,1.76 c 0.58,-4.49 2.3,-7.97 5.11,-10.39 2.93,-2.31 6.92,-3.48 12,-3.48 5.19,0 9.02,1.02 11.52,3.13 2.5,2.14 3.75,4.64 3.75,7.5 0,2.5 -1.09,4.49 -3.24,5.97 -1.6,1.02 -5.43,2.27 -11.53,3.75 -8.24,2.11 -13.98,3.87 -17.22,5.39 -3.21,1.57 -5.59,3.71 -7.27,6.37 -1.6,2.66 -2.38,5.63 -2.38,8.87 0,3.01 0.66,5.74 1.99,8.24 1.33,2.5 3.17,4.61 5.51,6.25 1.76,1.37 4.14,2.42 7.15,3.28 3.04,0.9 6.33,1.37 9.72,1.37 5.28,0 9.85,-0.74 13.75,-2.27 3.91,-1.48 6.8,-3.51 8.64,-6.13 1.91,-2.5 3.24,-5.9 3.98,-10.23 l -10.98,-1.49 c -0.5,3.4 -1.95,6.06 -4.37,7.97 -2.42,1.95 -5.82,2.89 -10.12,2.89 -5.19,0 -8.9,-0.86 -11.13,-2.62 -2.19,-1.68 -3.24,-3.63 -3.24,-5.89 0,-1.49 0.43,-2.82 1.36,-3.99 0.9,-1.17 2.31,-2.15 4.26,-3.01 1.14,-0.39 4.49,-1.36 10,-2.85 7.89,-2.11 13.44,-3.83 16.6,-5.27 3.17,-1.33 5.63,-3.28 7.39,-5.86 1.83,-2.58 2.73,-5.78 2.73,-9.65 0,-3.75 -1.09,-7.27 -3.36,-10.62 -2.19,-3.25 -5.35,-5.79 -9.49,-7.62 -4.1,-1.84 -8.71,-2.74 -13.87,-2.74 -8.67,0 -15.27,1.8 -19.76,5.36 -4.5,3.59 -7.39,8.94 -8.64,16.01 z m 64.26,13.36 c 0,12.27 3.4,21.37 10.24,27.27 5.78,4.92 12.73,7.38 20.89,7.38 9.15,0 16.61,-3.01 22.39,-9.02 5.82,-5.9 8.75,-14.15 8.75,-24.73 0,-8.52 -1.33,-15.2 -3.91,-20.12 -2.58,-4.92 -6.33,-8.75 -11.25,-11.52 -4.8,-2.66 -10.16,-3.99 -15.98,-3.99 -9.25,0 -16.75,2.97 -22.5,8.87 -5.74,6.02 -8.63,14.61 -8.63,25.86 z m 11.64,0 c 0,-8.48 1.8,-14.84 5.47,-19.1 3.75,-4.26 8.44,-6.37 14.02,-6.37 5.59,0 10.2,2.11 13.87,6.37 3.75,4.26 5.63,10.74 5.63,19.49 0,8.17 -1.88,14.38 -5.63,18.63 -3.67,4.26 -8.28,6.37 -13.87,6.37 -5.58,0 -10.27,-2.11 -14.02,-6.37 -3.67,-4.18 -5.47,-10.5 -5.47,-19.02 z m 107.31,-33.24 0,9.76 c -5.2,-7.5 -12.23,-11.25 -21.14,-11.25 -3.9,0 -7.57,0.75 -11.01,2.23 -3.32,1.52 -5.82,3.4 -7.5,5.63 -1.64,2.34 -2.81,5.15 -3.48,8.39 -0.43,2.23 -0.62,5.75 -0.62,10.51 l 0,41.1 11.25,0 0,-36.72 c 0,-5.94 0.19,-9.89 0.62,-11.88 0.74,-3.01 2.23,-5.35 4.49,-7.03 2.35,-1.64 5.16,-2.5 8.52,-2.5 3.4,0 6.56,0.86 9.49,2.5 3.01,1.76 5.08,4.14 6.25,7.15 1.25,3.01 1.88,7.34 1.88,13.01 l 0,35.47 11.25,0 0,-66.37 -10,0 z m 27.54,0 0,66.37 10.15,0 0,-10 c 2.58,4.68 4.92,7.77 7.11,9.25 2.15,1.53 4.57,2.27 7.27,2.27 3.75,0 7.58,-1.21 11.48,-3.63 l -3.87,-10.39 c -2.77,1.6 -5.5,2.38 -8.24,2.38 -2.42,0 -4.65,-0.74 -6.64,-2.23 -1.91,-1.44 -3.28,-3.48 -4.14,-6.13 -1.25,-4.02 -1.87,-8.4 -1.87,-13.13 l 0,-34.76 -11.25,0 z m 86.01,24.37 11.13,-1.48 c -1.25,-7.58 -4.37,-13.56 -9.37,-17.89 -4.92,-4.34 -11.02,-6.49 -18.24,-6.49 -9.1,0 -16.45,2.97 -22.03,8.87 -5.47,6.02 -8.25,14.53 -8.25,25.63 0,7.18 1.18,13.43 3.52,18.75 2.42,5.43 6.02,9.45 10.86,12.11 4.92,2.69 10.19,4.02 15.9,4.02 7.22,0 13.16,-1.84 17.73,-5.51 4.57,-3.59 7.5,-8.75 8.75,-15.51 l -10.86,-1.6 c -1.09,4.42 -2.97,7.74 -5.62,10 -2.62,2.23 -5.78,3.36 -9.53,3.36 -5.67,0 -10.28,-2.03 -13.87,-6.13 -3.48,-3.99 -5.24,-10.39 -5.24,-19.26 0,-8.91 1.68,-15.39 5.12,-19.49 3.4,-3.99 7.89,-5.98 13.36,-5.98 4.42,0 8.09,1.33 11.02,3.99 3,2.73 4.88,6.95 5.62,12.61 z m 66.13,-3 11.61,-1.37 c -1.84,-6.84 -5.24,-12.11 -10.24,-15.86 -4.92,-3.75 -11.21,-5.63 -18.87,-5.63 -9.76,0 -17.46,3.01 -23.12,8.99 -5.66,6.01 -8.52,14.37 -8.52,25.12 0,11.17 2.89,19.84 8.64,26.01 5.74,6.17 13.2,9.26 22.38,9.26 8.83,0 16.02,-3.05 21.6,-9.14 5.67,-5.98 8.52,-14.45 8.52,-25.35 l 0,-3.01 -49.5,0 c 0.4,-7.35 2.47,-12.97 6.14,-16.88 3.75,-3.82 8.36,-5.74 13.86,-5.74 4.15,0 7.7,1.06 10.63,3.24 2.89,2.15 5.19,5.63 6.87,10.36 z m -36.87,18.28 36.99,0 c -0.51,5.58 -1.91,9.72 -4.26,12.5 -3.59,4.33 -8.2,6.48 -13.86,6.48 -5.16,0 -9.53,-1.76 -13.13,-5.23 -3.51,-3.44 -5.43,-8.01 -5.74,-13.75 z"
         id="path3273"
         style="fill:#000000;fill-opacity:1;fill-rule:nonzero;stroke:none" /><path
         d="m 4623.24,2974.77 c 0,68.59 57.31,124.21 127.97,124.21 33.95,0 66.52,-13.08 90.51,-36.4 24.02,-23.28 37.5,-54.88 37.5,-87.81 0,-68.64 -57.31,-124.22 -128.01,-124.22 -70.66,0 -127.97,55.58 -127.97,124.22 z"
         id="path3275"
         style="fill:#f4cccc;fill-opacity:1;fill-rule:nonzero;stroke:none" /><path
         d="m 4623.24,2974.77 c 0,68.59 57.31,124.21 127.97,124.21 33.95,0 66.52,-13.08 90.51,-36.4 24.02,-23.28 37.5,-54.88 37.5,-87.81 0,-68.64 -57.31,-124.22 -128.01,-124.22 -70.66,0 -127.97,55.58 -127.97,124.22 z"
         id="path3277"
         style="fill:none;stroke:#e06666;stroke-width:8;stroke-linecap:butt;stroke-linejoin:round;stroke-miterlimit:10;stroke-opacity:1;stroke-dasharray:none" /><path
         d="m 4402.81,3277.7 1.64,-10 c -3.16,-0.67 -6.01,-0.98 -8.51,-0.98 -4.06,0 -7.23,0.62 -9.49,1.87 -2.27,1.33 -3.83,3.05 -4.77,5.12 -0.9,2.15 -1.37,6.64 -1.37,13.36 l 0,38.13 -8.24,0 0,8.75 8.24,0 0,16.52 11.25,6.76 0,-23.28 11.25,0 0,-8.75 -11.25,0 0,-38.75 c 0,-3.25 0.16,-5.32 0.51,-6.25 0.43,-0.9 1.09,-1.65 1.99,-2.23 0.94,-0.51 2.23,-0.74 3.87,-0.74 1.25,0 2.89,0.15 4.88,0.47 z m 54.34,-1.88 c -4.18,-3.55 -8.2,-6.09 -12.03,-7.62 -3.83,-1.4 -7.93,-2.11 -12.35,-2.11 -7.34,0 -12.97,1.8 -16.87,5.36 -3.95,3.59 -5.9,8.12 -5.9,13.63 0,3.24 0.74,6.21 2.27,8.87 1.48,2.77 3.39,4.92 5.74,6.52 2.42,1.64 5.11,2.89 8.12,3.75 2.27,0.58 5.59,1.13 10,1.6 9.07,1.09 15.78,2.38 20.12,3.91 l 0,2.97 c 0,4.6 -1.05,7.81 -3.13,9.64 -2.92,2.58 -7.18,3.87 -12.85,3.87 -5.27,0 -9.18,-0.98 -11.75,-2.89 -2.5,-1.84 -4.34,-5.08 -5.51,-9.73 l -11.02,1.49 c 1.02,4.69 2.66,8.47 4.89,11.37 2.34,2.93 5.66,5.15 10,6.64 4.33,1.6 9.33,2.38 15,2.38 5.66,0 10.27,-0.67 13.74,-1.99 3.6,-1.37 6.22,-3.01 7.9,-5 1.64,-2.03 2.81,-4.57 3.47,-7.66 0.43,-1.91 0.63,-5.35 0.63,-10.35 l 0,-15 c 0,-10.51 0.23,-17.15 0.62,-19.88 0.51,-2.74 1.49,-5.43 2.89,-8.01 l -11.75,0 c -1.18,2.34 -1.92,5.08 -2.23,8.24 z m -0.9,25.16 c -4.06,-1.68 -10.2,-3.09 -18.36,-4.26 -4.69,-0.67 -7.97,-1.41 -9.88,-2.27 -1.92,-0.82 -3.44,-2.07 -4.49,-3.75 -1.02,-1.56 -1.53,-3.32 -1.53,-5.23 0,-3.01 1.13,-5.51 3.4,-7.5 2.31,-1.99 5.66,-3.01 10,-3.01 4.34,0 8.16,0.9 11.49,2.74 3.43,1.91 5.93,4.57 7.5,7.89 1.24,2.5 1.87,6.25 1.87,11.25 l 0,4.14 z m 28.71,-33.4 0,66.37 10.12,0 0,-10 c 2.58,4.68 4.96,7.77 7.11,9.25 2.19,1.53 4.57,2.27 7.26,2.27 3.75,0 7.58,-1.21 11.49,-3.63 l -3.87,-10.39 c -2.73,1.6 -5.51,2.38 -8.24,2.38 -2.42,0 -4.65,-0.74 -6.64,-2.23 -1.92,-1.44 -3.28,-3.48 -4.1,-6.13 -1.25,-4.02 -1.88,-8.4 -1.88,-13.13 l 0,-34.76 -11.25,0 z m 40.63,-5.51 10.97,-1.6 c 0.43,-3.44 1.68,-5.9 3.75,-7.38 2.85,-2.07 6.68,-3.13 11.53,-3.13 5.15,0 9.14,1.06 11.99,3.13 2.81,2.07 4.72,5 5.74,8.75 0.59,2.26 0.86,7.07 0.86,14.49 -4.92,-5.82 -11.02,-8.75 -18.36,-8.75 -9.18,0 -16.25,3.28 -21.25,9.88 -5,6.6 -7.5,14.49 -7.5,23.75 0,6.33 1.13,12.15 3.36,17.5 2.34,5.35 5.66,9.45 10,12.38 4.41,2.89 9.57,4.38 15.39,4.38 7.81,0 14.3,-3.17 19.38,-9.49 l 0,7.97 10.39,0 0,-57.35 c 0,-10.35 -1.06,-17.69 -3.13,-22.03 -2.11,-4.34 -5.43,-7.73 -10,-10.23 -4.61,-2.5 -10.23,-3.75 -16.87,-3.75 -7.93,0 -14.34,1.79 -19.26,5.39 -4.85,3.55 -7.19,8.94 -6.99,16.09 z m 9.37,39.88 c 0,-8.67 1.68,-15 5.12,-18.98 3.47,-4.02 7.81,-6.02 13.01,-6.02 5.15,0 9.49,1.96 12.96,5.9 3.52,3.99 5.28,10.24 5.28,18.75 0,8.17 -1.8,14.26 -5.39,18.36 -3.6,4.18 -7.93,6.25 -13.01,6.25 -5,0 -9.22,-2.03 -12.73,-6.13 -3.52,-4.06 -5.24,-10.12 -5.24,-18.13 z m 109.3,-13 11.64,-1.37 c -1.84,-6.84 -5.28,-12.11 -10.28,-15.86 -4.92,-3.75 -11.21,-5.63 -18.86,-5.63 -9.77,0 -17.46,3.01 -23.13,8.99 -5.66,6.01 -8.51,14.37 -8.51,25.12 0,11.17 2.89,19.84 8.63,26.01 5.74,6.17 13.2,9.26 22.38,9.26 8.83,0 16.06,-3.05 21.64,-9.14 5.67,-5.98 8.48,-14.45 8.48,-25.35 l 0,-3.01 -49.49,0 c 0.43,-7.35 2.46,-12.97 6.13,-16.88 3.75,-3.82 8.36,-5.74 13.87,-5.74 4.18,0 7.69,1.06 10.62,3.24 2.93,2.15 5.2,5.63 6.88,10.36 z m -36.88,18.28 37,0 c -0.51,5.58 -1.92,9.72 -4.26,12.5 -3.56,4.33 -8.21,6.48 -13.87,6.48 -5.16,0 -9.53,-1.76 -13.13,-5.23 -3.47,-3.44 -5.42,-8.01 -5.74,-13.75 z m 87.19,-29.53 1.64,-10 c -3.2,-0.67 -6.01,-0.98 -8.51,-0.98 -4.11,0 -7.27,0.62 -9.5,1.87 -2.26,1.33 -3.82,3.05 -4.76,5.12 -0.9,2.15 -1.37,6.64 -1.37,13.36 l 0,38.13 -8.24,0 0,8.75 8.24,0 0,16.52 11.25,6.76 0,-23.28 11.25,0 0,-8.75 -11.25,0 0,-38.75 c 0,-3.25 0.16,-5.32 0.51,-6.25 0.39,-0.9 1.05,-1.65 1.99,-2.23 0.9,-0.51 2.19,-0.74 3.87,-0.74 1.25,0 2.89,0.15 4.88,0.47 z"
         id="path3279"
         style="fill:#000000;fill-opacity:1;fill-rule:nonzero;stroke:none" /><path
         d="m 6148.4,2395 0,66.37 10.12,0 0,-10 c 2.57,4.65 4.96,7.73 7.1,9.25 2.19,1.49 4.61,2.23 7.27,2.23 3.75,0 7.58,-1.21 11.49,-3.59 l -3.87,-10.39 c -2.74,1.6 -5.51,2.38 -8.24,2.38 -2.43,0 -4.61,-0.74 -6.65,-2.27 -1.91,-1.4 -3.28,-3.43 -4.1,-6.13 -1.25,-3.98 -1.87,-8.36 -1.87,-13.12 l 0,-34.73 -11.25,0 z m 85.74,0 0,8.36 c -4.18,-6.56 -10.35,-9.88 -18.52,-9.88 -5.31,0 -10.19,1.48 -14.6,4.37 -4.42,2.93 -7.9,7.03 -10.4,12.27 -2.42,5.23 -3.59,11.25 -3.59,18 0,6.65 1.06,12.66 3.24,18.01 2.23,5.39 5.59,9.53 10,12.35 4.42,2.93 9.38,4.37 14.89,4.37 3.98,0 7.54,-0.82 10.62,-2.5 3.17,-1.64 5.7,-3.87 7.62,-6.6 l 0,32.85 11.25,0 0,-91.6 -10.51,0 z m -35.51,33.12 c 0,-8.51 1.8,-14.88 5.39,-19.14 3.56,-4.14 7.78,-6.25 12.62,-6.25 4.92,0 9.06,2 12.5,6.02 3.52,4.06 5.24,10.23 5.24,18.48 0,9.1 -1.72,15.78 -5.24,20 -3.52,4.25 -7.85,6.4 -13.01,6.4 -5,0 -9.18,-2.07 -12.5,-6.13 -3.32,-4.1 -5,-10.55 -5,-19.38 z m 66.33,-33.12 0,57.62 -9.88,0 0,8.75 9.88,0 0,7.11 c 0,4.41 0.39,7.73 1.25,9.88 1.06,2.93 2.93,5.31 5.63,7.15 2.73,1.83 6.56,2.73 11.48,2.73 3.16,0 6.68,-0.39 10.51,-1.13 l -1.64,-9.88 c -2.31,0.43 -4.53,0.62 -6.6,0.62 -3.44,0 -5.86,-0.74 -7.27,-2.23 -1.41,-1.4 -2.11,-4.14 -2.11,-8.12 l 0,-6.13 12.85,0 0,-8.75 -12.85,0 0,-57.62 -11.25,0 z m 36.06,53.63 0,12.74 12.73,0 0,-12.74 -12.73,0 z m 0,-53.63 0,12.85 12.73,0 0,-12.85 -12.73,0 z m 56.95,10.12 1.6,-10 c -3.16,-0.67 -5.98,-1.02 -8.48,-1.02 -4.1,0 -7.26,0.63 -9.53,1.88 -2.22,1.36 -3.83,3.04 -4.72,5.15 -0.94,2.15 -1.37,6.6 -1.37,13.36 l 0,38.13 -8.28,0 0,8.75 8.28,0 0,16.48 11.25,6.76 0,-23.24 11.25,0 0,-8.75 -11.25,0 0,-38.75 c 0,-3.25 0.16,-5.35 0.47,-6.25 0.43,-0.9 1.09,-1.68 2.03,-2.27 0.9,-0.47 2.19,-0.74 3.87,-0.74 1.25,0 2.85,0.16 4.88,0.51 z m 10.55,-35.74 -1.25,10.62 c 2.42,-0.66 4.53,-1.02 6.36,-1.02 2.5,0 4.49,0.43 6.02,1.25 1.48,0.86 2.73,2 3.75,3.52 0.66,1.09 1.8,3.87 3.36,8.36 0.27,0.59 0.58,1.52 1.01,2.77 l -25.11,66.49 12.11,0 13.75,-38.36 c 1.83,-4.92 3.43,-10.04 4.88,-15.39 1.25,5.15 2.77,10.19 4.61,15.11 l 14.14,38.64 11.25,0 -25.28,-67.5 c -2.65,-7.35 -4.72,-12.39 -6.24,-15.12 -2,-3.67 -4.3,-6.37 -6.88,-8.13 -2.58,-1.75 -5.66,-2.61 -9.22,-2.61 -2.19,0 -4.61,0.43 -7.26,1.37 z m 64.49,0.11 0,91.88 10.27,0 0,-8.64 c 2.38,3.44 5.12,5.98 8.13,7.62 3.04,1.68 6.75,2.5 11.09,2.5 5.66,0 10.66,-1.44 15,-4.37 4.34,-2.89 7.58,-7.03 9.77,-12.35 2.26,-5.27 3.35,-11.05 3.35,-17.38 0,-6.84 -1.24,-12.97 -3.74,-18.4 -2.43,-5.39 -5.94,-9.57 -10.63,-12.5 -4.57,-2.89 -9.45,-4.37 -14.61,-4.37 -3.75,0 -7.11,0.82 -10.12,2.38 -2.93,1.6 -5.35,3.59 -7.26,6.02 l 0,-32.39 -11.25,0 z m 10.11,58.36 c 0,-8.55 1.72,-14.88 5.16,-18.98 3.48,-4.1 7.7,-6.14 12.62,-6.14 5,0 9.3,2.15 12.85,6.37 3.59,4.26 5.39,10.82 5.39,19.65 0,8.48 -1.76,14.84 -5.23,18.98 -3.52,4.26 -7.7,6.37 -12.5,6.37 -4.77,0 -9.03,-2.22 -12.78,-6.72 -3.67,-4.53 -5.51,-11.01 -5.51,-19.53 z m 106.45,-11.48 11.64,-1.37 c -1.83,-6.84 -5.27,-12.15 -10.27,-15.9 -4.92,-3.75 -11.21,-5.62 -18.87,-5.62 -9.73,0 -17.46,3 -23.12,9.02 -5.67,5.98 -8.48,14.38 -8.48,25.12 0,11.17 2.85,19.84 8.59,26.01 5.78,6.14 13.21,9.22 22.39,9.22 8.82,0 16.05,-3.01 21.64,-9.1 5.66,-6.02 8.47,-14.45 8.47,-25.39 l 0,-3.01 -49.49,0 c 0.43,-7.3 2.46,-12.93 6.13,-16.87 3.75,-3.83 8.36,-5.75 13.87,-5.75 4.18,0 7.7,1.1 10.63,3.25 2.92,2.18 5.19,5.62 6.87,10.39 z m -36.87,18.24 36.99,0 c -0.47,5.59 -1.92,9.77 -4.22,12.5 -3.59,4.34 -8.24,6.52 -13.91,6.52 -5.15,0 -9.53,-1.75 -13.12,-5.27 -3.48,-3.4 -5.39,-8.01 -5.74,-13.75 z"
         id="path3281"
         style="fill:#000000;fill-opacity:1;fill-rule:nonzero;stroke:none" /><path
         d="m 6218.83,2689.14 1042.15,0 0,400.66 -1042.15,0 0,-400.66 z"
         id="path3283"
         style="fill:none;stroke:#000000;stroke-width:8;stroke-linecap:butt;stroke-linejoin:round;stroke-miterlimit:10;stroke-opacity:1;stroke-dasharray:none" /><path
         d="m 6534.18,2834.1 -12.38,0 0,108.75 13.24,0 0,-38.75 c 5.66,7.11 12.89,10.63 21.64,10.63 4.84,0 9.41,-0.98 13.75,-3.01 4.34,-1.92 7.89,-4.65 10.62,-8.24 2.86,-3.48 5.04,-7.74 6.65,-12.74 1.56,-5 2.34,-10.35 2.34,-16.01 0,-13.48 -3.32,-23.95 -10,-31.37 -6.64,-7.34 -14.65,-11.02 -23.99,-11.02 -9.33,0 -16.64,3.91 -21.87,11.64 l 0,-9.88 z m -0.12,40 c 0,-9.41 1.25,-16.25 3.75,-20.51 4.26,-6.79 9.96,-10.23 17.11,-10.23 5.86,0 10.9,2.5 15.12,7.5 4.26,5.08 6.41,12.66 6.41,22.73 0,10.28 -2.07,17.86 -6.14,22.78 -4.1,4.92 -9.02,7.38 -14.76,7.38 -5.82,0 -10.86,-2.54 -15.12,-7.66 -4.26,-5.07 -6.37,-12.38 -6.37,-21.99 z m 73.99,-40 0,68.4 -11.88,0 0,10.47 11.88,0 0,8.4 c 0,5.23 0.47,9.18 1.4,11.75 1.25,3.48 3.48,6.29 6.72,8.36 3.28,2.19 7.81,3.25 13.63,3.25 3.75,0 7.93,-0.39 12.5,-1.25 l -1.99,-11.76 c -2.73,0.51 -5.39,0.78 -7.89,0.78 -4.06,0 -6.95,-0.9 -8.59,-2.66 -1.68,-1.64 -2.5,-4.84 -2.5,-9.61 l 0,-7.26 15.35,0 0,-10.47 -15.35,0 0,-68.4 -13.28,0 z m 41.99,63.63 0,15.24 15.23,0 0,-15.24 -15.23,0 z m 0,-63.63 0,15.28 15.23,0 0,-15.28 -15.23,0 z m 41.84,0 0,108.75 14.49,0 0,-108.75 -14.49,0 z m 66.6,11.99 1.87,-11.87 c -3.75,-0.74 -7.15,-1.1 -10.15,-1.1 -4.81,0 -8.56,0.75 -11.25,2.23 -2.66,1.6 -4.54,3.6 -5.63,6.02 -1.05,2.5 -1.6,7.77 -1.6,15.86 l 0,45.27 -9.88,0 0,10.47 9.88,0 0,19.53 13.24,7.97 0,-27.5 13.52,0 0,-10.47 -13.52,0 0,-46.02 c 0,-3.82 0.2,-6.28 0.63,-7.38 0.5,-1.05 1.29,-1.95 2.38,-2.62 1.05,-0.66 2.62,-1.01 4.61,-1.01 1.4,0 3.4,0.23 5.9,0.62 z m 66.21,13.4 13.75,-1.76 c -2.19,-8 -6.21,-14.25 -12.15,-18.75 -5.82,-4.41 -13.32,-6.64 -22.5,-6.64 -11.49,0 -20.63,3.56 -27.38,10.63 -6.72,7.11 -10.12,17.07 -10.12,29.88 0,13.24 3.4,23.56 10.12,30.9 6.83,7.3 15.74,10.98 26.64,10.98 10.58,0 19.22,-3.56 25.86,-10.75 6.68,-7.14 10,-17.3 10,-30.39 0,-0.74 -0.04,-1.91 -0.12,-3.47 l -58.75,0 c 0.51,-8.67 2.97,-15.32 7.38,-19.89 4.42,-4.57 9.92,-6.87 16.49,-6.87 4.84,0 8.98,1.25 12.38,3.75 3.51,2.58 6.29,6.72 8.4,12.38 z m -43.91,21.6 44.02,0 c -0.58,6.61 -2.26,11.57 -5,14.89 -4.25,5.19 -9.8,7.77 -16.64,7.77 -6.05,0 -11.25,-2.11 -15.5,-6.25 -4.14,-4.1 -6.45,-9.57 -6.88,-16.41 z m 72.89,-46.99 0,78.87 11.99,0 0,-11.09 c 2.43,3.82 5.67,6.91 9.77,9.21 4.18,2.43 8.87,3.64 14.14,3.64 5.82,0 10.63,-1.21 14.38,-3.64 3.75,-2.38 6.36,-5.82 7.85,-10.23 6.25,9.26 14.37,13.87 24.37,13.87 7.85,0 13.83,-2.15 18.01,-6.49 4.26,-4.33 6.37,-11.01 6.37,-20 l 0,-54.14 -13.36,0 0,49.65 c 0,5.31 -0.43,9.14 -1.25,11.48 -0.86,2.43 -2.42,4.34 -4.77,5.75 -2.22,1.44 -4.92,2.14 -8.01,2.14 -5.46,0 -10.07,-1.83 -13.75,-5.5 -3.63,-3.67 -5.46,-9.57 -5.46,-17.78 l 0,-45.74 -13.4,0 0,51.25 c 0,5.94 -1.1,10.35 -3.25,13.24 -2.14,3.01 -5.74,4.53 -10.74,4.53 -3.75,0 -7.26,-1.01 -10.51,-3 -3.16,-1.92 -5.46,-4.81 -6.87,-8.64 -1.41,-3.82 -2.11,-9.33 -2.11,-16.48 l 0,-40.9 -13.4,0 z"
         id="path3285"
         style="fill:#000000;fill-opacity:1;fill-rule:nonzero;stroke:none" /><path
         d="m 6220.86,3307.39 1042.15,0 0,400.621 -1042.15,0 0,-400.621 z"
         id="path3287"
         style="fill:none;stroke:#000000;stroke-width:8;stroke-linecap:butt;stroke-linejoin:round;stroke-miterlimit:10;stroke-opacity:1;stroke-dasharray:none" /><path
         d="m 6399.26,3452.34 -12.38,0 0,108.75 13.24,0 0,-38.75 c 5.66,7.07 12.89,10.63 21.64,10.63 4.8,0 9.41,-0.98 13.75,-3.01 4.33,-1.91 7.85,-4.65 10.62,-8.24 2.82,-3.48 5.04,-7.74 6.6,-12.74 1.61,-5 2.39,-10.35 2.39,-16.01 0,-13.48 -3.32,-23.95 -10,-31.37 -6.68,-7.34 -14.65,-11.01 -23.99,-11.01 -9.33,0 -16.64,3.9 -21.87,11.64 l 0,-9.89 z m -0.12,40 c 0,-9.41 1.25,-16.25 3.75,-20.5 4.22,-6.84 9.92,-10.24 17.11,-10.24 5.82,0 10.86,2.5 15.12,7.5 4.26,5.08 6.36,12.66 6.36,22.74 0,10.27 -2.03,17.85 -6.09,22.77 -4.1,4.92 -9.02,7.38 -14.77,7.38 -5.82,0 -10.85,-2.58 -15.11,-7.65 -4.26,-5.08 -6.37,-12.43 -6.37,-22 z m 73.98,-40 0,68.4 -11.87,0 0,10.47 11.87,0 0,8.4 c 0,5.23 0.47,9.14 1.37,11.76 1.25,3.47 3.52,6.29 6.76,8.36 3.24,2.15 7.81,3.24 13.63,3.24 3.75,0 7.93,-0.43 12.5,-1.25 l -1.99,-11.76 c -2.77,0.51 -5.39,0.78 -7.89,0.78 -4.06,0 -6.95,-0.9 -8.63,-2.65 -1.64,-1.64 -2.5,-4.85 -2.5,-9.61 l 0,-7.27 15.39,0 0,-10.47 -15.39,0 0,-68.4 -13.25,0 z m 41.96,63.64 0,15.23 15.27,0 0,-15.23 -15.27,0 z m 0,-63.64 0,15.28 15.27,0 0,-15.28 -15.27,0 z m 41.87,0 0,108.75 14.5,0 0,-108.75 -14.5,0 z m 37.31,0 0,78.87 12.03,0 0,-11.25 c 5.82,8.67 14.18,13.01 25.12,13.01 4.72,0 9.1,-0.86 13.12,-2.62 3.99,-1.68 6.95,-3.9 8.87,-6.76 1.99,-2.73 3.44,-5.97 4.26,-9.72 0.5,-2.5 0.74,-6.84 0.74,-13.01 l 0,-48.52 -13.36,0 0,48.01 c 0,5.43 -0.55,9.45 -1.64,12.11 -1.02,2.77 -2.81,4.92 -5.51,6.52 -2.66,1.57 -5.78,2.39 -9.37,2.39 -5.67,0 -10.59,-1.8 -14.73,-5.39 -4.1,-3.6 -6.13,-10.47 -6.13,-20.63 l 0,-43.01 -13.4,0 z m 77.65,23.52 13.25,2.11 c 0.74,-5.31 2.81,-9.42 6.13,-12.23 3.4,-2.77 8.16,-4.14 14.26,-4.14 6.17,0 10.7,1.25 13.59,3.75 3.01,2.5 4.53,5.43 4.53,8.75 0,3.01 -1.29,5.39 -3.9,7.11 -1.8,1.17 -6.37,2.7 -13.6,4.53 -9.84,2.5 -16.68,4.61 -20.51,6.37 -3.75,1.84 -6.64,4.34 -8.63,7.5 -1.91,3.24 -2.89,6.8 -2.89,10.62 0,3.48 0.82,6.76 2.38,9.73 1.68,3.01 3.87,5.51 6.64,7.5 2.07,1.52 4.93,2.81 8.48,3.91 3.59,1.05 7.42,1.6 11.52,1.6 6.25,0 11.72,-0.9 16.37,-2.74 4.69,-1.75 8.09,-4.18 10.24,-7.26 2.26,-3.01 3.82,-7.03 4.64,-12.11 l -13,-1.76 c -0.59,3.99 -2.35,7.11 -5.24,9.38 -2.85,2.34 -6.83,3.51 -12.03,3.51 -6.13,0 -10.51,-1.05 -13.12,-3.12 -2.58,-2.03 -3.87,-4.34 -3.87,-7.03 0,-1.72 0.55,-3.32 1.64,-4.73 1.09,-1.45 2.77,-2.58 5.12,-3.52 1.32,-0.5 5.23,-1.68 11.75,-3.47 9.42,-2.5 15.98,-4.57 19.73,-6.14 3.75,-1.6 6.68,-3.94 8.75,-6.99 2.19,-3.08 3.28,-6.95 3.28,-11.52 0,-4.42 -1.29,-8.63 -3.9,-12.62 -2.58,-3.9 -6.33,-6.95 -11.25,-9.14 -4.89,-2.07 -10.43,-3.12 -16.61,-3.12 -10.27,0 -18.08,2.14 -23.51,6.4 -5.31,4.22 -8.75,10.51 -10.24,18.87 z m 109.26,-11.52 1.88,-11.88 c -3.75,-0.74 -7.15,-1.09 -10.16,-1.09 -4.8,0 -8.55,0.74 -11.25,2.22 -2.66,1.61 -4.53,3.6 -5.62,6.02 -1.06,2.5 -1.61,7.77 -1.61,15.86 l 0,45.27 -9.88,0 0,10.47 9.88,0 0,19.53 13.25,7.97 0,-27.5 13.51,0 0,-10.47 -13.51,0 0,-46.01 c 0,-3.83 0.19,-6.29 0.62,-7.39 0.51,-1.09 1.29,-1.95 2.38,-2.61 1.1,-0.67 2.62,-1.02 4.61,-1.02 1.45,0 3.4,0.24 5.9,0.63 z m 63.71,-2.23 c -5,-4.26 -9.8,-7.27 -14.37,-9.02 -4.61,-1.64 -9.49,-2.5 -14.77,-2.5 -8.59,0 -15.19,2.11 -19.88,6.25 -4.65,4.25 -6.99,9.68 -6.99,16.25 0,3.94 0.9,7.46 2.61,10.62 1.76,3.17 4.07,5.7 6.88,7.66 2.85,1.91 6.05,3.36 9.65,4.37 2.65,0.74 6.6,1.41 11.87,1.99 10.82,1.33 18.79,2.86 23.87,4.61 l 0,3.52 c 0,5.39 -1.25,9.26 -3.75,11.48 -3.4,3.01 -8.52,4.5 -15.23,4.5 -6.25,0 -10.9,-1.06 -13.91,-3.25 -2.97,-2.14 -5.2,-6.09 -6.6,-11.75 l -13.13,1.87 c 1.25,5.59 3.21,10.08 5.86,13.52 2.78,3.39 6.68,6.05 11.76,7.89 5.16,1.91 11.17,2.85 18.01,2.85 6.76,0 12.19,-0.78 16.36,-2.38 4.18,-1.57 7.27,-3.56 9.26,-5.98 2,-2.42 3.36,-5.47 4.1,-9.14 0.51,-2.23 0.79,-6.33 0.79,-12.23 l 0,-17.89 c 0,-12.42 0.23,-20.31 0.74,-23.63 0.58,-3.24 1.76,-6.37 3.47,-9.38 l -13.98,0 c -1.41,2.78 -2.3,6.02 -2.62,9.77 z m -1.13,29.73 c -4.84,-1.92 -12.11,-3.56 -21.87,-5 -5.51,-0.75 -9.38,-1.61 -11.65,-2.62 -2.22,-0.98 -3.98,-2.46 -5.23,-4.38 -1.25,-1.91 -1.88,-4.02 -1.88,-6.36 0,-3.6 1.33,-6.6 3.99,-8.99 2.77,-2.34 6.72,-3.51 11.87,-3.51 5.2,0 9.77,1.13 13.75,3.36 4.03,2.34 7,5.43 8.91,9.25 1.41,3.09 2.11,7.54 2.11,13.4 l 0,4.85 z m 32.62,-39.5 0,78.87 12.03,0 0,-11.25 c 5.82,8.67 14.18,13.01 25.12,13.01 4.72,0 9.1,-0.86 13.12,-2.62 3.98,-1.68 6.95,-3.9 8.87,-6.76 1.99,-2.73 3.4,-5.97 4.26,-9.72 0.5,-2.5 0.74,-6.84 0.74,-13.01 l 0,-48.52 -13.36,0 0,48.01 c 0,5.43 -0.55,9.45 -1.64,12.11 -1.02,2.77 -2.85,4.92 -5.51,6.52 -2.66,1.57 -5.78,2.39 -9.38,2.39 -5.66,0 -10.58,-1.8 -14.72,-5.39 -4.1,-3.6 -6.13,-10.47 -6.13,-20.63 l 0,-43.01 -13.4,0 z m 134.53,28.87 13.12,-1.72 c -1.44,-9.02 -5.07,-16.09 -11.01,-21.25 -5.9,-5.12 -13.21,-7.65 -21.88,-7.65 -10.74,0 -19.41,3.51 -26.01,10.5 -6.49,7.07 -9.73,17.23 -9.73,30.39 0,8.48 1.37,15.9 4.1,22.23 2.85,6.45 7.15,11.21 12.89,14.38 5.82,3.28 12.11,4.88 18.87,4.88 8.59,0 15.59,-2.15 21.02,-6.49 5.43,-4.33 8.9,-10.5 10.5,-18.51 l -13,-1.99 c -1.25,5.31 -3.48,9.33 -6.65,11.99 -3.16,2.65 -6.95,4.02 -11.36,4.02 -6.76,0 -12.27,-2.42 -16.49,-7.26 -4.18,-4.85 -6.25,-12.46 -6.25,-22.89 0,-10.59 2.03,-18.29 6.1,-23.13 4.1,-4.73 9.37,-7.11 15.9,-7.11 5.23,0 9.6,1.56 13.12,4.77 3.48,3.24 5.74,8.2 6.76,14.84 z m 77.11,-3.48 13.75,-1.75 c -2.15,-8.01 -6.21,-14.26 -12.11,-18.75 -5.86,-4.42 -13.36,-6.64 -22.5,-6.64 -11.53,0 -20.63,3.55 -27.38,10.62 -6.76,7.11 -10.12,17.07 -10.12,29.88 0,13.25 3.36,23.56 10.12,30.9 6.83,7.31 15.7,10.98 26.6,10.98 10.58,0 19.22,-3.59 25.9,-10.74 6.68,-7.19 10,-17.31 10,-30.39 0,-0.75 -0.04,-1.92 -0.12,-3.48 l -58.75,0 c 0.47,-8.67 2.93,-15.31 7.34,-19.88 4.46,-4.57 9.92,-6.88 16.53,-6.88 4.84,0 8.94,1.25 12.38,3.75 3.47,2.58 6.29,6.72 8.36,12.38 z m -43.87,21.61 43.98,0 c -0.58,6.6 -2.22,11.56 -5,14.88 -4.25,5.16 -9.76,7.77 -16.6,7.77 -6.09,0 -11.25,-2.11 -15.5,-6.25 -4.18,-4.1 -6.45,-9.57 -6.88,-16.4 z"
         id="path3289"
         style="fill:#000000;fill-opacity:1;fill-rule:nonzero;stroke:none" /><path
         d="m 6212.27,3925.63 1042.15,0 0,400.621 -1042.15,0 0,-400.621 z"
         id="path3291"
         style="fill:none;stroke:#000000;stroke-width:8;stroke-linecap:butt;stroke-linejoin:round;stroke-miterlimit:10;stroke-opacity:1;stroke-dasharray:none" /><path
         d="m 6498.63,4070.59 -12.34,0 0,108.75 13.24,0 0,-38.75 c 5.67,7.07 12.85,10.62 21.6,10.62 4.85,0 9.46,-1.01 13.75,-3.01 4.34,-1.91 7.89,-4.65 10.63,-8.24 2.85,-3.51 5.08,-7.73 6.64,-12.73 1.6,-5 2.38,-10.35 2.38,-16.02 0,-13.51 -3.32,-23.94 -10,-31.37 -6.68,-7.34 -14.69,-11.01 -24.02,-11.01 -9.3,0 -16.6,3.87 -21.88,11.64 l 0,-9.88 z m -0.11,40 c 0,-9.42 1.25,-16.25 3.75,-20.51 4.25,-6.84 9.96,-10.24 17.14,-10.24 5.82,0 10.86,2.5 15.12,7.5 4.26,5.08 6.37,12.66 6.37,22.74 0,10.27 -2.03,17.85 -6.13,22.77 -4.07,4.88 -8.99,7.35 -14.73,7.35 -5.86,0 -10.9,-2.54 -15.16,-7.62 -4.22,-5.08 -6.36,-12.42 -6.36,-21.99 z m 74.02,-40 0,68.36 -11.88,0 0,10.5 11.88,0 0,8.4 c 0,5.24 0.47,9.14 1.37,11.72 1.25,3.52 3.51,6.29 6.75,8.4 3.25,2.15 7.78,3.24 13.64,3.24 3.75,0 7.89,-0.43 12.5,-1.25 l -2.03,-11.76 c -2.74,0.51 -5.36,0.75 -7.86,0.75 -4.1,0 -6.95,-0.86 -8.63,-2.62 -1.68,-1.64 -2.5,-4.88 -2.5,-9.61 l 0,-7.27 15.39,0 0,-10.5 -15.39,0 0,-68.36 -13.24,0 z m 41.95,63.63 0,15.23 15.28,0 0,-15.23 -15.28,0 z m 0,-63.63 0,15.23 15.28,0 0,-15.23 -15.28,0 z m 58.48,0 -28.87,108.75 14.73,0 16.52,-71.25 c 1.84,-7.5 3.36,-14.93 4.61,-22.27 2.74,11.6 4.38,18.32 4.88,20.16 l 20.75,73.36 17.38,0 15.62,-55 c 3.91,-13.68 6.72,-26.49 8.36,-38.52 1.45,6.84 3.25,14.73 5.51,23.63 l 16.99,69.89 14.5,0 -29.85,-108.75 -13.9,0 -22.86,82.89 c -1.91,6.91 -3.04,11.13 -3.39,12.73 -1.14,-5 -2.23,-9.26 -3.25,-12.73 l -23.12,-82.89 -14.61,0 z m 115.12,39.37 c 0,14.57 4.06,25.43 12.26,32.5 6.72,5.82 15,8.75 24.73,8.75 10.82,0 19.69,-3.59 26.52,-10.74 6.92,-7.11 10.35,-16.88 10.35,-29.38 0,-10.15 -1.52,-18.16 -4.61,-24.02 -3,-5.74 -7.42,-10.23 -13.24,-13.48 -5.78,-3.16 -12.11,-4.76 -19.02,-4.76 -10.98,0 -19.92,3.55 -26.76,10.62 -6.84,7.11 -10.23,17.27 -10.23,30.51 z m 13.75,0 c 0,-10.08 2.18,-17.62 6.64,-22.62 4.41,-5 9.92,-7.5 16.6,-7.5 6.68,0 12.19,2.5 16.52,7.5 4.42,5.08 6.6,12.78 6.6,23.13 0,9.73 -2.18,17.11 -6.6,22.11 -4.45,5 -9.92,7.5 -16.52,7.5 -6.68,0 -12.19,-2.5 -16.6,-7.5 -4.46,-5 -6.64,-12.54 -6.64,-22.62 z m 74.14,-39.37 0,78.86 11.99,0 0,-11.99 c 3.08,5.59 5.9,9.26 8.48,11.02 2.61,1.83 5.46,2.73 8.63,2.73 4.49,0 9.1,-1.44 13.75,-4.37 l -4.61,-12.39 c -3.24,1.92 -6.56,2.89 -9.88,2.89 -2.93,0 -5.55,-0.89 -7.89,-2.61 -2.23,-1.76 -3.87,-4.18 -4.85,-7.27 -1.52,-4.76 -2.26,-9.96 -2.26,-15.62 l 0,-41.25 -13.36,0 z m 49.92,0 0,108.75 13.4,0 0,-62 31.6,32.11 17.26,0 -30.11,-29.25 33.12,-49.61 -16.52,0 -25.98,40.23 -9.37,-8.98 0,-31.25 -13.4,0 z"
         id="path3293"
         style="fill:#000000;fill-opacity:1;fill-rule:nonzero;stroke:none" /><path
         d="m 6739.92,3089.69 1.56,169.72"
         id="path3295"
         style="fill:none;stroke:#000000;stroke-width:8;stroke-linecap:butt;stroke-linejoin:round;stroke-miterlimit:10;stroke-opacity:1;stroke-dasharray:none" /><path
         d="m 6754.73,3259.26 -12.89,36.44 -13.56,-36.17 26.45,-0.27 z"
         id="path3297"
         style="fill:#000000;fill-opacity:1;fill-rule:evenodd;stroke:none" /><path
         d="m 6754.73,3259.26 -12.89,36.44 -13.56,-36.17 26.45,-0.27 z"
         id="path3299"
         style="fill:none;stroke:#000000;stroke-width:8;stroke-linecap:butt;stroke-linejoin:miter;stroke-miterlimit:10;stroke-opacity:1;stroke-dasharray:none" /><path
         d="m 6741.91,3707.93 -6.68,169.73"
         id="path3301"
         style="fill:none;stroke:#000000;stroke-width:8;stroke-linecap:butt;stroke-linejoin:round;stroke-miterlimit:10;stroke-opacity:1;stroke-dasharray:none" /><path
         d="m 6748.44,3878.2 -14.65,35.75 -11.76,-36.8 26.41,1.05 z"
         id="path3303"
         style="fill:#000000;fill-opacity:1;fill-rule:evenodd;stroke:none" /><path
         d="m 6748.44,3878.2 -14.65,35.75 -11.76,-36.8 26.41,1.05 z"
         id="path3305"
         style="fill:none;stroke:#000000;stroke-width:8;stroke-linecap:butt;stroke-linejoin:miter;stroke-miterlimit:10;stroke-opacity:1;stroke-dasharray:none" /></g></g></svg>