<?xml version="1.0" encoding="UTF-8" standalone="no"?>
<!-- Created with Inkscape (http://www.inkscape.org/) -->

<svg
   xmlns:dc="http://purl.org/dc/elements/1.1/"
   xmlns:cc="http://creativecommons.org/ns#"
   xmlns:rdf="http://www.w3.org/1999/02/22-rdf-syntax-ns#"
   xmlns:svg="http://www.w3.org/2000/svg"
   xmlns="http://www.w3.org/2000/svg"
   version="1.1"
   width="735"
   height="372.5"
   id="svg3463"
   xml:space="preserve"><metadata
     id="metadata3469"><rdf:RDF><cc:Work
         rdf:about=""><dc:format>image/svg+xml</dc:format><dc:type
           rdf:resource="http://purl.org/dc/dcmitype/StillImage" /><dc:title></dc:title></cc:Work></rdf:RDF></metadata><defs
     id="defs3467"><clipPath
       id="clipPath3479"><path
         d="m 0,9 5872,0 0,2969 L 0,2978 0,9 z"
         id="path3481" /></clipPath><clipPath
       id="clipPath3535"><path
         d="m 0,9.98828 5871.99,0 0,2967.30002 -5871.99,0 L 0,9.98828 z"
         id="path3537" /></clipPath></defs><g
     transform="matrix(1.25,0,0,-1.25,0,372.5)"
     id="g3471"><g
       transform="scale(0.1,0.1)"
       id="g3473"><g
         id="g3475"><g
           clip-path="url(#clipPath3479)"
           id="g3477"><path
             d="m 2948.2,610.996 1747.89,0 0,1081.95 -1747.89,0 0,-1081.95 z"
             id="path3483"
             style="fill:none;stroke:#999999;stroke-width:8;stroke-linecap:butt;stroke-linejoin:round;stroke-miterlimit:10;stroke-opacity:1;stroke-dasharray:64, 24;stroke-dashoffset:0" /><path
             d="m 1140.31,610.996 1765.82,0 0,1081.95 -1765.82,0 0,-1081.95 z"
             id="path3485"
             style="fill:none;stroke:#999999;stroke-width:8;stroke-linecap:butt;stroke-linejoin:round;stroke-miterlimit:10;stroke-opacity:1;stroke-dasharray:64, 24;stroke-dashoffset:0" /><path
             d="m 2600.86,700.836 670.23,0 0,138.832 -670.23,0 0,-138.832 z"
             id="path3487"
             style="fill:#ffffff;fill-opacity:1;fill-rule:nonzero;stroke:none" /><path
             d="m 1140.31,1727.64 3555.78,0 0,904.301 -3555.78,0 0,-904.301 z"
             id="path3489"
             style="fill:none;stroke:#999999;stroke-width:8;stroke-linecap:butt;stroke-linejoin:round;stroke-miterlimit:10;stroke-opacity:1;stroke-dasharray:64, 24;stroke-dashoffset:0" /><path
             d="m 3399.49,1246.35 c 0,134.49 233.95,243.56 522.58,243.56 288.59,0 522.58,-109.07 522.58,-243.56 0,-134.49 -233.99,-243.51 -522.58,-243.51 -288.63,0 -522.58,109.02 -522.58,243.51 z"
             id="path3491"
             style="fill:#f4cccc;fill-opacity:1;fill-rule:nonzero;stroke:none" /><path
             d="m 3399.49,1246.35 c 0,134.49 233.95,243.56 522.58,243.56 288.59,0 522.58,-109.07 522.58,-243.56 0,-134.49 -233.99,-243.51 -522.58,-243.51 -288.63,0 -522.58,109.02 -522.58,243.51 z"
             id="path3493"
             style="fill:none;stroke:#e06666;stroke-width:8;stroke-linecap:butt;stroke-linejoin:round;stroke-miterlimit:10;stroke-opacity:1;stroke-dasharray:none" /><path
             d="m 3770.47,1202.98 1.87,-11.86 c -3.75,-0.74 -7.11,-1.1 -10.11,-1.1 -4.85,0 -8.6,0.75 -11.25,2.23 -2.66,1.6 -4.53,3.59 -5.63,6.02 -1.09,2.5 -1.6,7.77 -1.6,15.86 l 0,45.26 -9.88,0 0,10.48 9.88,0 0,19.52 13.24,7.98 0,-27.5 13.48,0 0,-10.48 -13.48,0 0,-46.01 c 0,-3.83 0.2,-6.29 0.63,-7.38 0.5,-1.09 1.29,-1.95 2.38,-2.62 1.05,-0.67 2.62,-1.01 4.61,-1.01 1.41,0 3.36,0.23 5.86,0.61 z m 63.71,-2.21 c -5,-4.26 -9.77,-7.27 -14.38,-9.04 -4.57,-1.63 -9.49,-2.5 -14.72,-2.5 -8.6,0 -15.2,2.12 -19.88,6.25 -4.65,4.27 -7,9.7 -7,16.25 0,3.96 0.86,7.47 2.62,10.64 1.76,3.16 4.06,5.74 6.88,7.65 2.85,1.92 6.05,3.36 9.6,4.37 2.7,0.75 6.65,1.41 11.88,2 10.86,1.32 18.83,2.84 23.91,4.61 l 0,3.52 c 0,5.39 -1.25,9.25 -3.75,11.48 -3.44,3.01 -8.52,4.48 -15.28,4.48 -6.25,0 -10.86,-1.04 -13.86,-3.23 -3.01,-2.15 -5.2,-6.09 -6.65,-11.77 l -13.12,1.89 c 1.25,5.58 3.24,10.11 5.9,13.51 2.73,3.4 6.68,6.06 11.76,7.89 5.15,1.92 11.17,2.86 17.96,2.86 6.76,0 12.23,-0.79 16.41,-2.4 4.14,-1.55 7.23,-3.54 9.22,-5.96 2.03,-2.43 3.4,-5.47 4.14,-9.14 0.51,-2.24 0.74,-6.33 0.74,-12.24 l 0,-17.88 c 0,-12.42 0.28,-20.28 0.74,-23.63 0.59,-3.25 1.76,-6.37 3.52,-9.38 l -13.98,0 c -1.45,2.77 -2.31,6.02 -2.66,9.77 z m -1.09,29.71 c -4.85,-1.91 -12.15,-3.54 -21.88,-5 -5.51,-0.73 -9.37,-1.59 -11.64,-2.6 -2.27,-0.99 -3.98,-2.47 -5.23,-4.38 -1.25,-1.91 -1.88,-4.02 -1.88,-6.37 0,-3.59 1.33,-6.6 3.99,-8.99 2.73,-2.34 6.71,-3.51 11.87,-3.51 5.16,0 9.77,1.14 13.75,3.35 3.98,2.36 6.95,5.44 8.87,9.27 1.44,3.09 2.15,7.54 2.15,13.39 l 0,4.84 z m 32.5,-39.48 0,78.87 11.99,0 0,-11.99 c 3.08,5.58 5.9,9.25 8.51,11.01 2.58,1.84 5.43,2.74 8.6,2.74 4.53,0 9.1,-1.45 13.75,-4.38 l -4.61,-12.38 c -3.24,1.91 -6.53,2.89 -9.88,2.89 -2.9,0 -5.55,-0.87 -7.86,-2.62 -2.26,-1.76 -3.9,-4.18 -4.88,-7.26 -1.52,-4.74 -2.26,-9.97 -2.26,-15.63 l 0,-41.25 -13.36,0 z m 47.46,-6.48 12.85,-2 c 0.58,-4.02 2.15,-6.91 4.65,-8.75 3.24,-2.42 7.73,-3.63 13.47,-3.63 6.25,0 11.06,1.25 14.38,3.75 3.36,2.41 5.62,5.82 6.87,10.24 0.67,2.76 0.98,8.51 0.9,17.26 -5.86,-6.91 -13.08,-10.39 -21.76,-10.39 -10.86,0 -19.25,3.91 -25.27,11.76 -5.9,7.85 -8.87,17.22 -8.87,28.12 0,7.5 1.37,14.42 4.14,20.75 2.74,6.4 6.72,11.32 11.88,14.76 5.16,3.48 11.21,5.24 18.12,5.24 9.34,0 17,-3.75 23.01,-11.25 l 0,9.49 12.35,0 0,-68.14 c 0,-12.29 -1.25,-21 -3.75,-26.09 -2.5,-5.19 -6.45,-9.21 -11.88,-12.14 -5.39,-3.02 -12.07,-4.49 -20,-4.49 -9.41,0 -17.03,2.11 -22.85,6.37 -5.74,4.25 -8.52,10.62 -8.24,19.14 z m 10.97,47.37 c 0,-10.43 2.03,-18 6.14,-22.76 4.18,-4.74 9.33,-7.11 15.5,-7.11 6.1,0 11.22,2.37 15.36,7.11 4.18,4.76 6.25,12.17 6.25,22.26 0,9.65 -2.15,16.91 -6.49,21.75 -4.26,4.89 -9.37,7.34 -15.39,7.34 -5.9,0 -10.94,-2.37 -15.12,-7.21 -4.14,-4.77 -6.25,-11.88 -6.25,-21.38 z m 128.4,-15.5 13.75,-1.76 c -2.19,-8 -6.21,-14.25 -12.15,-18.75 -5.82,-4.42 -13.32,-6.65 -22.5,-6.65 -11.48,0 -20.62,3.57 -27.34,10.64 -6.76,7.11 -10.16,17.07 -10.16,29.88 0,13.23 3.4,23.55 10.16,30.89 6.8,7.31 15.7,10.99 26.6,10.99 10.59,0 19.22,-3.6 25.9,-10.75 6.64,-7.15 10,-17.31 10,-30.4 0,-0.73 -0.08,-1.91 -0.16,-3.46 l -58.75,0 c 0.51,-8.68 2.97,-15.32 7.39,-19.89 4.41,-4.58 9.92,-6.87 16.52,-6.87 4.8,0 8.94,1.25 12.34,3.75 3.52,2.58 6.29,6.72 8.4,12.38 z m -43.87,21.59 43.99,0 c -0.59,6.61 -2.27,11.57 -5,14.9 -4.26,5.15 -9.81,7.76 -16.64,7.76 -6.06,0 -11.25,-2.1 -15.47,-6.25 -4.18,-4.09 -6.48,-9.57 -6.88,-16.41 z m 102.11,-35 1.88,-11.86 c -3.75,-0.74 -7.11,-1.1 -10.12,-1.1 -4.84,0 -8.59,0.75 -11.25,2.23 -2.65,1.6 -4.53,3.59 -5.62,6.02 -1.1,2.5 -1.64,7.77 -1.64,15.86 l 0,45.26 -9.89,0 0,10.48 9.89,0 0,19.52 13.24,7.98 0,-27.5 13.51,0 0,-10.48 -13.51,0 0,-46.01 c 0,-3.83 0.23,-6.29 0.62,-7.38 0.51,-1.09 1.33,-1.95 2.39,-2.62 1.09,-0.67 2.61,-1.01 4.64,-1.01 1.41,0 3.36,0.23 5.86,0.61 z"
             id="path3495"
             style="fill:#000000;fill-opacity:1;fill-rule:nonzero;stroke:none" /><path
             d="m 2277.58,2179.79 c 0,134.49 290.82,243.51 649.57,243.51 358.75,0 649.57,-109.02 649.57,-243.51 0,-134.49 -290.82,-243.52 -649.57,-243.52 -358.75,0 -649.57,109.03 -649.57,243.52 z"
             id="path3497"
             style="fill:#fff2cc;fill-opacity:1;fill-rule:nonzero;stroke:none" /><path
             d="m 2277.58,2179.79 c 0,134.49 290.82,243.51 649.57,243.51 358.75,0 649.57,-109.02 649.57,-243.51 0,-134.49 -290.82,-243.52 -649.57,-243.52 -358.75,0 -649.57,109.03 -649.57,243.52 z"
             id="path3499"
             style="fill:none;stroke:#000000;stroke-width:8;stroke-linecap:butt;stroke-linejoin:round;stroke-miterlimit:10;stroke-opacity:1;stroke-dasharray:none" /><path
             d="m 2601.33,2134.17 c -5,-4.22 -9.77,-7.23 -14.38,-8.99 -4.57,-1.68 -9.49,-2.5 -14.72,-2.5 -8.6,0 -15.24,2.07 -19.89,6.25 -4.68,4.26 -6.99,9.65 -6.99,16.25 0,3.91 0.86,7.46 2.62,10.62 1.76,3.16 4.02,5.71 6.87,7.62 2.82,1.92 6.06,3.4 9.61,4.38 2.7,0.74 6.64,1.4 11.88,1.99 10.86,1.33 18.79,2.89 23.9,4.65 l 0,3.47 c 0,5.43 -1.25,9.26 -3.75,11.53 -3.43,3.01 -8.51,4.49 -15.27,4.49 -6.25,0 -10.86,-1.09 -13.87,-3.24 -3,-2.19 -5.19,-6.1 -6.64,-11.76 l -13.12,1.87 c 1.25,5.59 3.2,10.08 5.9,13.52 2.73,3.39 6.64,6.02 11.75,7.85 5.16,1.92 11.14,2.88 17.97,2.88 6.76,0 12.23,-0.81 16.41,-2.37 4.14,-1.6 7.23,-3.59 9.22,-6.01 2.03,-2.43 3.4,-5.44 4.14,-9.12 0.51,-2.25 0.74,-6.32 0.74,-12.25 l 0,-17.85 c 0,-12.43 0.27,-20.32 0.74,-23.65 0.59,-3.23 1.76,-6.35 3.52,-9.36 l -13.99,0 c -1.44,2.73 -2.3,5.97 -2.65,9.73 z m -1.1,29.76 c -4.84,-1.91 -12.14,-3.59 -21.87,-5 -5.51,-0.74 -9.38,-1.64 -11.64,-2.63 -2.27,-1 -3.99,-2.45 -5.24,-4.36 -1.25,-1.92 -1.87,-4.06 -1.87,-6.37 0,-3.59 1.33,-6.61 3.98,-9.02 2.74,-2.35 6.72,-3.48 11.88,-3.48 5.15,0 9.76,1.1 13.75,3.36 3.98,2.34 6.95,5.43 8.87,9.26 1.4,3.08 2.14,7.54 2.14,13.36 l 0,4.88 z m 32.62,-39.49 0,78.86 11.99,0 0,-11.25 c 5.82,8.68 14.22,13 25.12,13 4.77,0 9.14,-0.88 13.13,-2.6 4.02,-1.68 6.95,-3.95 8.86,-6.76 2.03,-2.78 3.44,-6.02 4.26,-9.77 0.51,-2.5 0.74,-6.83 0.74,-13.01 l 0,-48.47 -13.36,0 0,48.01 c 0,5.39 -0.54,9.44 -1.64,12.1 -0.97,2.74 -2.81,4.93 -5.47,6.49 -2.69,1.6 -5.82,2.38 -9.37,2.38 -5.66,0 -10.59,-1.79 -14.77,-5.35 -4.06,-3.59 -6.13,-10.47 -6.13,-20.62 l 0,-43.01 -13.36,0 z m 83.01,0 0,78.86 11.99,0 0,-11.25 c 5.82,8.68 14.22,13 25.12,13 4.76,0 9.14,-0.88 13.12,-2.6 4.03,-1.68 6.96,-3.95 8.87,-6.76 2.03,-2.78 3.44,-6.02 4.26,-9.77 0.51,-2.5 0.74,-6.83 0.74,-13.01 l 0,-48.47 -13.36,0 0,48.01 c 0,5.39 -0.55,9.44 -1.64,12.1 -0.98,2.74 -2.81,4.93 -5.47,6.49 -2.69,1.6 -5.82,2.38 -9.37,2.38 -5.67,0 -10.59,-1.79 -14.77,-5.35 -4.1,-3.59 -6.13,-10.47 -6.13,-20.62 l 0,-43.01 -13.36,0 z m 78.01,39.36 c 0,14.58 4.06,25.4 12.22,32.5 6.76,5.83 15,8.75 24.77,8.75 10.82,0 19.65,-3.59 26.48,-10.73 6.92,-7.11 10.39,-16.87 10.39,-29.37 0,-10.2 -1.52,-18.21 -4.61,-24.03 -3,-5.74 -7.42,-10.23 -13.28,-13.47 -5.74,-3.21 -12.07,-4.77 -18.98,-4.77 -11.02,0 -19.92,3.55 -26.76,10.62 -6.83,7.08 -10.23,17.27 -10.23,30.5 z m 13.75,0 c 0,-10.07 2.18,-17.6 6.6,-22.6 4.41,-5 9.96,-7.5 16.64,-7.5 6.68,0 12.15,2.5 16.48,7.5 4.42,5.07 6.64,12.76 6.64,23.12 0,9.73 -2.22,17.11 -6.64,22.11 -4.41,5 -9.88,7.5 -16.48,7.5 -6.68,0 -12.23,-2.5 -16.64,-7.5 -4.42,-5 -6.6,-12.54 -6.6,-22.63 z m 103.51,-27.37 1.88,-11.88 c -3.75,-0.75 -7.15,-1.13 -10.16,-1.13 -4.8,0 -8.55,0.75 -11.25,2.27 -2.65,1.56 -4.53,3.55 -5.62,5.98 -1.06,2.5 -1.6,7.81 -1.6,15.88 l 0,45.25 -9.89,0 0,10.5 9.89,0 0,19.5 13.24,8 0,-27.5 13.51,0 0,-10.5 -13.51,0 0,-45.98 c 0,-3.87 0.19,-6.33 0.62,-7.38 0.51,-1.1 1.29,-1.96 2.38,-2.62 1.06,-0.7 2.62,-1.02 4.61,-1.02 1.41,0 3.4,0.2 5.9,0.63 z m 63.71,-2.26 c -5,-4.22 -9.8,-7.23 -14.37,-8.99 -4.61,-1.68 -9.53,-2.5 -14.77,-2.5 -8.59,0 -15.19,2.07 -19.88,6.25 -4.65,4.26 -6.99,9.65 -6.99,16.25 0,3.91 0.86,7.46 2.62,10.62 1.75,3.16 4.06,5.71 6.87,7.62 2.85,1.92 6.06,3.4 9.65,4.38 2.65,0.74 6.6,1.4 11.87,1.99 10.82,1.33 18.79,2.89 23.87,4.65 l 0,3.47 c 0,5.43 -1.25,9.26 -3.75,11.53 -3.44,3.01 -8.51,4.49 -15.27,4.49 -6.25,0 -10.86,-1.09 -13.87,-3.24 -3.01,-2.19 -5.2,-6.1 -6.6,-11.76 l -13.13,1.87 c 1.25,5.59 3.21,10.08 5.86,13.52 2.74,3.39 6.68,6.02 11.76,7.85 5.16,1.92 11.17,2.88 18.01,2.88 6.72,0 12.19,-0.81 16.37,-2.37 4.18,-1.6 7.22,-3.59 9.25,-6.01 2,-2.43 3.36,-5.44 4.11,-9.12 0.5,-2.25 0.74,-6.32 0.74,-12.25 l 0,-17.85 c 0,-12.43 0.27,-20.32 0.78,-23.65 0.58,-3.23 1.72,-6.35 3.48,-9.36 l -13.99,0 c -1.41,2.73 -2.3,5.97 -2.62,9.73 z m -1.13,29.76 c -4.84,-1.91 -12.15,-3.59 -21.87,-5 -5.51,-0.74 -9.38,-1.64 -11.64,-2.63 -2.23,-1 -3.99,-2.45 -5.24,-4.36 -1.25,-1.92 -1.87,-4.06 -1.87,-6.37 0,-3.59 1.32,-6.61 3.98,-9.02 2.77,-2.35 6.72,-3.48 11.88,-3.48 5.19,0 9.76,1.1 13.75,3.36 4.02,2.34 6.95,5.43 8.86,9.26 1.45,3.08 2.15,7.54 2.15,13.36 l 0,4.88 z m 61.88,-27.5 1.87,-11.88 c -3.75,-0.75 -7.11,-1.13 -10.12,-1.13 -4.84,0 -8.59,0.75 -11.25,2.27 -2.65,1.56 -4.53,3.55 -5.62,5.98 -1.09,2.5 -1.64,7.81 -1.64,15.88 l 0,45.25 -9.88,0 0,10.5 9.88,0 0,19.5 13.24,8 0,-27.5 13.52,0 0,-10.5 -13.52,0 0,-45.98 c 0,-3.87 0.23,-6.33 0.63,-7.38 0.5,-1.1 1.28,-1.96 2.38,-2.62 1.09,-0.7 2.62,-1.02 4.65,-1.02 1.4,0 3.36,0.2 5.86,0.63 z m 12.34,81.48 0,15.28 13.36,0 0,-15.28 -13.36,0 z m 0,-93.47 0,78.86 13.36,0 0,-78.86 -13.36,0 z m 28.05,39.36 c 0,14.58 4.06,25.4 12.22,32.5 6.76,5.83 15,8.75 24.77,8.75 10.82,0 19.65,-3.59 26.48,-10.73 6.92,-7.11 10.39,-16.87 10.39,-29.37 0,-10.2 -1.56,-18.21 -4.64,-24.03 -2.97,-5.74 -7.39,-10.23 -13.25,-13.47 -5.74,-3.21 -12.07,-4.77 -18.98,-4.77 -11.02,0 -19.92,3.55 -26.76,10.62 -6.83,7.08 -10.23,17.27 -10.23,30.5 z m 13.75,0 c 0,-10.07 2.18,-17.6 6.6,-22.6 4.41,-5 9.96,-7.5 16.64,-7.5 6.64,0 12.15,2.5 16.48,7.5 4.42,5.07 6.64,12.76 6.64,23.12 0,9.73 -2.22,17.11 -6.64,22.11 -4.41,5 -9.92,7.5 -16.48,7.5 -6.68,0 -12.23,-2.5 -16.64,-7.5 -4.42,-5 -6.6,-12.54 -6.6,-22.63 z m 74.25,-39.36 0,78.86 12,0 0,-11.25 c 5.82,8.68 14.18,13 25.11,13 4.77,0 9.14,-0.88 13.13,-2.6 3.98,-1.68 6.95,-3.95 8.87,-6.76 1.99,-2.78 3.43,-6.02 4.25,-9.77 0.51,-2.5 0.75,-6.83 0.75,-13.01 l 0,-48.47 -13.36,0 0,48.01 c 0,5.39 -0.55,9.44 -1.64,12.1 -0.98,2.74 -2.82,4.93 -5.51,6.49 -2.66,1.6 -5.78,2.38 -9.38,2.38 -5.66,0 -10.58,-1.79 -14.72,-5.35 -4.1,-3.59 -6.14,-10.47 -6.14,-20.62 l 0,-43.01 -13.36,0 z"
             id="path3501"
             style="fill:#000000;fill-opacity:1;fill-rule:nonzero;stroke:none" /><path
             d="m 2629.61,727.246 0,78.871 12.03,0 0,-11.992 c 3.05,5.582 5.9,9.25 8.48,10.973 2.58,1.84 5.47,2.777 8.63,2.777 4.49,0 9.06,-1.488 13.75,-4.379 l -4.61,-12.379 c -3.28,1.91 -6.56,2.891 -9.88,2.891 -2.93,0 -5.55,-0.903 -7.89,-2.66 -2.23,-1.723 -3.87,-4.141 -4.89,-7.223 -1.48,-4.77 -2.22,-9.957 -2.22,-15.629 l 0,-41.25 -13.4,0 z m 103.83,25.352 13.75,-1.723 c -2.15,-8 -6.21,-14.25 -12.11,-18.75 -5.82,-4.449 -13.32,-6.641 -22.5,-6.641 -11.49,0 -20.63,3.563 -27.38,10.633 -6.76,7.071 -10.12,17.028 -10.12,29.879 0,13.238 3.36,23.52 10.12,30.859 6.83,7.34 15.7,11.02 26.64,11.02 10.58,0 19.18,-3.598 25.86,-10.75 6.68,-7.18 10,-17.301 10,-30.391 0,-0.738 -0.04,-1.91 -0.12,-3.507 l -58.75,0 c 0.51,-8.672 2.97,-15.282 7.38,-19.852 4.41,-4.609 9.92,-6.867 16.49,-6.867 4.84,0 8.94,1.25 12.38,3.75 3.51,2.578 6.29,6.68 8.36,12.34 z m -43.87,21.636 44.02,0 c -0.58,6.571 -2.26,11.532 -5,14.891 -4.25,5.152 -9.8,7.73 -16.64,7.73 -6.09,0 -11.25,-2.07 -15.5,-6.25 -4.18,-4.058 -6.45,-9.531 -6.88,-16.371 z m 72.62,-46.988 0,108.75 13.4,0 0,-108.75 -13.4,0 z m 84.92,9.731 c -5,-4.219 -9.81,-7.231 -14.38,-8.993 -4.57,-1.679 -9.49,-2.5 -14.72,-2.5 -8.6,0 -15.24,2.071 -19.89,6.25 -4.68,4.262 -6.99,9.653 -6.99,16.25 0,3.911 0.86,7.461 2.62,10.633 1.76,3.16 4.02,5.699 6.87,7.617 2.82,1.911 6.02,3.391 9.61,4.371 2.66,0.743 6.65,1.411 11.88,1.993 10.82,1.328 18.79,2.886 23.87,4.648 l 0,3.481 c 0,5.429 -1.25,9.257 -3.75,11.519 -3.4,3.012 -8.48,4.488 -15.24,4.488 -6.25,0 -10.86,-1.089 -13.87,-3.238 -3,-2.191 -5.23,-6.09 -6.64,-11.762 l -13.12,1.883 c 1.25,5.578 3.2,10.078 5.9,13.508 2.73,3.402 6.64,6.02 11.72,7.859 5.19,1.911 11.17,2.891 18,2.891 6.76,0 12.23,-0.82 16.37,-2.391 4.18,-1.597 7.27,-3.589 9.26,-6.007 1.99,-2.422 3.4,-5.43 4.14,-9.102 0.51,-2.27 0.74,-6.328 0.74,-12.27 l 0,-17.847 c 0,-12.422 0.24,-20.313 0.74,-23.633 0.59,-3.25 1.76,-6.367 3.52,-9.379 l -14.02,0 c -1.41,2.738 -2.27,5.981 -2.62,9.731 z m -1.13,29.757 c -4.81,-1.91 -12.11,-3.589 -21.88,-5 -5.47,-0.738 -9.37,-1.636 -11.6,-2.609 -2.27,-1.02 -4.02,-2.457 -5.27,-4.379 -1.25,-1.91 -1.88,-4.058 -1.88,-6.371 0,-3.59 1.33,-6.598 4.03,-9.02 2.73,-2.339 6.67,-3.48 11.87,-3.48 5.16,0 9.73,1.102 13.75,3.359 3.98,2.352 6.95,5.434 8.87,9.262 1.4,3.09 2.11,7.539 2.11,13.359 l 0,4.879 z m 61.87,-27.5 1.88,-11.867 c -3.75,-0.742 -7.11,-1.133 -10.12,-1.133 -4.81,0 -8.56,0.743 -11.25,2.262 -2.66,1.559 -4.53,3.559 -5.63,5.981 -1.05,2.5 -1.6,7.808 -1.6,15.898 l 0,45.23 -9.88,0 0,10.512 9.88,0 0,19.488 13.25,8.012 0,-27.5 13.47,0 0,-10.512 -13.47,0 0,-45.98 c 0,-3.859 0.19,-6.32 0.62,-7.379 0.51,-1.09 1.29,-1.949 2.38,-2.621 1.06,-0.699 2.62,-1.008 4.61,-1.008 1.41,0 3.36,0.188 5.86,0.617 z m 66.25,13.364 13.75,-1.723 c -2.19,-8 -6.21,-14.25 -12.15,-18.75 -5.82,-4.449 -13.32,-6.641 -22.5,-6.641 -11.48,0 -20.62,3.563 -27.38,10.633 -6.72,7.071 -10.12,17.028 -10.12,29.879 0,13.238 3.4,23.52 10.12,30.859 6.84,7.34 15.74,11.02 26.64,11.02 10.59,0 19.22,-3.598 25.86,-10.75 6.68,-7.18 10,-17.301 10,-30.391 0,-0.738 -0.04,-1.91 -0.12,-3.507 l -58.75,0 c 0.51,-8.672 2.97,-15.282 7.39,-19.852 4.41,-4.609 9.92,-6.867 16.48,-6.867 4.84,0 8.98,1.25 12.38,3.75 3.52,2.578 6.29,6.68 8.4,12.34 z m -43.9,21.636 44.02,0 c -0.59,6.571 -2.27,11.532 -5,14.891 -4.26,5.152 -9.81,7.73 -16.64,7.73 -6.1,0 -11.25,-2.07 -15.51,-6.25 -4.14,-4.058 -6.45,-9.531 -6.87,-16.371 z m 124.02,-46.988 0,10 c -5,-7.851 -12.34,-11.762 -21.99,-11.762 -6.25,0 -12.07,1.723 -17.39,5.121 -5.23,3.52 -9.33,8.321 -12.26,14.493 -2.81,6.25 -4.22,13.437 -4.22,21.527 0,7.813 1.29,14.961 3.87,21.359 2.65,6.411 6.56,11.332 11.75,14.774 5.24,3.398 11.1,5.117 17.62,5.117 4.73,0 8.95,-1.02 12.62,-3.008 3.75,-1.992 6.8,-4.609 9.14,-7.89 l 0,39.019 13.24,0 0,-108.75 -12.38,0 z m -42.27,39.379 c 0,-10.078 2.15,-17.617 6.41,-22.617 4.3,-5 9.37,-7.5 15.12,-7.5 5.82,0 10.78,2.34 14.88,7.109 4.06,4.758 6.09,12.028 6.09,21.867 0,10.75 -2.07,18.641 -6.25,23.641 -4.14,5.07 -9.29,7.609 -15.35,7.609 -5.94,0 -10.9,-2.418 -14.88,-7.257 -3.99,-4.809 -6.02,-12.461 -6.02,-22.852 z m 144.85,-27.391 1.87,-11.867 c -3.75,-0.742 -7.11,-1.133 -10.12,-1.133 -4.8,0 -8.55,0.743 -11.25,2.262 -2.65,1.559 -4.53,3.559 -5.62,5.981 -1.06,2.5 -1.6,7.808 -1.6,15.898 l 0,45.23 -9.88,0 0,10.512 9.88,0 0,19.488 13.24,8.012 0,-27.5 13.48,0 0,-10.512 -13.48,0 0,-45.98 c 0,-3.859 0.2,-6.32 0.63,-7.379 0.5,-1.09 1.28,-1.949 2.38,-2.621 1.05,-0.699 2.62,-1.008 4.61,-1.008 1.4,0 3.36,0.188 5.86,0.617 z m 7.22,27.391 c 0,14.57 4.1,25.391 12.27,32.5 6.76,5.82 15,8.75 24.73,8.75 10.86,0 19.68,-3.598 26.52,-10.75 6.91,-7.109 10.35,-16.867 10.35,-29.367 0,-10.203 -1.52,-18.203 -4.61,-24.024 -3.01,-5.75 -7.42,-10.238 -13.24,-13.476 -5.74,-3.203 -12.11,-4.774 -19.02,-4.774 -10.98,0 -19.89,3.563 -26.72,10.633 -6.84,7.071 -10.28,17.258 -10.28,30.508 z m 13.75,0 c 0,-10.078 2.23,-17.617 6.64,-22.617 4.42,-5 9.97,-7.5 16.61,-7.5 6.68,0 12.18,2.5 16.52,7.5 4.41,5.078 6.6,12.769 6.6,23.117 0,9.73 -2.19,17.109 -6.6,22.109 -4.42,5 -9.92,7.5 -16.52,7.5 -6.64,0 -12.19,-2.5 -16.61,-7.5 -4.41,-5 -6.64,-12.539 -6.64,-22.609 z"
             id="path3503"
             style="fill:#741b47;fill-opacity:1;fill-rule:nonzero;stroke:none" /><path
             d="m 1409.69,1246.35 c 0,134.49 233.94,243.56 522.58,243.56 288.59,0 522.57,-109.07 522.57,-243.56 0,-134.49 -233.98,-243.51 -522.57,-243.51 -288.64,0 -522.58,109.02 -522.58,243.51 z"
             id="path3505"
             style="fill:#c9daf8;fill-opacity:1;fill-rule:nonzero;stroke:none" /><path
             d="m 1409.69,1246.35 c 0,134.49 233.94,243.56 522.58,243.56 288.59,0 522.57,-109.07 522.57,-243.56 0,-134.49 -233.98,-243.51 -522.57,-243.51 -288.64,0 -522.58,109.02 -522.58,243.51 z"
             id="path3507"
             style="fill:none;stroke:#3c78d8;stroke-width:8;stroke-linecap:butt;stroke-linejoin:round;stroke-miterlimit:10;stroke-opacity:1;stroke-dasharray:none" /><path
             d="m 1792.81,1191 -12.38,0 0,108.75 13.24,0 0,-38.75 c 5.71,7.11 12.89,10.63 21.64,10.63 4.85,0 9.42,-0.99 13.75,-3.01 4.34,-1.92 7.89,-4.66 10.63,-8.24 2.85,-3.49 5.04,-7.74 6.64,-12.74 1.56,-5 2.34,-10.35 2.34,-16.01 0,-13.49 -3.32,-23.95 -10,-31.37 -6.64,-7.35 -14.65,-11.03 -23.98,-11.03 -9.34,0 -16.64,3.91 -21.88,11.65 l 0,-9.88 z m -0.11,40 c 0,-9.41 1.25,-16.25 3.75,-20.52 4.25,-6.82 9.96,-10.22 17.1,-10.22 5.86,0 10.9,2.5 15.12,7.5 4.26,5.08 6.41,12.65 6.41,22.72 0,10.29 -2.07,17.86 -6.13,22.79 -4.11,4.92 -9.03,7.37 -14.77,7.37 -5.82,0 -10.86,-2.53 -15.12,-7.66 -4.26,-5.07 -6.36,-12.37 -6.36,-21.98 z m 65.74,-0.62 c 0,14.6 4.1,25.42 12.26,32.5 6.76,5.85 15,8.75 24.73,8.75 10.86,0 19.69,-3.6 26.52,-10.75 6.92,-7.08 10.35,-16.87 10.35,-29.37 0,-10.16 -1.52,-18.17 -4.6,-23.99 -3.01,-5.79 -7.43,-10.27 -13.25,-13.51 -5.74,-3.17 -12.07,-4.78 -19.02,-4.78 -10.98,0 -19.88,3.57 -26.72,10.64 -6.83,7.11 -10.27,17.26 -10.27,30.51 z m 13.75,0 c 0,-10.08 2.22,-17.62 6.64,-22.62 4.41,-5 9.96,-7.5 16.6,-7.5 6.68,0 12.19,2.5 16.52,7.5 4.42,5.08 6.6,12.77 6.6,23.12 0,9.76 -2.18,17.1 -6.6,22.1 -4.41,5 -9.92,7.5 -16.52,7.5 -6.64,0 -12.19,-2.5 -16.6,-7.5 -4.42,-5 -6.64,-12.53 -6.64,-22.6 z m 125.39,-39.38 0,10 c -5,-7.81 -12.35,-11.77 -21.99,-11.77 -6.25,0 -12.04,1.73 -17.39,5.16 -5.23,3.49 -9.33,8.32 -12.26,14.5 -2.82,6.25 -4.22,13.4 -4.22,21.49 0,7.85 1.29,14.96 3.87,21.35 2.65,6.46 6.56,11.38 11.75,14.78 5.24,3.4 11.1,5.12 17.62,5.12 4.73,0 8.95,-0.99 12.62,-3.01 3.75,-1.99 6.8,-4.61 9.14,-7.85 l 0,38.98 13.24,0 0,-108.75 -12.38,0 z m -42.27,39.38 c 0,-10.08 2.15,-17.62 6.41,-22.62 4.33,-5 9.37,-7.5 15.12,-7.5 5.82,0 10.78,2.38 14.88,7.11 4.06,4.76 6.09,12.07 6.09,21.86 0,10.79 -2.07,18.65 -6.25,23.65 -4.14,5.07 -9.26,7.6 -15.35,7.6 -5.94,0 -10.9,-2.37 -14.88,-7.21 -3.99,-4.85 -6.02,-12.47 -6.02,-22.89 z m 73.52,-69.74 -1.37,12.5 c 2.93,-0.77 5.47,-1.12 7.62,-1.12 2.93,0 5.27,0.5 6.99,1.48 1.84,1.02 3.36,2.38 4.53,4.14 0.82,1.32 2.15,4.65 3.99,10 0.23,0.74 0.66,1.84 1.25,3.24 l -29.89,78.99 14.38,0 16.37,-45.74 c 2.18,-5.75 4.1,-11.84 5.78,-18.25 1.48,6.17 3.32,12.15 5.47,18.01 l 16.75,45.98 13.4,0 -30,-80.24 c -3.2,-8.67 -5.7,-14.61 -7.5,-17.9 -2.34,-4.41 -5.08,-7.6 -8.12,-9.6 -3.09,-2.08 -6.76,-3.12 -11.02,-3.12 -2.58,0 -5.47,0.54 -8.63,1.63 z"
             id="path3509"
             style="fill:#000000;fill-opacity:1;fill-rule:nonzero;stroke:none" /><path
             d="m 1932.27,1002.84 c 0,-116.293 334.37,-232.582 668.71,-232.582"
             id="path3511"
             style="fill:none;stroke:#741b47;stroke-width:8;stroke-linecap:butt;stroke-linejoin:round;stroke-miterlimit:10;stroke-opacity:1;stroke-dasharray:64, 24;stroke-dashoffset:0" /><path
             d="m 3271.09,770.258 c 162.74,0 325.43,29.058 447.46,72.687 61.02,21.801 111.88,47.231 147.47,74.5 8.9,6.793 16.83,13.711 23.75,20.743 3.43,3.507 6.64,7.027 9.57,10.578 1.48,1.761 2.89,3.562 4.21,5.32 0.67,0.898 1.29,1.789 1.92,2.691 l 0.55,0.778"
             id="path3513"
             style="fill:none;stroke:#741b47;stroke-width:8;stroke-linecap:butt;stroke-linejoin:round;stroke-miterlimit:10;stroke-opacity:1;stroke-dasharray:64, 24;stroke-dashoffset:0" /><path
             d="m 3918.48,953.145 -0.43,38.632 -24.5,-29.839 24.93,-8.793 z"
             id="path3515"
             style="fill:#741b47;fill-opacity:1;fill-rule:evenodd;stroke:none" /><path
             d="m 3918.48,953.145 -0.43,38.632 -24.5,-29.839 24.93,-8.793 z"
             id="path3517"
             style="fill:none;stroke:#741b47;stroke-width:8;stroke-linecap:butt;stroke-linejoin:miter;stroke-miterlimit:10;stroke-opacity:1;stroke-dasharray:none" /><path
             d="M 2467.85,2007.6 1966.68,1523.14"
             id="path3519"
             style="fill:none;stroke:#000000;stroke-width:8;stroke-linecap:butt;stroke-linejoin:round;stroke-miterlimit:10;stroke-opacity:1;stroke-dasharray:none" /><path
             d="m 1957.5,1532.64 -16.95,-34.73 35.31,15.75 -18.36,18.98 z"
             id="path3521"
             style="fill:#000000;fill-opacity:1;fill-rule:evenodd;stroke:none" /><path
             d="m 1957.5,1532.64 -16.95,-34.73 35.31,15.75 -18.36,18.98 z"
             id="path3523"
             style="fill:none;stroke:#000000;stroke-width:8;stroke-linecap:butt;stroke-linejoin:miter;stroke-miterlimit:10;stroke-opacity:1;stroke-dasharray:none" /><path
             d="m 3386.48,2007.6 501.18,-484.46"
             id="path3525"
             style="fill:none;stroke:#000000;stroke-width:8;stroke-linecap:butt;stroke-linejoin:round;stroke-miterlimit:10;stroke-opacity:1;stroke-dasharray:none" /><path
             d="m 3878.48,1513.66 35.27,-15.75 -16.91,34.73 -18.36,-18.98 z"
             id="path3527"
             style="fill:#000000;fill-opacity:1;fill-rule:evenodd;stroke:none" /><path
             d="m 3878.48,1513.66 35.27,-15.75 -16.91,34.73 -18.36,-18.98 z"
             id="path3529"
             style="fill:none;stroke:#000000;stroke-width:8;stroke-linecap:butt;stroke-linejoin:miter;stroke-miterlimit:10;stroke-opacity:1;stroke-dasharray:none" /></g></g><g
         id="g3531"><g
           clip-path="url(#clipPath3535)"
           id="g3533"><path
             d="m 1095.86,552.605 3647.7,0 0,2118.2 -3647.7,0 0,-2118.2 z"
             id="path3539"
             style="fill:none;stroke:#000000;stroke-width:7.75368977;stroke-linecap:butt;stroke-linejoin:miter;stroke-miterlimit:10;stroke-opacity:1;stroke-dasharray:none" /></g></g></g></g></svg>